<svg xmlns="http://www.w3.org/2000/svg" xmlns:xlink="http://www.w3.org/1999/xlink" width="128" zoomAndPan="magnify" viewBox="0 0 96 95.999999" height="128" preserveAspectRatio="xMidYMid meet" version="1.0"><defs><clipPath id="7eaac8d580"><path d="M 33 15 L 76.585938 15 L 76.585938 86.101562 L 33 86.101562 Z M 33 15 " clip-rule="nonzero"/></clipPath><clipPath id="03844b9e0e"><path d="M 50 9.601562 L 54 9.601562 L 54 16 L 50 16 Z M 50 9.601562 " clip-rule="nonzero"/></clipPath><clipPath id="be60325e77"><path d="M 42 9.601562 L 51 9.601562 L 51 19 L 42 19 Z M 42 9.601562 " clip-rule="nonzero"/></clipPath><clipPath id="24963f08ed"><path d="M 19.585938 23 L 54 23 L 54 86.101562 L 19.585938 86.101562 Z M 19.585938 23 " clip-rule="nonzero"/></clipPath></defs><path fill="#4e8d9c" d="M 70.898438 74.742188 L 73.75 74.742188 L 73.75 71.910156 L 70.898438 71.910156 L 70.898438 74.742188 " fill-opacity="1" fill-rule="nonzero"/><g clip-path="url(#7eaac8d580)"><path fill="#cedbdf" d="M 73.75 63.417969 L 73.75 60.585938 L 70.898438 60.585938 L 70.898438 57.757812 L 68.050781 57.757812 L 68.050781 54.925781 L 65.199219 54.925781 L 65.199219 52.09375 L 62.347656 52.09375 L 62.347656 49.261719 L 59.496094 49.261719 L 59.496094 46.433594 L 56.644531 46.433594 L 56.644531 26.613281 L 59.496094 26.613281 L 59.496094 18.125 L 56.644531 18.125 L 56.644531 15.292969 L 53.796875 15.292969 L 53.796875 20.953125 L 50.945312 20.953125 L 50.945312 23.785156 L 45.242188 23.785156 L 45.242188 20.953125 L 42.394531 20.953125 L 42.394531 15.292969 L 39.542969 15.292969 L 39.542969 18.125 L 36.695312 18.125 L 36.695312 23.785156 L 42.394531 23.785156 L 42.394531 26.613281 L 53.796875 26.613281 L 53.796875 29.449219 L 50.945312 29.449219 L 50.945312 32.277344 L 42.394531 32.277344 L 42.394531 46.433594 L 53.796875 46.433594 L 53.796875 49.261719 L 56.644531 49.261719 L 56.644531 52.09375 L 59.496094 52.09375 L 59.496094 54.925781 L 62.347656 54.925781 L 62.347656 57.757812 L 65.199219 57.757812 L 65.199219 60.585938 L 68.050781 60.585938 L 68.050781 63.417969 L 70.898438 63.417969 L 70.898438 69.078125 L 73.75 69.078125 L 73.75 74.742188 L 70.898438 74.742188 L 70.898438 77.570312 L 68.050781 77.570312 L 68.050781 80.402344 L 59.496094 80.402344 L 59.496094 83.234375 L 33.839844 83.234375 L 33.839844 86.066406 L 62.347656 86.066406 L 62.347656 83.234375 L 70.898438 83.234375 L 70.898438 80.402344 L 73.75 80.402344 L 73.75 77.570312 L 76.597656 77.570312 L 76.597656 66.246094 L 73.75 66.246094 L 73.75 63.417969 " fill-opacity="1" fill-rule="nonzero"/></g><path fill="#4e8d9c" d="M 65.199219 74.742188 L 65.199219 77.570312 L 59.496094 77.570312 L 59.496094 80.402344 L 68.050781 80.402344 L 68.050781 77.570312 L 70.898438 77.570312 L 70.898438 74.742188 L 65.199219 74.742188 " fill-opacity="1" fill-rule="nonzero"/><path fill="#b0e4e4" d="M 68.050781 71.910156 L 68.050781 69.078125 L 65.199219 69.078125 L 65.199219 71.910156 L 68.050781 71.910156 " fill-opacity="1" fill-rule="nonzero"/><path fill="#4ac4e1" d="M 56.644531 71.910156 L 59.496094 71.910156 L 59.496094 69.078125 L 56.644531 69.078125 L 56.644531 71.910156 " fill-opacity="1" fill-rule="nonzero"/><path fill="#b0e4e4" d="M 56.644531 63.417969 L 59.496094 63.417969 L 59.496094 66.246094 L 62.347656 66.246094 L 62.347656 69.078125 L 65.199219 69.078125 L 65.199219 63.417969 L 62.347656 63.417969 L 62.347656 60.585938 L 59.496094 60.585938 L 59.496094 57.757812 L 56.644531 57.757812 L 56.644531 63.417969 " fill-opacity="1" fill-rule="nonzero"/><path fill="#4e8d9c" d="M 53.796875 80.402344 L 42.394531 80.402344 L 42.394531 77.570312 L 33.839844 77.570312 L 33.839844 74.742188 L 30.992188 74.742188 L 30.992188 71.910156 L 25.292969 71.910156 L 25.292969 69.078125 L 22.441406 69.078125 L 22.441406 74.742188 L 25.292969 74.742188 L 25.292969 77.570312 L 28.140625 77.570312 L 28.140625 80.402344 L 33.839844 80.402344 L 33.839844 83.234375 L 59.496094 83.234375 L 59.496094 80.402344 L 53.796875 80.402344 " fill-opacity="1" fill-rule="nonzero"/><path fill="#4ac4e1" d="M 53.796875 74.742188 L 56.644531 74.742188 L 56.644531 71.910156 L 53.796875 71.910156 L 53.796875 74.742188 " fill-opacity="1" fill-rule="nonzero"/><path fill="#b0e4e4" d="M 56.644531 57.757812 L 56.644531 54.925781 L 53.796875 54.925781 L 53.796875 57.757812 L 56.644531 57.757812 " fill-opacity="1" fill-rule="nonzero"/><path fill="#b0e4e4" d="M 50.945312 52.09375 L 50.945312 54.925781 L 53.796875 54.925781 L 53.796875 52.09375 L 50.945312 52.09375 " fill-opacity="1" fill-rule="nonzero"/><path fill="#917c50" d="M 50.945312 18.125 L 45.242188 18.125 L 45.242188 23.785156 L 48.09375 23.785156 L 48.09375 20.953125 L 53.796875 20.953125 L 53.796875 15.292969 L 50.945312 15.292969 L 50.945312 18.125 " fill-opacity="1" fill-rule="nonzero"/><g clip-path="url(#03844b9e0e)"><path fill="#533c20" d="M 50.945312 15.292969 L 53.796875 15.292969 L 53.796875 9.628906 L 50.945312 9.628906 L 50.945312 15.292969 " fill-opacity="1" fill-rule="nonzero"/></g><path fill="#4ac4e1" d="M 48.09375 66.246094 L 50.945312 66.246094 L 50.945312 63.417969 L 48.09375 63.417969 L 48.09375 66.246094 " fill-opacity="1" fill-rule="nonzero"/><path fill="#684c2a" d="M 48.09375 23.785156 L 50.945312 23.785156 L 50.945312 20.953125 L 48.09375 20.953125 L 48.09375 23.785156 " fill-opacity="1" fill-rule="nonzero"/><path fill="#533c20" d="M 50.945312 15.292969 L 48.09375 15.292969 L 48.09375 18.125 L 50.945312 18.125 L 50.945312 15.292969 " fill-opacity="1" fill-rule="nonzero"/><path fill="#4ac4e1" d="M 48.09375 52.09375 L 48.09375 49.261719 L 45.242188 49.261719 L 45.242188 52.09375 L 48.09375 52.09375 " fill-opacity="1" fill-rule="nonzero"/><g clip-path="url(#be60325e77)"><path fill="#684c2a" d="M 45.242188 18.125 L 48.09375 18.125 L 48.09375 15.292969 L 50.945312 15.292969 L 50.945312 9.628906 L 42.394531 9.628906 L 42.394531 15.292969 L 45.242188 15.292969 L 45.242188 18.125 " fill-opacity="1" fill-rule="nonzero"/></g><path fill="#684c2a" d="M 42.394531 18.125 L 42.394531 20.953125 L 45.242188 20.953125 L 45.242188 18.125 L 42.394531 18.125 " fill-opacity="1" fill-rule="nonzero"/><path fill="#917c50" d="M 45.242188 18.125 L 45.242188 15.292969 L 42.394531 15.292969 L 42.394531 18.125 L 45.242188 18.125 " fill-opacity="1" fill-rule="nonzero"/><path fill="#72d1e2" d="M 48.09375 49.261719 L 48.09375 52.09375 L 45.242188 52.09375 L 45.242188 49.261719 Z M 56.644531 54.925781 L 56.644531 57.757812 L 59.496094 57.757812 L 59.496094 60.585938 L 62.347656 60.585938 L 62.347656 63.417969 L 65.199219 63.417969 L 65.199219 69.078125 L 68.050781 69.078125 L 68.050781 71.910156 L 65.199219 71.910156 L 65.199219 69.078125 L 62.347656 69.078125 L 62.347656 66.246094 L 59.496094 66.246094 L 59.496094 63.417969 L 56.644531 63.417969 L 56.644531 57.757812 L 53.796875 57.757812 L 53.796875 54.925781 L 50.945312 54.925781 L 50.945312 52.09375 L 53.796875 52.09375 L 53.796875 54.925781 Z M 36.695312 74.742188 L 36.695312 71.910156 L 39.542969 71.910156 L 39.542969 74.742188 Z M 30.992188 66.246094 L 33.839844 66.246094 L 33.839844 63.417969 L 36.695312 63.417969 L 36.695312 66.246094 L 33.839844 66.246094 L 33.839844 69.078125 L 30.992188 69.078125 Z M 50.945312 66.246094 L 48.09375 66.246094 L 48.09375 63.417969 L 50.945312 63.417969 Z M 59.496094 71.910156 L 56.644531 71.910156 L 56.644531 74.742188 L 53.796875 74.742188 L 53.796875 71.910156 L 56.644531 71.910156 L 56.644531 69.078125 L 59.496094 69.078125 Z M 39.542969 49.261719 L 39.542969 52.09375 L 36.695312 52.09375 L 36.695312 54.925781 L 33.839844 54.925781 L 33.839844 57.757812 L 30.992188 57.757812 L 30.992188 60.585938 L 28.140625 60.585938 L 28.140625 63.417969 L 25.292969 63.417969 L 25.292969 71.910156 L 30.992188 71.910156 L 30.992188 74.742188 L 33.839844 74.742188 L 33.839844 77.570312 L 42.394531 77.570312 L 42.394531 80.402344 L 59.496094 80.402344 L 59.496094 77.570312 L 65.199219 77.570312 L 65.199219 74.742188 L 70.898438 74.742188 L 70.898438 71.910156 L 73.75 71.910156 L 73.75 69.078125 L 70.898438 69.078125 L 70.898438 63.417969 L 68.050781 63.417969 L 68.050781 60.585938 L 65.199219 60.585938 L 65.199219 57.757812 L 62.347656 57.757812 L 62.347656 54.925781 L 59.496094 54.925781 L 59.496094 52.09375 L 56.644531 52.09375 L 56.644531 49.261719 L 53.796875 49.261719 L 53.796875 46.433594 L 42.394531 46.433594 L 42.394531 49.261719 L 39.542969 49.261719 " fill-opacity="1" fill-rule="nonzero"/><path fill="#4ac4e1" d="M 36.695312 71.910156 L 36.695312 74.742188 L 39.542969 74.742188 L 39.542969 71.910156 L 36.695312 71.910156 " fill-opacity="1" fill-rule="nonzero"/><path fill="#4ac4e1" d="M 36.695312 63.417969 L 33.839844 63.417969 L 33.839844 66.246094 L 36.695312 66.246094 L 36.695312 63.417969 " fill-opacity="1" fill-rule="nonzero"/><g clip-path="url(#24963f08ed)"><path fill="#b4c1c4" d="M 33.839844 80.402344 L 28.140625 80.402344 L 28.140625 77.570312 L 25.292969 77.570312 L 25.292969 74.742188 L 22.441406 74.742188 L 22.441406 69.078125 L 25.292969 69.078125 L 25.292969 63.417969 L 28.140625 63.417969 L 28.140625 60.585938 L 30.992188 60.585938 L 30.992188 57.757812 L 33.839844 57.757812 L 33.839844 54.925781 L 36.695312 54.925781 L 36.695312 52.09375 L 39.542969 52.09375 L 39.542969 49.261719 L 42.394531 49.261719 L 42.394531 32.277344 L 50.945312 32.277344 L 50.945312 29.449219 L 53.796875 29.449219 L 53.796875 26.613281 L 42.394531 26.613281 L 42.394531 23.785156 L 36.695312 23.785156 L 36.695312 26.613281 L 39.542969 26.613281 L 39.542969 46.433594 L 36.695312 46.433594 L 36.695312 49.261719 L 33.839844 49.261719 L 33.839844 52.09375 L 30.992188 52.09375 L 30.992188 54.925781 L 28.140625 54.925781 L 28.140625 57.757812 L 25.292969 57.757812 L 25.292969 60.585938 L 22.441406 60.585938 L 22.441406 66.246094 L 19.589844 66.246094 L 19.589844 77.570312 L 22.441406 77.570312 L 22.441406 80.402344 L 25.292969 80.402344 L 25.292969 83.234375 L 30.992188 83.234375 L 30.992188 86.066406 L 33.839844 86.066406 L 33.839844 80.402344 " fill-opacity="1" fill-rule="nonzero"/></g><path fill="#4ac4e1" d="M 33.839844 66.246094 L 30.992188 66.246094 L 30.992188 69.078125 L 33.839844 69.078125 L 33.839844 66.246094 " fill-opacity="1" fill-rule="nonzero"/></svg>