<svg xmlns="http://www.w3.org/2000/svg" xmlns:xlink="http://www.w3.org/1999/xlink" width="128" zoomAndPan="magnify" viewBox="0 0 96 95.999999" height="128" preserveAspectRatio="xMidYMid meet" version="1.0"><defs><clipPath id="b30875d7ad"><path d="M 28 73 L 68 73 L 68 76.757812 L 28 76.757812 Z M 28 73 " clip-rule="nonzero"/></clipPath><clipPath id="6af26835e0"><path d="M 51 19.007812 L 68 19.007812 L 68 23 L 51 23 Z M 51 19.007812 " clip-rule="nonzero"/></clipPath><clipPath id="f02bfb1627"><path d="M 6.058594 67 L 10 67 L 10 71 L 6.058594 71 Z M 6.058594 67 " clip-rule="nonzero"/></clipPath><clipPath id="0408b8a7ec"><path d="M 28 73 L 68 73 L 68 76.757812 L 28 76.757812 Z M 28 73 " clip-rule="nonzero"/></clipPath><clipPath id="894561cc5b"><path d="M 51 19.007812 L 68 19.007812 L 68 23 L 51 23 Z M 51 19.007812 " clip-rule="nonzero"/></clipPath><clipPath id="fba788e0d8"><path d="M 6.058594 67 L 10 67 L 10 71 L 6.058594 71 Z M 6.058594 67 " clip-rule="nonzero"/></clipPath></defs><path fill="#000000" d="M 89.992188 70.339844 L 89.992188 67.132812 L 86.765625 67.132812 L 86.765625 70.339844 L 89.992188 70.339844 " fill-opacity="1" fill-rule="nonzero"/><path fill="#000000" d="M 67.410156 70.339844 L 67.410156 73.546875 L 86.765625 73.546875 L 86.765625 70.339844 L 67.410156 70.339844 " fill-opacity="1" fill-rule="nonzero"/><path fill="#000000" d="M 80.316406 63.921875 L 80.316406 67.132812 L 86.765625 67.132812 L 86.765625 63.921875 L 80.316406 63.921875 " fill-opacity="1" fill-rule="nonzero"/><path fill="#000000" d="M 80.316406 63.921875 L 80.316406 60.714844 L 70.636719 60.714844 L 70.636719 63.921875 L 80.316406 63.921875 " fill-opacity="1" fill-rule="nonzero"/><path fill="#000000" d="M 70.636719 38.257812 L 73.863281 38.257812 L 73.863281 25.421875 L 70.636719 25.421875 L 70.636719 38.257812 " fill-opacity="1" fill-rule="nonzero"/><path fill="#000000" d="M 67.410156 57.507812 L 64.1875 57.507812 L 64.1875 60.714844 L 70.636719 60.714844 L 70.636719 51.089844 L 67.410156 51.089844 L 67.410156 57.507812 " fill-opacity="1" fill-rule="nonzero"/><path fill="#000000" d="M 67.410156 41.464844 L 70.636719 41.464844 L 70.636719 38.257812 L 67.410156 38.257812 L 67.410156 41.464844 " fill-opacity="1" fill-rule="nonzero"/><path fill="#000000" d="M 70.636719 25.421875 L 70.636719 22.214844 L 67.410156 22.214844 L 67.410156 25.421875 L 70.636719 25.421875 " fill-opacity="1" fill-rule="nonzero"/><path fill="#000000" d="M 67.410156 31.839844 L 64.1875 31.839844 L 64.1875 38.257812 L 67.410156 38.257812 L 67.410156 31.839844 " fill-opacity="1" fill-rule="nonzero"/><path fill="#000000" d="M 67.410156 28.632812 L 67.410156 25.421875 L 64.1875 25.421875 L 64.1875 28.632812 L 67.410156 28.632812 " fill-opacity="1" fill-rule="nonzero"/><g clip-path="url(#b30875d7ad)"><path fill="#000000" d="M 28.703125 73.546875 L 28.703125 76.757812 L 67.410156 76.757812 L 67.410156 73.546875 L 28.703125 73.546875 " fill-opacity="1" fill-rule="nonzero"/></g><path fill="#000000" d="M 60.960938 51.089844 L 67.410156 51.089844 L 67.410156 47.882812 L 64.1875 47.882812 L 64.1875 41.464844 L 60.960938 41.464844 L 60.960938 51.089844 " fill-opacity="1" fill-rule="nonzero"/><path fill="#000000" d="M 57.734375 28.632812 L 57.734375 31.839844 L 64.1875 31.839844 L 64.1875 28.632812 L 57.734375 28.632812 " fill-opacity="1" fill-rule="nonzero"/><path fill="#000000" d="M 60.960938 54.296875 L 60.960938 51.089844 L 54.507812 51.089844 L 54.507812 54.296875 L 60.960938 54.296875 " fill-opacity="1" fill-rule="nonzero"/><path fill="#000000" d="M 57.734375 41.464844 L 60.960938 41.464844 L 60.960938 35.046875 L 57.734375 35.046875 L 57.734375 41.464844 " fill-opacity="1" fill-rule="nonzero"/><path fill="#000000" d="M 54.507812 35.046875 L 57.734375 35.046875 L 57.734375 31.839844 L 54.507812 31.839844 L 54.507812 35.046875 " fill-opacity="1" fill-rule="nonzero"/><path fill="#000000" d="M 57.734375 28.632812 L 57.734375 25.421875 L 54.507812 25.421875 L 54.507812 28.632812 L 57.734375 28.632812 " fill-opacity="1" fill-rule="nonzero"/><g clip-path="url(#6af26835e0)"><path fill="#000000" d="M 67.410156 22.214844 L 67.410156 19.007812 L 51.28125 19.007812 L 51.28125 22.214844 L 67.410156 22.214844 " fill-opacity="1" fill-rule="nonzero"/></g><path fill="#000000" d="M 51.28125 63.921875 L 64.1875 63.921875 L 64.1875 60.714844 L 54.507812 60.714844 L 54.507812 54.296875 L 51.28125 54.296875 L 51.28125 63.921875 " fill-opacity="1" fill-rule="nonzero"/><path fill="#000000" d="M 41.605469 63.921875 L 41.605469 67.132812 L 51.28125 67.132812 L 51.28125 63.921875 L 41.605469 63.921875 " fill-opacity="1" fill-rule="nonzero"/><path fill="#000000" d="M 51.28125 22.214844 L 48.058594 22.214844 L 48.058594 25.421875 L 51.28125 25.421875 L 51.28125 22.214844 " fill-opacity="1" fill-rule="nonzero"/><path fill="#000000" d="M 51.28125 54.296875 L 51.28125 51.089844 L 41.605469 51.089844 L 41.605469 54.296875 L 51.28125 54.296875 " fill-opacity="1" fill-rule="nonzero"/><path fill="#000000" d="M 48.058594 25.421875 L 44.832031 25.421875 L 44.832031 28.632812 L 48.058594 28.632812 L 48.058594 25.421875 " fill-opacity="1" fill-rule="nonzero"/><path fill="#ffe388" d="M 41.605469 54.296875 L 41.605469 63.921875 L 51.28125 63.921875 L 51.28125 54.296875 L 41.605469 54.296875 " fill-opacity="1" fill-rule="nonzero"/><path fill="#000000" d="M 44.832031 28.632812 L 41.605469 28.632812 L 41.605469 35.046875 L 44.832031 35.046875 L 44.832031 28.632812 " fill-opacity="1" fill-rule="nonzero"/><path fill="#000000" d="M 41.605469 35.046875 L 38.378906 35.046875 L 38.378906 41.464844 L 41.605469 41.464844 L 41.605469 35.046875 " fill-opacity="1" fill-rule="nonzero"/><path fill="#000000" d="M 41.605469 63.921875 L 41.605469 54.296875 L 38.378906 54.296875 L 38.378906 60.714844 L 35.152344 60.714844 L 35.152344 63.921875 L 41.605469 63.921875 " fill-opacity="1" fill-rule="nonzero"/><path fill="#93278f" d="M 60.960938 51.089844 L 60.960938 54.296875 L 54.507812 54.296875 L 54.507812 60.714844 L 64.1875 60.714844 L 64.1875 57.507812 L 67.410156 57.507812 L 67.410156 51.089844 L 60.960938 51.089844 " fill-opacity="1" fill-rule="nonzero"/><path fill="#93278f" d="M 35.152344 60.714844 L 38.378906 60.714844 L 38.378906 54.296875 L 35.152344 54.296875 L 35.152344 60.714844 " fill-opacity="1" fill-rule="nonzero"/><path fill="#000000" d="M 9.347656 70.339844 L 9.347656 73.546875 L 28.703125 73.546875 L 28.703125 70.339844 L 9.347656 70.339844 " fill-opacity="1" fill-rule="nonzero"/><path fill="#000000" d="M 35.152344 60.714844 L 35.152344 54.296875 L 38.378906 54.296875 L 38.378906 41.464844 L 35.152344 41.464844 L 35.152344 51.089844 L 31.925781 51.089844 L 31.925781 57.507812 L 22.25 57.507812 L 22.25 60.714844 L 35.152344 60.714844 " fill-opacity="1" fill-rule="nonzero"/><path fill="#000000" d="M 22.25 63.921875 L 22.25 60.714844 L 15.796875 60.714844 L 15.796875 63.921875 L 22.25 63.921875 " fill-opacity="1" fill-rule="nonzero"/><path fill="#000000" d="M 15.796875 67.132812 L 15.796875 63.921875 L 9.347656 63.921875 L 9.347656 67.132812 L 15.796875 67.132812 " fill-opacity="1" fill-rule="nonzero"/><g clip-path="url(#f02bfb1627)"><path fill="#000000" d="M 9.347656 67.132812 L 6.121094 67.132812 L 6.121094 70.339844 L 9.347656 70.339844 L 9.347656 67.132812 " fill-opacity="1" fill-rule="nonzero"/></g><path fill="#2e3192" d="M 80.316406 67.132812 L 80.316406 63.921875 L 70.636719 63.921875 L 70.636719 60.714844 L 64.1875 60.714844 L 64.1875 63.921875 L 51.28125 63.921875 L 51.28125 67.132812 L 41.605469 67.132812 L 41.605469 63.921875 L 35.152344 63.921875 L 35.152344 60.714844 L 22.25 60.714844 L 22.25 63.921875 L 15.796875 63.921875 L 15.796875 67.132812 L 9.347656 67.132812 L 9.347656 70.339844 L 28.703125 70.339844 L 28.703125 73.546875 L 67.410156 73.546875 L 67.410156 70.339844 L 86.765625 70.339844 L 86.765625 67.132812 L 80.316406 67.132812 " fill-opacity="1" fill-rule="nonzero"/><path fill="#2e3192" d="M 64.1875 28.632812 L 64.1875 31.839844 L 67.410156 31.839844 L 67.410156 38.257812 L 70.636719 38.257812 L 70.636719 25.421875 L 67.410156 25.421875 L 67.410156 28.632812 L 64.1875 28.632812 " fill-opacity="1" fill-rule="nonzero"/><path fill="#2e3192" d="M 41.605469 51.089844 L 51.28125 51.089844 L 51.28125 54.296875 L 54.507812 54.296875 L 54.507812 51.089844 L 60.960938 51.089844 L 60.960938 41.464844 L 57.734375 41.464844 L 57.734375 35.046875 L 54.507812 35.046875 L 54.507812 31.839844 L 57.734375 31.839844 L 57.734375 28.632812 L 54.507812 28.632812 L 54.507812 25.421875 L 57.734375 25.421875 L 57.734375 28.632812 L 64.1875 28.632812 L 64.1875 25.421875 L 67.410156 25.421875 L 67.410156 22.214844 L 51.28125 22.214844 L 51.28125 25.421875 L 48.058594 25.421875 L 48.058594 28.632812 L 44.832031 28.632812 L 44.832031 35.046875 L 41.605469 35.046875 L 41.605469 41.464844 L 38.378906 41.464844 L 38.378906 54.296875 L 41.605469 54.296875 L 41.605469 51.089844 " fill-opacity="1" fill-rule="nonzero"/><path fill="#000000" d="M 89.992188 70.339844 L 89.992188 67.132812 L 86.765625 67.132812 L 86.765625 70.339844 L 89.992188 70.339844 " fill-opacity="1" fill-rule="nonzero"/><path fill="#000000" d="M 67.410156 70.339844 L 67.410156 73.546875 L 86.765625 73.546875 L 86.765625 70.339844 L 67.410156 70.339844 " fill-opacity="1" fill-rule="nonzero"/><path fill="#1b1464" d="M 67.410156 67.132812 L 67.410156 70.339844 L 86.765625 70.339844 L 86.765625 67.132812 L 67.410156 67.132812 " fill-opacity="1" fill-rule="nonzero"/><path fill="#000000" d="M 80.316406 63.921875 L 80.316406 67.132812 L 86.765625 67.132812 L 86.765625 63.921875 L 80.316406 63.921875 " fill-opacity="1" fill-rule="nonzero"/><path fill="#2e3192" d="M 64.1875 63.921875 L 64.1875 67.132812 L 35.152344 67.132812 L 35.152344 63.921875 L 22.25 63.921875 L 22.25 67.132812 L 28.703125 67.132812 L 28.703125 70.339844 L 67.410156 70.339844 L 67.410156 67.132812 L 80.316406 67.132812 L 80.316406 63.921875 L 64.1875 63.921875 " fill-opacity="1" fill-rule="nonzero"/><path fill="#000000" d="M 80.316406 63.921875 L 80.316406 60.714844 L 70.636719 60.714844 L 70.636719 63.921875 L 80.316406 63.921875 " fill-opacity="1" fill-rule="nonzero"/><path fill="#000000" d="M 70.636719 38.257812 L 73.863281 38.257812 L 73.863281 25.421875 L 70.636719 25.421875 L 70.636719 38.257812 " fill-opacity="1" fill-rule="nonzero"/><path fill="#000000" d="M 67.410156 57.507812 L 64.1875 57.507812 L 64.1875 60.714844 L 70.636719 60.714844 L 70.636719 51.089844 L 67.410156 51.089844 L 67.410156 57.507812 " fill-opacity="1" fill-rule="nonzero"/><path fill="#000000" d="M 67.410156 41.464844 L 70.636719 41.464844 L 70.636719 38.257812 L 67.410156 38.257812 L 67.410156 41.464844 " fill-opacity="1" fill-rule="nonzero"/><path fill="#1b1464" d="M 67.410156 35.046875 L 67.410156 38.257812 L 70.636719 38.257812 L 70.636719 35.046875 L 67.410156 35.046875 " fill-opacity="1" fill-rule="nonzero"/><path fill="#2e3192" d="M 67.410156 35.046875 L 70.636719 35.046875 L 70.636719 28.632812 L 67.410156 28.632812 L 67.410156 35.046875 " fill-opacity="1" fill-rule="nonzero"/><path fill="#5155bb" d="M 67.410156 28.632812 L 70.636719 28.632812 L 70.636719 25.421875 L 67.410156 25.421875 L 67.410156 28.632812 " fill-opacity="1" fill-rule="nonzero"/><path fill="#000000" d="M 70.636719 25.421875 L 70.636719 22.214844 L 67.410156 22.214844 L 67.410156 25.421875 L 70.636719 25.421875 " fill-opacity="1" fill-rule="nonzero"/><path fill="#1b1464" d="M 28.703125 70.339844 L 28.703125 73.546875 L 67.410156 73.546875 L 67.410156 70.339844 L 28.703125 70.339844 " fill-opacity="1" fill-rule="nonzero"/><path fill="#1b1464" d="M 64.1875 60.714844 L 64.1875 63.921875 L 70.636719 63.921875 L 70.636719 60.714844 L 64.1875 60.714844 " fill-opacity="1" fill-rule="nonzero"/><path fill="#000000" d="M 67.410156 31.839844 L 64.1875 31.839844 L 64.1875 38.257812 L 67.410156 38.257812 L 67.410156 31.839844 " fill-opacity="1" fill-rule="nonzero"/><path fill="#1b1464" d="M 67.410156 28.632812 L 64.1875 28.632812 L 64.1875 31.839844 L 67.410156 31.839844 L 67.410156 28.632812 " fill-opacity="1" fill-rule="nonzero"/><path fill="#000000" d="M 67.410156 28.632812 L 67.410156 25.421875 L 64.1875 25.421875 L 64.1875 28.632812 L 67.410156 28.632812 " fill-opacity="1" fill-rule="nonzero"/><path fill="#5155bb" d="M 64.1875 25.421875 L 67.410156 25.421875 L 67.410156 22.214844 L 64.1875 22.214844 L 64.1875 25.421875 " fill-opacity="1" fill-rule="nonzero"/><g clip-path="url(#0408b8a7ec)"><path fill="#000000" d="M 28.703125 73.546875 L 28.703125 76.757812 L 67.410156 76.757812 L 67.410156 73.546875 L 28.703125 73.546875 " fill-opacity="1" fill-rule="nonzero"/></g><path fill="#93278f" d="M 60.960938 51.089844 L 60.960938 54.296875 L 67.410156 54.296875 L 67.410156 51.089844 L 60.960938 51.089844 " fill-opacity="1" fill-rule="nonzero"/><path fill="#000000" d="M 60.960938 51.089844 L 67.410156 51.089844 L 67.410156 47.882812 L 64.1875 47.882812 L 64.1875 41.464844 L 60.960938 41.464844 L 60.960938 51.089844 " fill-opacity="1" fill-rule="nonzero"/><path fill="#000000" d="M 57.734375 28.632812 L 57.734375 31.839844 L 64.1875 31.839844 L 64.1875 28.632812 L 57.734375 28.632812 " fill-opacity="1" fill-rule="nonzero"/><path fill="#1b1464" d="M 51.28125 63.921875 L 51.28125 67.132812 L 64.1875 67.132812 L 64.1875 63.921875 L 51.28125 63.921875 " fill-opacity="1" fill-rule="nonzero"/><path fill="#662d91" d="M 54.507812 57.507812 L 54.507812 60.714844 L 64.1875 60.714844 L 64.1875 57.507812 L 67.410156 57.507812 L 67.410156 54.296875 L 60.960938 54.296875 L 60.960938 57.507812 L 54.507812 57.507812 " fill-opacity="1" fill-rule="nonzero"/><path fill="#000000" d="M 60.960938 54.296875 L 60.960938 51.089844 L 54.507812 51.089844 L 54.507812 54.296875 L 60.960938 54.296875 " fill-opacity="1" fill-rule="nonzero"/><path fill="#000000" d="M 57.734375 41.464844 L 60.960938 41.464844 L 60.960938 35.046875 L 57.734375 35.046875 L 57.734375 41.464844 " fill-opacity="1" fill-rule="nonzero"/><path fill="#1b1464" d="M 57.734375 25.421875 L 57.734375 28.632812 L 64.1875 28.632812 L 64.1875 25.421875 L 57.734375 25.421875 " fill-opacity="1" fill-rule="nonzero"/><path fill="#2e3192" d="M 64.1875 25.421875 L 64.1875 22.214844 L 54.507812 22.214844 L 54.507812 25.421875 L 64.1875 25.421875 " fill-opacity="1" fill-rule="nonzero"/><path fill="#93278f" d="M 60.960938 57.507812 L 60.960938 54.296875 L 54.507812 54.296875 L 54.507812 57.507812 L 60.960938 57.507812 " fill-opacity="1" fill-rule="nonzero"/><path fill="#2e3192" d="M 57.734375 35.046875 L 54.507812 35.046875 L 54.507812 25.421875 L 51.28125 25.421875 L 51.28125 28.632812 L 48.058594 28.632812 L 48.058594 35.046875 L 44.832031 35.046875 L 44.832031 41.464844 L 41.605469 41.464844 L 41.605469 51.089844 L 51.28125 51.089844 L 51.28125 54.296875 L 54.507812 54.296875 L 54.507812 51.089844 L 60.960938 51.089844 L 60.960938 41.464844 L 57.734375 41.464844 L 57.734375 35.046875 " fill-opacity="1" fill-rule="nonzero"/><path fill="#000000" d="M 54.507812 35.046875 L 57.734375 35.046875 L 57.734375 31.839844 L 54.507812 31.839844 L 54.507812 35.046875 " fill-opacity="1" fill-rule="nonzero"/><path fill="#1b1464" d="M 54.507812 31.839844 L 57.734375 31.839844 L 57.734375 28.632812 L 54.507812 28.632812 L 54.507812 31.839844 " fill-opacity="1" fill-rule="nonzero"/><path fill="#000000" d="M 57.734375 28.632812 L 57.734375 25.421875 L 54.507812 25.421875 L 54.507812 28.632812 L 57.734375 28.632812 " fill-opacity="1" fill-rule="nonzero"/><g clip-path="url(#894561cc5b)"><path fill="#000000" d="M 67.410156 22.214844 L 67.410156 19.007812 L 51.28125 19.007812 L 51.28125 22.214844 L 67.410156 22.214844 " fill-opacity="1" fill-rule="nonzero"/></g><path fill="#000000" d="M 51.28125 63.921875 L 64.1875 63.921875 L 64.1875 60.714844 L 54.507812 60.714844 L 54.507812 54.296875 L 51.28125 54.296875 L 51.28125 63.921875 " fill-opacity="1" fill-rule="nonzero"/><path fill="#5155bb" d="M 54.507812 25.421875 L 54.507812 22.214844 L 51.28125 22.214844 L 51.28125 25.421875 L 54.507812 25.421875 " fill-opacity="1" fill-rule="nonzero"/><path fill="#000000" d="M 41.605469 63.921875 L 41.605469 67.132812 L 51.28125 67.132812 L 51.28125 63.921875 L 41.605469 63.921875 " fill-opacity="1" fill-rule="nonzero"/><path fill="#ffb207" d="M 44.832031 57.507812 L 44.832031 60.714844 L 51.28125 60.714844 L 51.28125 57.507812 L 44.832031 57.507812 " fill-opacity="1" fill-rule="nonzero"/><path fill="#5155bb" d="M 51.28125 28.632812 L 51.28125 25.421875 L 48.058594 25.421875 L 48.058594 28.632812 L 51.28125 28.632812 " fill-opacity="1" fill-rule="nonzero"/><path fill="#000000" d="M 51.28125 22.214844 L 48.058594 22.214844 L 48.058594 25.421875 L 51.28125 25.421875 L 51.28125 22.214844 " fill-opacity="1" fill-rule="nonzero"/><path fill="#000000" d="M 51.28125 54.296875 L 51.28125 51.089844 L 41.605469 51.089844 L 41.605469 54.296875 L 51.28125 54.296875 " fill-opacity="1" fill-rule="nonzero"/><path fill="#5155bb" d="M 44.832031 35.046875 L 48.058594 35.046875 L 48.058594 28.632812 L 44.832031 28.632812 L 44.832031 35.046875 " fill-opacity="1" fill-rule="nonzero"/><path fill="#000000" d="M 48.058594 25.421875 L 44.832031 25.421875 L 44.832031 28.632812 L 48.058594 28.632812 L 48.058594 25.421875 " fill-opacity="1" fill-rule="nonzero"/><path fill="#ffe388" d="M 41.605469 63.921875 L 51.28125 63.921875 L 51.28125 60.714844 L 44.832031 60.714844 L 44.832031 57.507812 L 51.28125 57.507812 L 51.28125 54.296875 L 41.605469 54.296875 L 41.605469 63.921875 " fill-opacity="1" fill-rule="nonzero"/><path fill="#5155bb" d="M 41.605469 41.464844 L 44.832031 41.464844 L 44.832031 35.046875 L 41.605469 35.046875 L 41.605469 41.464844 " fill-opacity="1" fill-rule="nonzero"/><path fill="#000000" d="M 44.832031 28.632812 L 41.605469 28.632812 L 41.605469 35.046875 L 44.832031 35.046875 L 44.832031 28.632812 " fill-opacity="1" fill-rule="nonzero"/><path fill="#1b1464" d="M 35.152344 63.921875 L 35.152344 67.132812 L 41.605469 67.132812 L 41.605469 63.921875 L 35.152344 63.921875 " fill-opacity="1" fill-rule="nonzero"/><path fill="#5155bb" d="M 38.378906 54.296875 L 41.605469 54.296875 L 41.605469 41.464844 L 38.378906 41.464844 L 38.378906 54.296875 " fill-opacity="1" fill-rule="nonzero"/><path fill="#000000" d="M 41.605469 35.046875 L 38.378906 35.046875 L 38.378906 41.464844 L 41.605469 41.464844 L 41.605469 35.046875 " fill-opacity="1" fill-rule="nonzero"/><path fill="#000000" d="M 41.605469 63.921875 L 41.605469 54.296875 L 38.378906 54.296875 L 38.378906 60.714844 L 35.152344 60.714844 L 35.152344 63.921875 L 41.605469 63.921875 " fill-opacity="1" fill-rule="nonzero"/><path fill="#662d91" d="M 38.378906 57.507812 L 35.152344 57.507812 L 35.152344 60.714844 L 38.378906 60.714844 L 38.378906 57.507812 " fill-opacity="1" fill-rule="nonzero"/><path fill="#93278f" d="M 38.378906 54.296875 L 35.152344 54.296875 L 35.152344 57.507812 L 38.378906 57.507812 L 38.378906 54.296875 " fill-opacity="1" fill-rule="nonzero"/><path fill="#1b1464" d="M 35.152344 60.714844 L 31.925781 60.714844 L 31.925781 63.921875 L 35.152344 63.921875 L 35.152344 60.714844 " fill-opacity="1" fill-rule="nonzero"/><path fill="#000000" d="M 9.347656 70.339844 L 9.347656 73.546875 L 28.703125 73.546875 L 28.703125 70.339844 L 9.347656 70.339844 " fill-opacity="1" fill-rule="nonzero"/><path fill="#1b1464" d="M 15.796875 67.132812 L 15.796875 70.339844 L 28.703125 70.339844 L 28.703125 67.132812 L 15.796875 67.132812 " fill-opacity="1" fill-rule="nonzero"/><path fill="#000000" d="M 35.152344 60.714844 L 35.152344 54.296875 L 38.378906 54.296875 L 38.378906 41.464844 L 35.152344 41.464844 L 35.152344 51.089844 L 31.925781 51.089844 L 31.925781 57.507812 L 22.25 57.507812 L 22.25 60.714844 L 35.152344 60.714844 " fill-opacity="1" fill-rule="nonzero"/><path fill="#5155bb" d="M 31.925781 63.921875 L 31.925781 60.714844 L 22.25 60.714844 L 22.25 63.921875 L 31.925781 63.921875 " fill-opacity="1" fill-rule="nonzero"/><path fill="#000000" d="M 22.25 63.921875 L 22.25 60.714844 L 15.796875 60.714844 L 15.796875 63.921875 L 22.25 63.921875 " fill-opacity="1" fill-rule="nonzero"/><path fill="#5155bb" d="M 22.25 67.132812 L 22.25 63.921875 L 15.796875 63.921875 L 15.796875 67.132812 L 22.25 67.132812 " fill-opacity="1" fill-rule="nonzero"/><path fill="#2e3192" d="M 9.347656 67.132812 L 9.347656 70.339844 L 15.796875 70.339844 L 15.796875 67.132812 L 9.347656 67.132812 " fill-opacity="1" fill-rule="nonzero"/><path fill="#000000" d="M 15.796875 67.132812 L 15.796875 63.921875 L 9.347656 63.921875 L 9.347656 67.132812 L 15.796875 67.132812 " fill-opacity="1" fill-rule="nonzero"/><g clip-path="url(#fba788e0d8)"><path fill="#000000" d="M 9.347656 67.132812 L 6.121094 67.132812 L 6.121094 70.339844 L 9.347656 70.339844 L 9.347656 67.132812 " fill-opacity="1" fill-rule="nonzero"/></g></svg>