<svg xmlns="http://www.w3.org/2000/svg" xmlns:xlink="http://www.w3.org/1999/xlink" width="128" zoomAndPan="magnify" viewBox="0 0 96 95.999999" height="128" preserveAspectRatio="xMidYMid meet" version="1.0"><defs><clipPath id="05d10c6ab2"><path d="M 80 30 L 83.664062 30 L 83.664062 34 L 80 34 Z M 80 30 " clip-rule="nonzero"/></clipPath><clipPath id="39cfb6ba0c"><path d="M 65 12.414062 L 70 12.414062 L 70 16 L 65 16 Z M 65 12.414062 " clip-rule="nonzero"/></clipPath><clipPath id="d26e1335e0"><path d="M 12.414062 62 L 16 62 L 16 66 L 12.414062 66 Z M 12.414062 62 " clip-rule="nonzero"/></clipPath><clipPath id="dcf42c9c65"><path d="M 26 80 L 31 80 L 31 83.664062 L 26 83.664062 Z M 26 80 " clip-rule="nonzero"/></clipPath></defs><path fill="#f9ebaa" d="M 62.289062 26.664062 L 72.976562 26.664062 L 72.976562 37.351562 L 62.289062 37.351562 Z M 62.289062 26.664062 " fill-opacity="1" fill-rule="nonzero"/><path fill="#f9ebaa" d="M 23.101562 58.726562 L 33.789062 58.726562 L 33.789062 69.414062 L 23.101562 69.414062 Z M 23.101562 58.726562 " fill-opacity="1" fill-rule="nonzero"/><path fill="#f6db6e" d="M 69.414062 19.539062 L 65.851562 19.539062 L 65.851562 30.226562 L 58.726562 30.226562 L 58.726562 33.789062 L 65.851562 33.789062 L 65.851562 44.476562 L 69.414062 44.476562 L 69.414062 33.789062 L 76.539062 33.789062 L 76.539062 30.226562 L 69.414062 30.226562 Z M 69.414062 19.539062 " fill-opacity="1" fill-rule="nonzero"/><g clip-path="url(#05d10c6ab2)"><path fill="#f6db6e" d="M 80.101562 30.226562 L 83.664062 30.226562 L 83.664062 33.789062 L 80.101562 33.789062 Z M 80.101562 30.226562 " fill-opacity="1" fill-rule="nonzero"/></g><path fill="#f6db6e" d="M 51.601562 30.226562 L 55.164062 30.226562 L 55.164062 33.789062 L 51.601562 33.789062 Z M 51.601562 30.226562 " fill-opacity="1" fill-rule="nonzero"/><g clip-path="url(#39cfb6ba0c)"><path fill="#f6db6e" d="M 65.851562 12.414062 L 69.414062 12.414062 L 69.414062 15.976562 L 65.851562 15.976562 Z M 65.851562 12.414062 " fill-opacity="1" fill-rule="nonzero"/></g><path fill="#f6db6e" d="M 65.851562 48.039062 L 69.414062 48.039062 L 69.414062 51.601562 L 65.851562 51.601562 Z M 65.851562 48.039062 " fill-opacity="1" fill-rule="nonzero"/><path fill="#f6db6e" d="M 30.226562 51.601562 L 26.664062 51.601562 L 26.664062 62.289062 L 19.539062 62.289062 L 19.539062 65.851562 L 26.664062 65.851562 L 26.664062 76.539062 L 30.226562 76.539062 L 30.226562 65.851562 L 37.351562 65.851562 L 37.351562 62.289062 L 30.226562 62.289062 Z M 30.226562 51.601562 " fill-opacity="1" fill-rule="nonzero"/><path fill="#f6db6e" d="M 40.914062 62.289062 L 44.476562 62.289062 L 44.476562 65.851562 L 40.914062 65.851562 Z M 40.914062 62.289062 " fill-opacity="1" fill-rule="nonzero"/><g clip-path="url(#d26e1335e0)"><path fill="#f6db6e" d="M 12.414062 62.289062 L 15.976562 62.289062 L 15.976562 65.851562 L 12.414062 65.851562 Z M 12.414062 62.289062 " fill-opacity="1" fill-rule="nonzero"/></g><path fill="#f6db6e" d="M 26.664062 44.476562 L 30.226562 44.476562 L 30.226562 48.039062 L 26.664062 48.039062 Z M 26.664062 44.476562 " fill-opacity="1" fill-rule="nonzero"/><g clip-path="url(#dcf42c9c65)"><path fill="#f6db6e" d="M 26.664062 80.101562 L 30.226562 80.101562 L 30.226562 83.664062 L 26.664062 83.664062 Z M 26.664062 80.101562 " fill-opacity="1" fill-rule="nonzero"/></g></svg>