<svg xmlns="http://www.w3.org/2000/svg" xmlns:xlink="http://www.w3.org/1999/xlink" width="128" zoomAndPan="magnify" viewBox="0 0 96 95.999999" height="128" preserveAspectRatio="xMidYMid meet" version="1.0"><defs><clipPath id="7ca6da5978"><path d="M 12.074219 10.71875 L 84.074219 10.71875 L 84.074219 84.96875 L 12.074219 84.96875 Z M 12.074219 10.71875 " clip-rule="nonzero"/></clipPath></defs><path fill="#f7f7f0" d="M 82.746094 39.890625 L 82.746094 59.777344 L 81.417969 61.097656 L 80.085938 62.417969 L 77.414062 62.417969 L 77.414062 35.910156 L 76.085938 34.589844 L 73.410156 31.949219 L 72.082031 28.742188 L 68.082031 26.636719 L 65.40625 23.992188 L 60.074219 21.335938 L 54.742188 18.695312 L 53.414062 17.359375 L 42.75 17.359375 L 41.40625 18.695312 L 36.074219 21.335938 L 30.742188 23.992188 L 28.070312 26.636719 L 24.082031 28.742188 L 22.738281 31.949219 L 20.082031 34.589844 L 18.734375 35.910156 L 18.734375 62.417969 L 16.078125 62.417969 L 14.75 61.097656 L 13.40625 59.777344 L 13.40625 39.890625 L 14.75 37.246094 L 16.078125 35.347656 L 16.078125 27.972656 L 17.40625 26.636719 L 20.082031 23.992188 L 22.738281 21.335938 L 28.070312 18.695312 L 33.417969 16.039062 L 38.75 13.394531 L 41.40625 12.058594 L 54.742188 12.058594 L 57.417969 13.394531 L 62.75 16.039062 L 68.082031 18.695312 L 73.410156 21.335938 L 76.085938 23.992188 L 78.742188 26.636719 L 80.085938 27.972656 L 80.085938 35.347656 L 81.417969 37.246094 Z M 25.410156 58.441406 L 22.738281 58.441406 L 22.738281 61.097656 L 25.367188 61.097656 L 25.367188 66.398438 L 28.039062 66.398438 L 28.039062 61.097656 L 25.410156 61.097656 Z M 28.054688 69.054688 L 30.730469 69.054688 L 30.730469 66.398438 L 28.054688 66.398438 Z M 70.753906 61.097656 L 73.425781 61.097656 L 73.425781 58.441406 L 70.753906 58.441406 Z M 65.40625 69.054688 L 68.082031 69.054688 L 68.082031 66.398438 L 65.40625 66.398438 Z M 68.082031 63.742188 L 68.082031 66.398438 L 70.753906 66.398438 L 70.753906 61.097656 L 68.082031 61.097656 Z M 68.082031 63.742188 " fill-opacity="1" fill-rule="nonzero"/><path fill="#c1c2d9" d="M 40.601562 73.015625 L 40.601562 70.359375 L 38.734375 69.039062 L 37.40625 66.382812 L 37.40625 65.0625 L 36.074219 63.742188 L 35.179688 62.417969 L 35.179688 57.121094 L 33.402344 55.800781 L 32.074219 53.886719 L 32.074219 51.289062 L 30.742188 50.5 L 29.414062 49.179688 L 27.144531 49.179688 L 25.410156 50.5 L 23.710938 51.824219 L 18.734375 51.824219 L 18.734375 64.304688 L 20.066406 66.398438 L 22.738281 71.695312 L 25.410156 76.996094 L 28.085938 82.292969 L 29.414062 83.152344 L 37.417969 83.152344 L 38.75 82.292969 L 41.421875 79.636719 L 42.75 78.65625 L 42.75 75.660156 L 41.421875 74.339844 Z M 28.039062 63.742188 L 28.039062 66.398438 L 25.367188 66.398438 L 25.367188 61.082031 L 22.738281 61.082031 L 22.738281 58.425781 L 25.410156 58.425781 L 25.410156 61.082031 L 28.039062 61.082031 Z M 30.730469 69.054688 L 28.054688 69.054688 L 28.054688 66.398438 L 30.730469 66.398438 Z M 72.441406 51.824219 L 70.738281 50.5 L 69.007812 49.179688 L 66.734375 49.179688 L 65.40625 50.5 L 64.078125 51.289062 L 64.078125 53.886719 L 62.75 55.800781 L 60.972656 57.121094 L 60.972656 62.417969 L 60.074219 63.742188 L 58.746094 65.0625 L 58.746094 66.382812 L 57.417969 69.039062 L 55.550781 70.359375 L 55.550781 73.015625 L 54.742188 74.339844 L 53.414062 75.660156 L 53.414062 78.65625 L 54.742188 79.636719 L 57.417969 82.292969 L 58.746094 83.152344 L 66.75 83.152344 L 68.082031 82.292969 L 70.753906 76.996094 L 73.425781 71.695312 L 76.101562 66.398438 L 77.429688 64.304688 L 77.429688 51.824219 Z M 68.066406 69.054688 L 65.390625 69.054688 L 65.390625 66.398438 L 68.066406 66.398438 Z M 73.410156 61.097656 L 70.753906 61.097656 L 70.753906 66.398438 L 68.082031 66.398438 L 68.082031 61.082031 L 70.738281 61.082031 L 70.738281 58.441406 L 73.410156 58.441406 Z M 70.753906 61.082031 Z M 70.753906 61.082031 " fill-opacity="1" fill-rule="nonzero"/><g clip-path="url(#7ca6da5978)"><path fill="#3e3467" d="M 33.417969 21.335938 L 36.074219 21.335938 L 36.074219 23.992188 L 30.742188 23.992188 L 30.742188 21.335938 Z M 28.070312 26.636719 L 22.738281 26.636719 L 22.738281 31.949219 L 20.082031 31.949219 L 20.082031 34.589844 L 17.40625 34.589844 L 17.40625 26.648438 L 20.082031 26.648438 L 20.082031 23.992188 L 17.40625 23.992188 L 17.40625 26.636719 L 14.75 26.636719 L 14.75 37.246094 L 17.40625 37.246094 L 17.40625 61.097656 L 14.75 61.097656 L 14.75 63.742188 L 17.40625 63.742188 L 17.40625 66.398438 L 20.082031 66.398438 L 20.082031 71.695312 L 22.738281 71.695312 L 22.738281 76.996094 L 25.410156 76.996094 L 25.410156 82.292969 L 28.070312 82.292969 L 28.070312 84.949219 L 38.75 84.949219 L 38.75 82.308594 L 41.421875 82.308594 L 41.421875 79.652344 L 44.082031 79.652344 L 44.082031 74.351562 L 41.40625 74.351562 L 41.40625 79.652344 L 38.75 79.652344 L 38.75 82.292969 L 36.074219 82.292969 L 36.074219 79.652344 L 33.417969 79.652344 L 33.417969 76.996094 L 30.742188 76.996094 L 30.742188 71.695312 L 28.070312 71.695312 L 28.070312 66.398438 L 25.410156 66.398438 L 25.410156 61.097656 L 22.738281 61.097656 L 22.738281 58.441406 L 20.082031 58.441406 L 20.082031 53.144531 L 25.410156 53.144531 L 25.410156 50.5 L 20.082031 50.5 L 20.082031 34.605469 L 22.753906 34.605469 L 22.753906 31.949219 L 25.410156 31.949219 L 25.410156 29.292969 L 28.070312 29.292969 L 28.070312 26.636719 L 30.742188 26.648438 L 30.742188 23.992188 L 28.070312 23.992188 Z M 36.074219 18.695312 L 36.074219 21.335938 L 41.40625 21.335938 L 41.40625 18.695312 Z M 33.417969 18.695312 L 33.417969 16.039062 L 28.070312 16.039062 L 28.070312 18.695312 Z M 22.753906 21.335938 L 28.070312 21.335938 L 28.070312 18.695312 L 22.738281 18.695312 L 22.753906 21.335938 L 20.082031 21.335938 L 20.082031 23.992188 L 22.753906 23.992188 Z M 44.082031 13.394531 L 57.417969 13.394531 L 57.417969 10.738281 L 38.75 10.738281 L 38.75 13.394531 Z M 38.75 16.039062 L 38.75 13.394531 L 33.417969 13.394531 L 33.417969 16.039062 L 36.074219 16.039062 C 36.074219 16.039062 38.75 16.039062 38.75 16.039062 Z M 14.75 55.800781 L 14.75 37.246094 L 12.074219 37.246094 L 12.074219 61.097656 L 14.75 61.097656 Z M 30.742188 50.5 L 30.742188 47.84375 L 25.410156 47.84375 L 25.410156 50.5 Z M 30.742188 55.800781 L 33.417969 55.800781 L 33.417969 50.5 L 30.742188 50.5 Z M 33.417969 61.097656 L 33.417969 63.742188 L 36.074219 63.742188 L 36.074219 55.800781 L 33.417969 55.800781 Z M 36.074219 69.054688 L 38.75 69.054688 L 38.75 63.742188 L 36.074219 63.742188 Z M 38.75 74.351562 L 41.40625 74.351562 L 41.40625 69.054688 L 38.75 69.054688 Z M 62.75 21.335938 L 60.074219 21.335938 L 60.074219 23.992188 L 65.40625 23.992188 L 65.40625 21.335938 Z M 73.410156 26.636719 L 68.082031 26.636719 L 68.082031 23.992188 L 65.40625 23.992188 L 65.40625 26.648438 L 68.082031 26.648438 L 68.082031 29.292969 L 70.753906 29.292969 L 70.753906 31.949219 L 73.410156 31.949219 Z M 52.085938 16.039062 L 41.40625 16.039062 L 41.40625 18.695312 L 54.742188 18.695312 L 54.742188 16.039062 Z M 57.417969 18.695312 L 54.742188 18.695312 L 54.742188 21.335938 L 60.074219 21.335938 L 60.074219 18.695312 Z M 65.40625 18.695312 L 68.082031 18.695312 L 68.082031 16.039062 L 62.75 16.039062 L 62.75 18.695312 Z M 70.753906 21.335938 L 73.410156 21.335938 L 73.410156 18.695312 L 68.082031 18.695312 L 68.082031 21.335938 C 68.082031 21.335938 70.753906 21.335938 70.753906 21.335938 Z M 76.085938 23.992188 L 76.085938 21.335938 L 73.410156 21.335938 L 73.410156 23.992188 Z M 60.074219 16.039062 L 62.75 16.039062 L 62.75 13.394531 L 57.417969 13.394531 L 57.417969 16.039062 C 57.417969 16.039062 60.074219 16.039062 60.074219 16.039062 Z M 81.417969 37.246094 L 81.417969 61.097656 L 84.074219 61.097656 L 84.074219 37.246094 Z M 70.753906 50.5 L 70.753906 47.84375 L 65.40625 47.84375 L 65.40625 50.5 Z M 65.40625 53.144531 L 65.40625 50.5 L 62.75 50.5 L 62.75 55.800781 L 65.40625 55.800781 Z M 62.75 61.097656 L 62.75 55.800781 L 60.074219 55.800781 L 60.074219 63.742188 L 62.75 63.742188 Z M 60.074219 66.398438 L 60.074219 63.742188 L 57.417969 63.742188 L 57.417969 69.054688 L 60.074219 69.054688 Z M 57.417969 71.695312 L 57.417969 69.054688 L 54.742188 69.054688 L 54.742188 74.351562 L 57.417969 74.351562 Z M 54.742188 74.351562 L 52.085938 74.351562 L 52.085938 79.652344 L 54.742188 79.652344 Z M 78.742188 58.441406 L 78.742188 37.246094 L 81.417969 37.246094 L 81.417969 26.636719 L 78.757812 26.636719 L 78.757812 23.992188 L 76.085938 23.992188 L 76.085938 26.648438 L 78.742188 26.648438 L 78.742188 34.589844 L 76.085938 34.589844 L 76.085938 31.949219 L 73.410156 31.949219 L 73.410156 34.605469 L 76.085938 34.605469 L 76.085938 50.5 L 70.753906 50.5 L 70.753906 53.144531 L 76.085938 53.144531 L 76.085938 58.441406 L 73.410156 58.441406 L 73.410156 61.097656 L 70.753906 61.097656 L 70.753906 66.398438 L 68.082031 66.398438 L 68.082031 71.695312 L 65.40625 71.695312 L 65.40625 76.996094 L 62.75 76.996094 L 62.75 79.652344 L 60.074219 79.652344 L 60.074219 82.292969 L 57.417969 82.292969 L 57.417969 79.652344 L 54.742188 79.652344 L 54.742188 82.308594 L 57.417969 82.308594 L 57.417969 84.949219 L 68.082031 84.949219 L 68.082031 82.292969 L 70.753906 82.292969 L 70.753906 76.996094 L 73.410156 76.996094 L 73.410156 71.695312 L 76.085938 71.695312 L 76.085938 66.398438 L 78.742188 66.398438 L 78.742188 63.742188 L 81.417969 63.742188 L 81.417969 61.097656 L 78.742188 61.097656 Z M 78.742188 58.441406 " fill-opacity="1" fill-rule="nonzero"/></g></svg>