<svg xmlns="http://www.w3.org/2000/svg" xmlns:xlink="http://www.w3.org/1999/xlink" width="128" zoomAndPan="magnify" viewBox="0 0 96 95.999999" height="128" preserveAspectRatio="xMidYMid meet" version="1.0"><defs><clipPath id="46216947cb"><path d="M 15.351562 15.351562 L 80.601562 15.351562 L 80.601562 80.601562 L 15.351562 80.601562 Z M 15.351562 15.351562 " clip-rule="nonzero"/></clipPath><clipPath id="41aff5ee65"><path d="M 21 15.351562 L 75 15.351562 L 75 75 L 21 75 Z M 21 15.351562 " clip-rule="nonzero"/></clipPath><clipPath id="918689a9f5"><path d="M 15.351562 33 L 22 33 L 22 40 L 15.351562 40 Z M 15.351562 33 " clip-rule="nonzero"/></clipPath><clipPath id="585130d5b2"><path d="M 74 33 L 80.601562 33 L 80.601562 40 L 74 40 Z M 74 33 " clip-rule="nonzero"/></clipPath><clipPath id="2531737ca8"><path d="M 62 74 L 75 74 L 75 80.601562 L 62 80.601562 Z M 62 74 " clip-rule="nonzero"/></clipPath><clipPath id="d80d282de5"><path d="M 21 74 L 34 74 L 34 80.601562 L 21 80.601562 Z M 21 74 " clip-rule="nonzero"/></clipPath></defs><g clip-path="url(#46216947cb)"><path fill="#2e1b5b" d="M 74.671875 33.148438 L 56.875 33.148438 L 56.875 27.214844 L 50.945312 27.214844 L 50.945312 15.351562 L 45.011719 15.351562 L 45.011719 27.214844 L 39.082031 27.214844 L 39.082031 33.148438 L 15.351562 33.148438 L 15.351562 39.082031 L 21.285156 39.082031 L 21.285156 45.011719 L 27.214844 45.011719 L 27.214844 50.945312 L 33.148438 50.945312 L 33.148438 56.875 L 27.214844 56.875 L 27.214844 68.738281 L 21.285156 68.738281 L 21.285156 80.601562 L 33.148438 80.601562 L 33.148438 74.671875 L 45.011719 74.671875 L 45.011719 68.738281 L 50.945312 68.738281 L 50.945312 74.671875 L 62.808594 74.671875 L 62.808594 80.601562 L 74.671875 80.601562 L 74.671875 68.738281 L 68.738281 68.738281 L 68.738281 56.875 L 62.808594 56.875 L 62.808594 50.945312 L 68.738281 50.945312 L 68.738281 45.011719 L 74.671875 45.011719 L 74.671875 39.082031 L 80.601562 39.082031 L 80.601562 33.148438 Z M 74.671875 33.148438 " fill-opacity="1" fill-rule="nonzero"/></g><g clip-path="url(#41aff5ee65)"><path fill="#ffc800" d="M 68.738281 50.945312 L 68.738281 39.082031 L 74.671875 39.082031 L 74.671875 33.148438 L 56.875 33.148438 L 56.875 27.214844 L 50.945312 27.214844 L 50.945312 15.351562 L 45.011719 15.351562 L 45.011719 27.214844 L 39.082031 27.214844 L 39.082031 33.148438 L 21.285156 33.148438 L 21.285156 39.082031 L 27.214844 39.082031 L 27.214844 50.945312 L 33.148438 50.945312 L 33.148438 56.875 L 27.214844 56.875 L 27.214844 68.738281 L 21.285156 68.738281 L 21.285156 74.671875 L 33.148438 74.671875 L 33.148438 68.738281 L 45.011719 68.738281 L 45.011719 62.808594 L 50.945312 62.808594 L 50.945312 68.738281 L 62.808594 68.738281 L 62.808594 74.671875 L 74.671875 74.671875 L 74.671875 68.738281 L 68.738281 68.738281 L 68.738281 56.875 L 62.808594 56.875 L 62.808594 50.945312 Z M 68.738281 50.945312 " fill-opacity="1" fill-rule="nonzero"/></g><path fill="#f99500" d="M 21.285156 33.148438 L 27.214844 33.148438 L 27.214844 39.082031 L 21.285156 39.082031 Z M 21.285156 33.148438 " fill-opacity="1" fill-rule="nonzero"/><path fill="#f99500" d="M 27.214844 39.082031 L 33.148438 39.082031 L 33.148438 45.011719 L 27.214844 45.011719 Z M 27.214844 39.082031 " fill-opacity="1" fill-rule="nonzero"/><path fill="#f99500" d="M 33.148438 45.011719 L 39.082031 45.011719 L 39.082031 50.945312 L 33.148438 50.945312 Z M 33.148438 45.011719 " fill-opacity="1" fill-rule="nonzero"/><path fill="#f99500" d="M 56.875 45.011719 L 62.808594 45.011719 L 62.808594 50.945312 L 56.875 50.945312 Z M 56.875 45.011719 " fill-opacity="1" fill-rule="nonzero"/><path fill="#f99500" d="M 62.808594 39.082031 L 68.738281 39.082031 L 68.738281 45.011719 L 62.808594 45.011719 Z M 62.808594 39.082031 " fill-opacity="1" fill-rule="nonzero"/><path fill="#f99500" d="M 68.738281 33.148438 L 74.671875 33.148438 L 74.671875 39.082031 L 68.738281 39.082031 Z M 68.738281 33.148438 " fill-opacity="1" fill-rule="nonzero"/><path fill="#f99500" d="M 39.082031 62.808594 L 45.011719 62.808594 L 45.011719 68.738281 L 39.082031 68.738281 Z M 39.082031 62.808594 " fill-opacity="1" fill-rule="nonzero"/><path fill="#f99500" d="M 45.011719 56.875 L 50.945312 56.875 L 50.945312 62.808594 L 45.011719 62.808594 Z M 45.011719 56.875 " fill-opacity="1" fill-rule="nonzero"/><path fill="#f99500" d="M 50.945312 62.808594 L 56.875 62.808594 L 56.875 68.738281 L 50.945312 68.738281 Z M 50.945312 62.808594 " fill-opacity="1" fill-rule="nonzero"/><path fill="#f99500" d="M 33.148438 62.808594 L 39.082031 62.808594 L 39.082031 68.738281 L 33.148438 68.738281 Z M 33.148438 62.808594 " fill-opacity="1" fill-rule="nonzero"/><path fill="#f99500" d="M 27.214844 68.738281 L 33.148438 68.738281 L 33.148438 74.671875 L 27.214844 74.671875 Z M 27.214844 68.738281 " fill-opacity="1" fill-rule="nonzero"/><path fill="#f99500" d="M 56.875 62.808594 L 62.808594 62.808594 L 62.808594 68.738281 L 56.875 68.738281 Z M 56.875 62.808594 " fill-opacity="1" fill-rule="nonzero"/><path fill="#f99500" d="M 62.808594 68.738281 L 68.738281 68.738281 L 68.738281 74.671875 L 62.808594 74.671875 Z M 62.808594 68.738281 " fill-opacity="1" fill-rule="nonzero"/><path fill="#fde292" d="M 39.082031 56.875 L 45.011719 56.875 L 45.011719 62.808594 L 39.082031 62.808594 Z M 39.082031 56.875 " fill-opacity="1" fill-rule="nonzero"/><path fill="#fde292" d="M 45.011719 50.945312 L 50.945312 50.945312 L 50.945312 56.875 L 45.011719 56.875 Z M 45.011719 50.945312 " fill-opacity="1" fill-rule="nonzero"/><path fill="#fde292" d="M 50.945312 56.875 L 56.875 56.875 L 56.875 62.808594 L 50.945312 62.808594 Z M 50.945312 56.875 " fill-opacity="1" fill-rule="nonzero"/><path fill="#fde292" d="M 33.148438 39.082031 L 39.082031 39.082031 L 39.082031 45.011719 L 33.148438 45.011719 Z M 33.148438 39.082031 " fill-opacity="1" fill-rule="nonzero"/><path fill="#fde292" d="M 56.875 39.082031 L 62.808594 39.082031 L 62.808594 45.011719 L 56.875 45.011719 Z M 56.875 39.082031 " fill-opacity="1" fill-rule="nonzero"/><path fill="#fde292" d="M 27.214844 33.148438 L 33.148438 33.148438 L 33.148438 39.082031 L 27.214844 39.082031 Z M 27.214844 33.148438 " fill-opacity="1" fill-rule="nonzero"/><path fill="#fde292" d="M 62.808594 33.148438 L 68.738281 33.148438 L 68.738281 39.082031 L 62.808594 39.082031 Z M 62.808594 33.148438 " fill-opacity="1" fill-rule="nonzero"/><path fill="#fde292" d="M 45.011719 21.285156 L 50.945312 21.285156 L 50.945312 33.148438 L 45.011719 33.148438 Z M 45.011719 21.285156 " fill-opacity="1" fill-rule="nonzero"/><path fill="#fffcd2" d="M 56.875 39.082031 L 50.945312 39.082031 L 50.945312 33.148438 L 45.011719 33.148438 L 45.011719 39.082031 L 39.082031 39.082031 L 39.082031 45.011719 L 45.011719 45.011719 L 45.011719 50.945312 L 50.945312 50.945312 L 50.945312 45.011719 L 56.875 45.011719 Z M 56.875 39.082031 " fill-opacity="1" fill-rule="nonzero"/><path fill="#2e1b5b" d="M 45.011719 62.808594 L 50.945312 62.808594 L 50.945312 68.738281 L 45.011719 68.738281 Z M 45.011719 62.808594 " fill-opacity="1" fill-rule="nonzero"/><path fill="#2e1b5b" d="M 27.214844 45.011719 L 33.148438 45.011719 L 33.148438 50.945312 L 27.214844 50.945312 Z M 27.214844 45.011719 " fill-opacity="1" fill-rule="nonzero"/><path fill="#2e1b5b" d="M 21.285156 39.082031 L 27.214844 39.082031 L 27.214844 45.011719 L 21.285156 45.011719 Z M 21.285156 39.082031 " fill-opacity="1" fill-rule="nonzero"/><g clip-path="url(#918689a9f5)"><path fill="#2e1b5b" d="M 15.351562 33.148438 L 21.285156 33.148438 L 21.285156 39.082031 L 15.351562 39.082031 Z M 15.351562 33.148438 " fill-opacity="1" fill-rule="nonzero"/></g><path fill="#2e1b5b" d="M 33.148438 68.738281 L 45.011719 68.738281 L 45.011719 74.671875 L 33.148438 74.671875 Z M 33.148438 68.738281 " fill-opacity="1" fill-rule="nonzero"/><path fill="#2e1b5b" d="M 50.945312 68.738281 L 62.808594 68.738281 L 62.808594 74.671875 L 50.945312 74.671875 Z M 50.945312 68.738281 " fill-opacity="1" fill-rule="nonzero"/><path fill="#2e1b5b" d="M 62.808594 45.011719 L 68.738281 45.011719 L 68.738281 50.945312 L 62.808594 50.945312 Z M 62.808594 45.011719 " fill-opacity="1" fill-rule="nonzero"/><path fill="#2e1b5b" d="M 68.738281 39.082031 L 74.671875 39.082031 L 74.671875 45.011719 L 68.738281 45.011719 Z M 68.738281 39.082031 " fill-opacity="1" fill-rule="nonzero"/><g clip-path="url(#585130d5b2)"><path fill="#2e1b5b" d="M 74.671875 33.148438 L 80.601562 33.148438 L 80.601562 39.082031 L 74.671875 39.082031 Z M 74.671875 33.148438 " fill-opacity="1" fill-rule="nonzero"/></g><g clip-path="url(#2531737ca8)"><path fill="#2e1b5b" d="M 62.808594 74.671875 L 74.671875 74.671875 L 74.671875 80.601562 L 62.808594 80.601562 Z M 62.808594 74.671875 " fill-opacity="1" fill-rule="nonzero"/></g><g clip-path="url(#d80d282de5)"><path fill="#2e1b5b" d="M 21.285156 74.671875 L 33.148438 74.671875 L 33.148438 80.601562 L 21.285156 80.601562 Z M 21.285156 74.671875 " fill-opacity="1" fill-rule="nonzero"/></g></svg>