<svg xmlns="http://www.w3.org/2000/svg" xmlns:xlink="http://www.w3.org/1999/xlink" width="128" zoomAndPan="magnify" viewBox="0 0 96 95.999999" height="128" preserveAspectRatio="xMidYMid meet" version="1.0"><defs><clipPath id="3db1f38324"><path d="M 12 12 L 83.96875 12 L 83.96875 83.96875 L 12 83.96875 Z M 12 12 " clip-rule="nonzero"/></clipPath><clipPath id="58da9d9862"><path d="M 11.96875 11.96875 L 83.96875 11.96875 L 83.96875 83.96875 L 11.96875 83.96875 Z M 11.96875 11.96875 " clip-rule="nonzero"/></clipPath></defs><g clip-path="url(#3db1f38324)"><path fill="#f9be62" d="M 80.949219 12.050781 L 72.320312 12.050781 L 72.320312 14.921875 L 69.445312 14.921875 L 69.445312 17.792969 L 66.570312 17.792969 L 66.570312 20.664062 L 63.703125 20.664062 L 63.703125 23.535156 L 60.832031 23.535156 L 60.832031 26.40625 L 57.960938 26.40625 L 57.960938 29.277344 L 55.085938 29.277344 L 55.085938 32.152344 L 52.21875 32.152344 L 52.21875 35.019531 L 49.34375 35.019531 L 49.34375 37.894531 L 46.472656 37.894531 L 46.472656 40.765625 L 43.605469 40.765625 L 43.605469 43.640625 L 40.730469 43.640625 L 40.730469 46.511719 L 37.859375 46.511719 L 37.859375 49.382812 L 34.984375 49.382812 L 34.984375 52.257812 L 29.277344 52.257812 L 29.277344 49.378906 L 26.40625 49.378906 L 26.40625 46.507812 L 20.628906 46.507812 L 20.628906 49.378906 L 17.757812 49.378906 L 17.757812 52.28125 L 20.628906 52.28125 L 20.628906 55.15625 L 23.503906 55.15625 L 23.503906 58.027344 L 26.371094 58.027344 L 26.371094 63.738281 L 23.503906 63.738281 L 23.503906 66.609375 L 20.628906 66.609375 L 20.628906 69.480469 L 17.757812 69.480469 L 17.757812 72.351562 L 12.015625 72.351562 L 12.015625 83.871094 L 23.535156 83.871094 L 23.535156 78.128906 L 26.40625 78.128906 L 26.40625 75.257812 L 29.277344 75.257812 L 29.277344 72.386719 L 32.148438 72.386719 L 32.148438 69.515625 L 37.859375 69.515625 L 37.859375 72.386719 L 40.730469 72.386719 L 40.730469 75.261719 L 43.605469 75.261719 L 43.605469 78.132812 L 46.507812 78.132812 L 46.507812 75.257812 L 49.378906 75.257812 L 49.378906 69.480469 L 46.507812 69.480469 L 46.507812 66.609375 L 43.640625 66.609375 L 43.640625 60.898438 L 46.511719 60.898438 L 46.511719 58.027344 L 49.382812 58.027344 L 49.382812 55.15625 L 52.253906 55.15625 L 52.253906 52.28125 L 55.125 52.28125 L 55.125 49.414062 L 57.996094 49.414062 L 57.996094 46.542969 L 60.867188 46.542969 L 60.867188 43.667969 L 63.738281 43.667969 L 63.738281 40.796875 L 66.609375 40.796875 L 66.609375 37.925781 L 69.480469 37.925781 L 69.480469 35.054688 L 72.351562 35.054688 L 72.351562 32.183594 L 75.222656 32.183594 L 75.222656 29.3125 L 78.09375 29.3125 L 78.09375 26.441406 L 80.964844 26.441406 L 80.964844 23.570312 L 83.835938 23.570312 L 83.835938 12.050781 Z M 43.605469 58.011719 Z M 46.472656 55.140625 Z M 46.488281 43.671875 L 46.488281 46.53125 Z M 49.34375 52.273438 Z M 52.21875 49.402344 Z M 55.105469 37.910156 L 55.105469 35.054688 Z M 57.980469 35.039062 L 57.980469 32.183594 Z M 69.464844 20.699219 L 69.464844 23.554688 Z M 72.320312 29.296875 Z M 72.335938 17.828125 L 72.335938 20.679688 Z M 75.191406 26.425781 Z M 78.0625 23.558594 Z M 78.0625 23.558594 " fill-opacity="1" fill-rule="nonzero"/></g><path fill="#fdd182" d="M 75.324219 20.597656 L 75.324219 17.726562 L 72.289062 17.726562 L 72.289062 20.597656 L 69.414062 20.597656 L 69.414062 23.472656 L 66.542969 23.472656 L 66.542969 26.34375 L 63.671875 26.34375 L 63.671875 29.214844 L 60.800781 29.214844 L 60.800781 32.085938 L 57.929688 32.085938 L 57.929688 34.957031 L 55.058594 34.957031 L 55.058594 37.824219 L 52.1875 37.824219 L 52.1875 40.695312 L 49.316406 40.695312 L 49.316406 43.566406 L 46.445312 43.566406 L 46.445312 46.4375 L 43.574219 46.4375 L 43.574219 49.308594 L 40.699219 49.308594 L 40.699219 52.183594 L 37.824219 52.183594 L 37.824219 55.050781 L 34.957031 55.050781 L 34.957031 58.097656 L 37.824219 58.097656 L 37.824219 60.96875 L 40.863281 60.96875 L 40.863281 58.097656 L 43.738281 58.097656 L 43.738281 55.222656 L 46.609375 55.222656 L 46.609375 52.355469 L 49.480469 52.355469 L 49.480469 49.480469 L 52.355469 49.480469 L 52.355469 46.609375 L 55.222656 46.609375 L 55.222656 43.738281 L 58.097656 43.738281 L 58.097656 40.867188 L 60.96875 40.867188 L 60.96875 37.992188 L 63.835938 37.992188 L 63.835938 35.121094 L 66.710938 35.121094 L 66.710938 32.253906 L 69.582031 32.253906 L 69.582031 29.378906 L 72.457031 29.378906 L 72.457031 26.507812 L 75.324219 26.507812 L 75.324219 23.640625 L 78.203125 23.640625 L 78.203125 20.597656 Z M 40.699219 57.929688 L 37.992188 57.929688 L 37.992188 55.222656 L 40.695312 55.222656 Z M 43.574219 55.058594 L 40.867188 55.058594 L 40.867188 52.355469 L 43.574219 52.355469 Z M 46.445312 52.191406 L 43.738281 52.191406 L 43.738281 49.480469 L 46.445312 49.480469 Z M 49.316406 49.316406 L 46.609375 49.316406 L 46.609375 46.609375 L 49.316406 46.609375 Z M 52.1875 46.445312 L 49.480469 46.445312 L 49.480469 43.738281 L 52.1875 43.738281 Z M 55.058594 43.570312 L 52.355469 43.570312 L 52.355469 40.867188 L 55.058594 40.867188 Z M 57.929688 40.699219 L 55.222656 40.699219 L 55.222656 37.992188 L 57.929688 37.992188 Z M 60.800781 37.824219 L 58.097656 37.824219 L 58.097656 35.121094 L 60.800781 35.121094 Z M 63.671875 34.953125 L 60.96875 34.953125 L 60.96875 32.253906 L 63.671875 32.253906 Z M 66.542969 32.082031 L 63.835938 32.082031 L 63.835938 29.378906 L 66.542969 29.378906 Z M 69.414062 29.207031 L 66.710938 29.207031 L 66.710938 26.507812 L 69.414062 26.507812 Z M 72.289062 26.34375 L 69.582031 26.34375 L 69.582031 23.640625 L 72.289062 23.640625 Z M 75.160156 23.472656 L 72.457031 23.472656 L 72.457031 20.765625 L 75.160156 20.765625 Z M 75.160156 23.472656 " fill-opacity="1" fill-rule="nonzero"/><path fill="#ffffff" d="M 80.984375 20.683594 L 80.984375 23.554688 L 78.113281 23.554688 L 78.113281 20.683594 Z M 78.113281 17.8125 L 78.113281 20.683594 L 80.984375 20.683594 L 80.984375 17.8125 Z M 78.113281 14.9375 L 78.113281 17.8125 L 80.984375 17.8125 L 80.984375 14.9375 Z M 75.242188 23.554688 L 75.242188 26.425781 L 78.113281 26.425781 L 78.113281 23.554688 Z M 75.242188 14.9375 L 75.242188 17.8125 L 78.113281 17.8125 L 78.113281 14.9375 Z M 72.371094 26.425781 L 72.371094 29.296875 L 75.242188 29.296875 L 75.242188 26.425781 Z M 72.371094 14.9375 L 72.371094 17.8125 L 75.242188 17.8125 L 75.242188 14.9375 Z M 69.5 29.296875 L 69.5 32.175781 L 72.371094 32.175781 L 72.371094 29.296875 Z M 69.5 17.8125 L 69.5 20.683594 L 72.371094 20.683594 L 72.371094 17.8125 Z M 66.628906 32.175781 L 66.628906 35.042969 L 69.5 35.042969 L 69.5 32.175781 Z M 66.628906 20.6875 L 66.628906 23.554688 L 69.5 23.554688 L 69.5 20.683594 Z M 63.753906 35.042969 L 63.753906 37.917969 L 66.628906 37.917969 L 66.628906 35.039062 Z M 63.753906 23.5625 L 63.753906 26.425781 L 66.628906 26.425781 L 66.628906 23.554688 Z M 60.886719 37.917969 L 60.886719 40.789062 L 63.753906 40.789062 L 63.753906 37.914062 Z M 60.886719 26.429688 L 60.886719 29.300781 L 63.753906 29.300781 L 63.753906 26.425781 Z M 58.011719 40.785156 L 58.011719 43.652344 L 60.886719 43.652344 L 60.886719 40.785156 Z M 58.011719 29.296875 L 58.011719 32.175781 L 60.886719 32.175781 L 60.886719 29.296875 Z M 55.140625 43.652344 L 55.140625 46.527344 L 58.011719 46.527344 L 58.011719 43.652344 Z M 55.140625 32.167969 L 55.140625 35.039062 L 58.011719 35.039062 L 58.011719 32.175781 Z M 52.269531 46.527344 L 52.269531 49.398438 L 55.140625 49.398438 L 55.140625 46.527344 Z M 52.269531 35.039062 L 52.269531 37.914062 L 55.140625 37.914062 L 55.140625 35.039062 Z M 49.398438 49.398438 L 49.398438 52.269531 L 52.269531 52.269531 L 52.269531 49.398438 Z M 49.398438 37.914062 L 49.398438 40.785156 L 52.269531 40.785156 L 52.269531 37.914062 Z M 46.527344 52.269531 L 46.527344 55.140625 L 49.398438 55.140625 L 49.398438 52.269531 Z M 46.527344 40.785156 L 46.527344 43.652344 L 49.398438 43.652344 L 49.398438 40.785156 Z M 43.65625 55.140625 L 43.65625 58.011719 L 46.527344 58.011719 L 46.527344 55.140625 Z M 43.65625 43.652344 L 43.65625 46.527344 L 46.527344 46.527344 L 46.527344 43.652344 Z M 40.785156 58.011719 L 40.785156 60.886719 L 43.65625 60.886719 L 43.65625 58.011719 Z M 40.785156 46.527344 L 40.785156 49.398438 L 43.65625 49.398438 L 43.65625 46.527344 Z M 37.914062 49.398438 L 37.914062 52.269531 L 40.785156 52.269531 L 40.785156 49.398438 Z M 35.039062 52.269531 L 35.039062 55.140625 L 37.914062 55.140625 L 37.914062 52.269531 Z M 35.039062 52.269531 " fill-opacity="1" fill-rule="nonzero"/><path fill="#f04d5e" d="M 32.253906 63.671875 L 32.253906 69.582031 L 29.382812 69.582031 L 29.382812 72.453125 L 26.507812 72.453125 L 26.507812 75.324219 L 20.597656 75.324219 L 20.597656 69.414062 L 23.472656 69.414062 L 23.472656 66.542969 L 26.34375 66.542969 L 26.34375 63.671875 Z M 32.253906 63.671875 " fill-opacity="1" fill-rule="nonzero"/><g clip-path="url(#58da9d9862)"><path fill="#3d3b52" d="M 80.984375 11.960938 L 72.265625 11.960938 L 72.265625 14.832031 L 69.394531 14.832031 L 69.394531 17.703125 L 66.519531 17.703125 L 66.519531 20.574219 L 63.648438 20.574219 L 63.648438 23.449219 L 60.777344 23.449219 L 60.777344 26.316406 L 57.90625 26.316406 L 57.90625 29.183594 L 55.03125 29.183594 L 55.03125 32.058594 L 52.164062 32.058594 L 52.164062 34.925781 L 49.289062 34.925781 L 49.289062 37.800781 L 46.417969 37.800781 L 46.417969 40.671875 L 43.546875 40.671875 L 43.546875 43.539062 L 40.675781 43.539062 L 40.675781 46.414062 L 37.804688 46.414062 L 37.804688 49.289062 L 34.929688 49.289062 L 34.929688 52.164062 L 29.40625 52.164062 L 29.40625 49.289062 L 26.535156 49.289062 L 26.535156 46.417969 L 20.574219 46.417969 L 20.574219 49.289062 L 17.703125 49.289062 L 17.703125 52.378906 L 20.574219 52.378906 L 20.574219 55.25 L 23.449219 55.25 L 23.449219 58.121094 L 26.316406 58.121094 L 26.316406 63.648438 L 23.449219 63.648438 L 23.449219 66.519531 L 20.574219 66.519531 L 20.574219 69.394531 L 17.703125 69.394531 L 17.703125 72.265625 L 11.960938 72.265625 L 11.960938 83.96875 L 23.664062 83.96875 L 23.664062 78.222656 L 26.535156 78.222656 L 26.535156 75.351562 L 29.40625 75.351562 L 29.40625 72.476562 L 32.277344 72.476562 L 32.277344 69.605469 L 37.804688 69.605469 L 37.804688 72.476562 L 40.675781 72.476562 L 40.675781 75.351562 L 43.546875 75.351562 L 43.546875 78.222656 L 46.632812 78.222656 L 46.632812 75.351562 L 49.507812 75.351562 L 49.507812 69.394531 L 46.632812 69.394531 L 46.632812 66.519531 L 43.765625 66.519531 L 43.765625 60.992188 L 46.632812 60.992188 L 46.632812 58.121094 L 49.507812 58.121094 L 49.507812 55.25 L 52.378906 55.25 L 52.378906 52.378906 L 55.25 52.378906 L 55.25 49.507812 L 58.121094 49.507812 L 58.121094 46.632812 L 60.992188 46.632812 L 60.992188 43.761719 L 63.863281 43.761719 L 63.863281 40.890625 L 66.738281 40.890625 L 66.738281 38.019531 L 69.609375 38.019531 L 69.609375 35.148438 L 72.480469 35.148438 L 72.480469 32.277344 L 75.351562 32.277344 L 75.351562 29.40625 L 78.222656 29.40625 L 78.222656 26.535156 L 81.09375 26.535156 L 81.09375 23.664062 L 83.964844 23.664062 L 83.964844 11.960938 Z M 20.574219 80.875 L 15.050781 80.875 L 15.050781 75.351562 L 17.707031 75.351562 L 17.707031 78.222656 L 20.574219 78.222656 Z M 32.0625 66.628906 L 32.0625 69.394531 L 29.183594 69.394531 L 29.183594 72.265625 L 26.316406 72.265625 L 26.316406 75.140625 L 20.789062 75.140625 L 20.789062 69.605469 L 23.664062 69.605469 L 23.664062 66.738281 L 26.535156 66.738281 L 26.535156 63.863281 L 32.0625 63.863281 Z M 46.417969 69.605469 L 46.417969 75.132812 L 43.761719 75.132812 L 43.761719 72.261719 L 40.890625 72.261719 L 40.890625 69.394531 L 38.019531 69.394531 L 38.019531 66.519531 L 35.148438 66.519531 L 35.148438 63.648438 L 32.277344 63.648438 L 32.277344 60.777344 L 29.40625 60.777344 L 29.40625 57.902344 L 26.535156 57.902344 L 26.535156 55.03125 L 23.664062 55.03125 L 23.664062 52.164062 L 20.789062 52.164062 L 20.789062 49.503906 L 26.316406 49.503906 L 26.316406 52.378906 L 29.183594 52.378906 L 29.183594 55.246094 L 32.054688 55.246094 L 32.054688 58.117188 L 34.925781 58.117188 L 34.925781 60.992188 L 37.796875 60.992188 L 37.796875 63.863281 L 40.667969 63.863281 L 40.667969 66.738281 L 43.542969 66.738281 L 43.542969 69.609375 Z M 80.878906 20.683594 L 80.878906 23.449219 L 78.003906 23.449219 L 78.003906 26.316406 L 75.132812 26.316406 L 75.132812 29.183594 L 72.265625 29.183594 L 72.265625 32.058594 L 69.394531 32.058594 L 69.394531 34.925781 L 66.519531 34.925781 L 66.519531 37.800781 L 63.648438 37.800781 L 63.648438 40.671875 L 60.777344 40.671875 L 60.777344 43.539062 L 57.90625 43.539062 L 57.90625 46.414062 L 55.03125 46.414062 L 55.03125 49.289062 L 52.164062 49.289062 L 52.164062 52.164062 L 49.289062 52.164062 L 49.289062 55.03125 L 46.417969 55.03125 L 46.417969 57.902344 L 43.546875 57.902344 L 43.546875 60.777344 L 38.019531 60.777344 L 38.019531 57.902344 L 35.148438 57.902344 L 35.148438 52.378906 L 38.019531 52.378906 L 38.019531 49.507812 L 40.890625 49.507812 L 40.890625 46.632812 L 43.765625 46.632812 L 43.765625 43.761719 L 46.632812 43.761719 L 46.632812 40.890625 L 49.507812 40.890625 L 49.507812 38.019531 L 52.378906 38.019531 L 52.378906 35.148438 L 55.25 35.148438 L 55.25 32.277344 L 58.121094 32.277344 L 58.121094 29.40625 L 60.992188 29.40625 L 60.992188 26.535156 L 63.863281 26.535156 L 63.863281 23.664062 L 66.738281 23.664062 L 66.738281 20.789062 L 69.609375 20.789062 L 69.609375 17.917969 L 72.480469 17.917969 L 72.480469 15.046875 L 80.878906 15.046875 Z M 80.878906 20.683594 " fill-opacity="1" fill-rule="nonzero"/></g></svg>