<svg xmlns="http://www.w3.org/2000/svg" xmlns:xlink="http://www.w3.org/1999/xlink" width="128" zoomAndPan="magnify" viewBox="0 0 96 95.999999" height="128" preserveAspectRatio="xMidYMid meet" version="1.0"><defs><clipPath id="108ec4a373"><path d="M 6.148438 15.5625 L 90.148438 15.5625 L 90.148438 80 L 6.148438 80 Z M 6.148438 15.5625 " clip-rule="nonzero"/></clipPath><clipPath id="e7ce769984"><path d="M 6.148438 15.5625 L 90.148438 15.5625 L 90.148438 80.0625 L 6.148438 80.0625 Z M 6.148438 15.5625 " clip-rule="nonzero"/></clipPath></defs><g clip-path="url(#108ec4a373)"><path fill="#f589b6" d="M 87.394531 34.453125 L 87.394531 31.8125 L 84.6875 31.8125 L 84.6875 29.167969 L 81.976562 29.167969 L 81.976562 26.519531 L 79.273438 26.519531 L 79.273438 23.875 L 76.566406 23.875 L 76.566406 21.234375 L 73.855469 21.234375 L 73.855469 18.585938 L 71.148438 18.585938 L 71.148438 15.941406 L 25.121094 15.941406 L 25.121094 18.585938 L 22.414062 18.585938 L 22.414062 21.234375 L 19.707031 21.234375 L 19.707031 23.875 L 17 23.875 L 17 26.519531 L 14.292969 26.519531 L 14.292969 29.167969 L 11.582031 29.167969 L 11.582031 31.8125 L 8.875 31.8125 L 8.875 34.453125 L 6.167969 34.453125 L 6.167969 39.746094 L 8.875 39.746094 L 8.875 42.390625 L 11.582031 42.390625 L 11.582031 45.035156 L 14.292969 45.035156 L 14.292969 47.679688 L 17 47.679688 L 17 50.324219 L 19.707031 50.324219 L 19.707031 52.96875 L 22.414062 52.96875 L 22.414062 55.617188 L 25.121094 55.617188 L 25.121094 58.257812 L 27.828125 58.257812 L 27.828125 60.902344 L 30.535156 60.902344 L 30.535156 63.550781 L 33.242188 63.550781 L 33.242188 66.195312 L 35.953125 66.195312 L 35.953125 68.839844 L 38.660156 68.839844 L 38.660156 71.484375 L 41.367188 71.484375 L 41.367188 74.128906 L 44.074219 74.128906 L 44.074219 76.773438 L 46.78125 76.773438 L 46.78125 79.417969 L 49.488281 79.417969 L 49.488281 76.773438 L 52.195312 76.773438 L 52.195312 74.128906 L 54.902344 74.128906 L 54.902344 71.484375 L 57.613281 71.484375 L 57.613281 68.839844 L 60.320312 68.839844 L 60.320312 66.195312 L 63.027344 66.195312 L 63.027344 63.550781 L 65.734375 63.550781 L 65.734375 60.902344 L 68.441406 60.902344 L 68.441406 58.257812 L 71.148438 58.257812 L 71.148438 55.617188 L 73.855469 55.617188 L 73.855469 52.96875 L 76.566406 52.96875 L 76.566406 50.324219 L 79.273438 50.324219 L 79.273438 47.679688 L 81.976562 47.679688 L 81.976562 45.035156 L 84.6875 45.035156 L 84.6875 42.390625 L 87.394531 42.390625 L 87.394531 39.746094 L 90.105469 39.746094 L 90.105469 34.453125 Z M 87.394531 34.453125 " fill-opacity="1" fill-rule="nonzero"/></g><path fill="#e26fa3" d="M 84.703125 37.078125 L 65.75 37.078125 L 65.75 42.445312 L 63.042969 42.445312 L 63.042969 47.808594 L 60.332031 47.808594 L 60.332031 53.175781 L 57.628906 53.175781 L 57.628906 58.539062 L 54.917969 58.539062 L 54.917969 63.90625 L 52.210938 63.90625 L 52.210938 69.269531 L 49.503906 69.269531 L 49.503906 74.636719 L 52.210938 74.636719 L 52.210938 71.953125 L 54.917969 71.953125 L 54.917969 69.269531 L 57.628906 69.269531 L 57.628906 66.585938 L 60.332031 66.585938 L 60.332031 63.90625 L 63.042969 63.90625 L 63.042969 61.222656 L 65.75 61.222656 L 65.75 58.539062 L 68.453125 58.539062 L 68.453125 55.859375 L 71.164062 55.859375 L 71.164062 53.175781 L 73.871094 53.175781 L 73.871094 50.492188 L 76.582031 50.492188 L 76.582031 47.808594 L 79.289062 47.808594 L 79.289062 45.128906 L 81.992188 45.128906 L 81.992188 42.445312 L 84.703125 42.445312 L 84.703125 39.761719 L 87.410156 39.761719 L 87.410156 37.078125 Z M 84.703125 37.078125 " fill-opacity="1" fill-rule="nonzero"/><path fill="#ffc5df" d="M 65.75 31.714844 L 65.75 26.347656 L 63.042969 26.347656 L 63.042969 20.984375 L 60.332031 20.984375 L 60.332031 18.300781 L 35.96875 18.300781 L 35.96875 20.984375 L 33.257812 20.984375 L 33.257812 26.347656 L 30.550781 26.347656 L 30.550781 31.714844 L 27.84375 31.714844 L 27.84375 37.078125 L 8.890625 37.078125 L 8.890625 39.761719 L 11.597656 39.761719 L 11.597656 42.445312 L 14.308594 42.445312 L 14.308594 45.128906 L 17.011719 45.128906 L 17.011719 47.808594 L 19.71875 47.808594 L 19.71875 50.492188 L 22.429688 50.492188 L 22.429688 53.175781 L 25.136719 53.175781 L 25.136719 55.859375 L 27.84375 55.859375 L 27.84375 58.539062 L 30.550781 58.539062 L 30.550781 61.222656 L 33.257812 61.222656 L 33.257812 63.90625 L 35.96875 63.90625 L 35.96875 66.585938 L 38.671875 66.585938 L 38.671875 69.269531 L 41.382812 69.269531 L 41.382812 71.953125 L 44.089844 71.953125 L 44.089844 74.636719 L 46.792969 74.636719 L 46.792969 69.269531 L 44.089844 69.269531 L 44.089844 63.90625 L 41.382812 63.90625 L 41.382812 58.539062 L 38.671875 58.539062 L 38.671875 53.175781 L 35.96875 53.175781 L 35.96875 47.808594 L 33.257812 47.808594 L 33.257812 42.445312 L 30.550781 42.445312 L 30.550781 37.078125 L 68.453125 37.078125 L 68.453125 31.714844 Z M 65.75 31.714844 " fill-opacity="1" fill-rule="nonzero"/><path fill="#fefdfe" d="M 33.257812 18.300781 L 25.136719 18.300781 L 25.136719 20.984375 L 22.429688 20.984375 L 22.429688 23.667969 L 19.71875 23.667969 L 19.71875 26.347656 L 17.011719 26.347656 L 17.011719 29.03125 L 14.308594 29.03125 L 14.308594 31.714844 L 11.597656 31.714844 L 11.597656 34.394531 L 8.890625 34.394531 L 8.890625 37.078125 L 27.84375 37.078125 L 27.84375 31.714844 L 30.550781 31.714844 L 30.550781 26.347656 L 33.257812 26.347656 L 33.257812 20.984375 L 35.96875 20.984375 L 35.96875 18.300781 Z M 33.257812 18.300781 " fill-opacity="1" fill-rule="nonzero"/><g clip-path="url(#e7ce769984)"><path fill="#3d3b52" d="M 87.4375 34.371094 L 87.4375 31.679688 L 84.738281 31.679688 L 84.738281 28.996094 L 82.027344 28.996094 L 82.027344 26.3125 L 79.320312 26.3125 L 79.320312 23.632812 L 76.613281 23.632812 L 76.613281 20.953125 L 73.90625 20.953125 L 73.90625 18.265625 L 71.199219 18.265625 L 71.199219 15.585938 L 25.105469 15.585938 L 25.105469 18.265625 L 22.394531 18.265625 L 22.394531 20.953125 L 19.683594 20.953125 L 19.683594 23.632812 L 16.976562 23.632812 L 16.976562 26.3125 L 14.273438 26.3125 L 14.273438 28.996094 L 11.566406 28.996094 L 11.566406 31.679688 L 8.855469 31.679688 L 8.855469 34.371094 L 6.148438 34.371094 L 6.148438 39.804688 L 8.855469 39.804688 L 8.855469 42.488281 L 11.566406 42.488281 L 11.566406 45.171875 L 14.273438 45.171875 L 14.273438 47.851562 L 16.976562 47.851562 L 16.976562 50.535156 L 19.683594 50.535156 L 19.683594 53.21875 L 22.394531 53.21875 L 22.394531 55.902344 L 25.105469 55.902344 L 25.105469 58.574219 L 27.816406 58.574219 L 27.816406 61.257812 L 30.523438 61.257812 L 30.523438 63.941406 L 33.230469 63.941406 L 33.230469 66.621094 L 35.941406 66.621094 L 35.941406 69.304688 L 38.644531 69.304688 L 38.644531 71.988281 L 41.355469 71.988281 L 41.355469 74.667969 L 44.0625 74.667969 L 44.0625 77.351562 L 46.765625 77.351562 L 46.765625 80.035156 L 49.546875 80.035156 L 49.546875 77.351562 L 52.246094 77.351562 L 52.246094 74.667969 L 54.953125 74.667969 L 54.953125 71.988281 L 57.664062 71.988281 L 57.664062 69.304688 L 60.367188 69.304688 L 60.367188 66.621094 L 63.078125 66.621094 L 63.078125 63.941406 L 65.785156 63.941406 L 65.785156 61.257812 L 68.488281 61.257812 L 68.488281 58.574219 L 71.199219 58.574219 L 71.199219 55.894531 L 73.90625 55.894531 L 73.90625 53.210938 L 76.613281 53.210938 L 76.613281 50.527344 L 79.320312 50.527344 L 79.320312 47.84375 L 82.027344 47.84375 L 82.027344 45.160156 L 84.738281 45.160156 L 84.738281 42.480469 L 87.4375 42.480469 L 87.4375 39.796875 L 90.148438 39.796875 L 90.148438 34.371094 Z M 87.371094 37.089844 L 87.371094 39.734375 L 84.660156 39.734375 L 84.660156 42.417969 L 81.957031 42.417969 L 81.957031 45.101562 L 79.253906 45.101562 L 79.253906 47.785156 L 76.546875 47.785156 L 76.546875 50.46875 L 73.835938 50.46875 L 73.835938 53.148438 L 71.128906 53.148438 L 71.128906 55.832031 L 68.421875 55.832031 L 68.421875 58.503906 L 65.714844 58.503906 L 65.714844 61.1875 L 63.007812 61.1875 L 63.007812 63.871094 L 60.296875 63.871094 L 60.296875 66.554688 L 57.59375 66.554688 L 57.59375 69.238281 L 54.882812 69.238281 L 54.882812 71.917969 L 52.175781 71.917969 L 52.175781 74.601562 L 49.46875 74.601562 L 49.46875 77.285156 L 46.828125 77.285156 L 46.828125 74.601562 L 44.125 74.601562 L 44.125 71.917969 L 41.417969 71.917969 L 41.417969 69.238281 L 38.707031 69.238281 L 38.707031 66.554688 L 36 66.554688 L 36 63.871094 L 33.292969 63.871094 L 33.292969 61.1875 L 30.585938 61.1875 L 30.585938 58.503906 L 27.886719 58.503906 L 27.886719 55.824219 L 25.167969 55.824219 L 25.167969 53.140625 L 22.464844 53.140625 L 22.464844 50.457031 L 19.753906 50.457031 L 19.753906 47.773438 L 17.046875 47.773438 L 17.046875 45.09375 L 14.34375 45.09375 L 14.34375 42.410156 L 11.632812 42.410156 L 11.632812 39.726562 L 8.925781 39.726562 L 8.925781 34.429688 L 11.632812 34.429688 L 11.632812 31.75 L 14.34375 31.75 L 14.34375 29.066406 L 17.046875 29.066406 L 17.046875 26.382812 L 19.753906 26.382812 L 19.753906 23.703125 L 22.464844 23.703125 L 22.464844 21.019531 L 25.167969 21.019531 L 25.167969 18.335938 L 71.128906 18.335938 L 71.128906 21.019531 L 73.835938 21.019531 L 73.835938 23.703125 L 76.546875 23.703125 L 76.546875 26.382812 L 79.253906 26.382812 L 79.253906 29.066406 L 81.957031 29.066406 L 81.957031 31.75 L 84.660156 31.75 L 84.660156 34.429688 L 87.367188 34.429688 Z M 87.371094 37.089844 " fill-opacity="1" fill-rule="nonzero"/></g></svg>