<svg xmlns="http://www.w3.org/2000/svg" xmlns:xlink="http://www.w3.org/1999/xlink" width="128" zoomAndPan="magnify" viewBox="0 0 96 95.999999" height="128" preserveAspectRatio="xMidYMid meet" version="1.0"><defs><clipPath id="a3da69234b"><path d="M 10 17.0625 L 87 17.0625 L 87 79.3125 L 10 79.3125 Z M 10 17.0625 " clip-rule="nonzero"/></clipPath><clipPath id="223d5960c8"><path d="M 8.398438 17.0625 L 87.898438 17.0625 L 87.898438 79.3125 L 8.398438 79.3125 Z M 8.398438 17.0625 " clip-rule="nonzero"/></clipPath></defs><g clip-path="url(#a3da69234b)"><path fill="#fcb482" d="M 85.605469 26.164062 L 85.503906 26.164062 L 85.503906 25.644531 C 85.488281 25.503906 85.488281 25.363281 85.503906 25.226562 L 85.503906 24.144531 L 83.484375 24.144531 L 83.484375 21.902344 L 74.507812 21.902344 L 74.507812 17.414062 L 21.761719 17.414062 L 21.761719 21.902344 L 13.007812 21.902344 L 13.007812 24.144531 L 12.070312 24.144531 C 12.292969 24.65625 12.449219 25.1875 12.535156 25.738281 L 11.996094 25.75 C 11.792969 25.738281 11.59375 25.75 11.394531 25.789062 C 11 25.90625 10.972656 26.363281 10.890625 26.703125 L 10.746094 27.320312 C 10.683594 27.523438 10.640625 27.726562 10.609375 27.9375 C 10.578125 28.40625 11.085938 28.421875 11.429688 28.457031 C 11.730469 28.496094 12.03125 28.515625 12.332031 28.515625 C 12.175781 29.117188 12.03125 29.714844 11.910156 30.320312 C 11.898438 30.515625 11.894531 30.710938 11.894531 30.902344 C 12.023438 31.398438 12.1875 31.886719 12.320312 32.386719 C 12.34375 32.464844 12.359375 32.542969 12.378906 32.621094 C 12.035156 32.601562 11.6875 32.5 11.339844 32.511719 C 11.101562 32.511719 10.792969 32.554688 10.644531 32.765625 C 10.5 32.980469 10.5625 33.335938 10.585938 33.574219 C 10.597656 34.039062 10.75 34.453125 11.035156 34.816406 L 10.921875 34.816406 C 10.851562 34.808594 10.785156 34.824219 10.730469 34.867188 C 10.671875 34.914062 10.636719 34.96875 10.628906 35.042969 C 10.617188 35.113281 10.636719 35.179688 10.679688 35.238281 C 10.722656 35.292969 10.78125 35.328125 10.855469 35.335938 C 11.203125 35.417969 11.554688 35.417969 11.90625 35.335938 C 12.03125 35.335938 12.152344 35.335938 12.277344 35.335938 L 12.417969 35.335938 C 12.425781 35.359375 12.433594 35.382812 12.445312 35.402344 C 12.453125 35.453125 12.464844 35.503906 12.480469 35.554688 C 12.46875 35.671875 12.46875 35.785156 12.480469 35.902344 C 12.410156 36.265625 12.378906 36.632812 12.386719 37 C 12.398438 37.234375 12.429688 37.46875 12.480469 37.695312 C 12.425781 37.90625 12.410156 38.121094 12.429688 38.335938 C 12.457031 38.546875 12.535156 38.734375 12.675781 38.894531 C 12.699219 38.972656 12.75 39.019531 12.832031 39.035156 L 12.855469 39.050781 C 12.808594 39.167969 12.804688 39.285156 12.84375 39.40625 C 12.796875 39.679688 12.746094 39.949219 12.679688 40.214844 C 13.742188 41.21875 14.378906 42.445312 14.585938 43.894531 L 15.253906 43.894531 L 15.253906 45.285156 C 15.699219 45.496094 16.109375 45.757812 16.484375 46.074219 C 16.554688 46.09375 16.625 46.109375 16.691406 46.132812 L 17.277344 46.132812 L 17.277344 46.347656 C 18.511719 46.894531 19.445312 47.765625 20.085938 48.953125 L 20.542969 49.035156 C 20.707031 49.070312 20.867188 49.113281 21.023438 49.164062 C 21.65625 49.339844 22.242188 49.613281 22.78125 49.984375 C 23.035156 49.871094 23.300781 49.8125 23.578125 49.808594 C 24.347656 49.804688 25.113281 49.859375 25.875 49.972656 C 26.394531 50.050781 26.832031 50.492188 27.101562 50.917969 C 27.390625 51.417969 27.457031 51.945312 27.308594 52.5 C 27.210938 52.867188 27.023438 53.179688 26.746094 53.4375 C 26.90625 53.574219 27.042969 53.726562 27.164062 53.894531 L 27.179688 53.90625 C 27.324219 53.984375 27.460938 54.074219 27.59375 54.167969 C 28.132812 54.507812 28.53125 54.972656 28.78125 55.558594 C 28.929688 55.90625 29.003906 56.269531 29.003906 56.648438 C 29.367188 56.765625 29.710938 56.929688 30.035156 57.132812 L 30.519531 57.132812 L 30.519531 57.453125 C 31.039062 57.8125 31.53125 58.214844 32 58.535156 C 32.308594 58.742188 32.613281 58.945312 32.933594 59.132812 L 32.964844 59.152344 L 33.492188 59.152344 C 34.109375 58.851562 34.71875 58.867188 35.320312 59.195312 C 35.625 59.246094 35.898438 59.367188 36.132812 59.566406 C 36.371094 59.765625 36.539062 60.011719 36.640625 60.304688 C 37.359375 60.761719 38.121094 61.121094 38.929688 61.386719 L 39.492188 61.386719 L 39.492188 61.59375 C 40.28125 61.855469 41.046875 62.179688 41.785156 62.558594 C 42.242188 62.789062 42.550781 63.144531 42.714844 63.632812 L 43.757812 63.632812 L 43.757812 70.136719 L 35.003906 70.136719 L 35.003906 72.417969 L 35.003906 72.378906 L 32.757812 72.378906 L 32.757812 74.671875 L 32.757812 74.625 L 30.515625 74.625 L 30.515625 76.867188 L 28.269531 76.867188 L 28.269531 79.117188 L 70.242188 79.117188 L 70.242188 76.871094 L 68.003906 76.871094 L 68.003906 74.628906 L 65.75 74.628906 L 65.75 72.382812 L 63.507812 72.382812 L 63.507812 70.140625 L 54.753906 70.140625 L 54.753906 63.632812 L 55.59375 63.632812 C 55.71875 63.5625 55.851562 63.53125 55.996094 63.539062 C 56.203125 63.558594 56.410156 63.589844 56.613281 63.632812 L 58.734375 63.632812 L 58.746094 63.621094 C 58.988281 63.335938 58.984375 62.683594 59.125 62.328125 C 59.164062 62.242188 59.203125 62.15625 59.246094 62.085938 L 59.246094 61.390625 L 59.476562 61.390625 C 59.625 61.234375 59.808594 61.160156 60.027344 61.167969 L 60.375 61.167969 C 60.4375 61.167969 60.503906 61.175781 60.566406 61.191406 C 61.125 61.246094 61.683594 61.25 62.242188 61.203125 C 62.976562 61.105469 63.089844 60.691406 63.359375 60.085938 C 63.402344 59.988281 63.449219 59.894531 63.503906 59.808594 L 63.503906 59.144531 L 64.082031 59.144531 C 64.261719 59.003906 64.449219 58.878906 64.652344 58.777344 C 65.171875 58.507812 65.328125 58.296875 65.617188 57.769531 C 65.65625 57.691406 65.703125 57.617188 65.75 57.546875 L 65.75 57.125 L 66.128906 57.125 C 66.175781 57.085938 66.226562 57.054688 66.28125 57.023438 C 66.519531 56.890625 66.847656 56.921875 67.039062 56.75 C 67.449219 56.382812 67.367188 55.53125 67.785156 55.078125 C 68.015625 54.835938 68.289062 54.671875 68.609375 54.585938 C 68.921875 54.496094 69.304688 54.542969 69.476562 54.25 C 69.652344 53.957031 69.601562 53.492188 69.660156 53.179688 C 69.722656 52.886719 69.816406 52.609375 69.945312 52.34375 C 69.972656 52.285156 70.003906 52.234375 70.039062 52.183594 C 69.882812 51.589844 69.953125 51.023438 70.246094 50.484375 L 70.246094 50.394531 L 70.300781 50.394531 C 70.480469 50.117188 70.71875 49.902344 71.011719 49.75 C 71.304688 49.597656 71.617188 49.53125 71.949219 49.546875 C 72.546875 49.546875 73.148438 49.570312 73.746094 49.609375 C 73.804688 49.042969 74.058594 48.585938 74.507812 48.238281 L 74.507812 48.148438 L 74.628906 48.148438 C 74.980469 47.898438 75.375 47.75 75.804688 47.699219 C 76.566406 47.609375 77.351562 47.699219 78.105469 47.589844 C 78.234375 47.566406 78.363281 47.535156 78.484375 47.492188 C 78.59375 47.167969 78.761719 46.882812 78.996094 46.640625 L 78.996094 46.132812 L 79.582031 46.132812 C 79.679688 46.0625 79.777344 45.996094 79.878906 45.9375 C 80.203125 45.746094 80.539062 45.582031 80.890625 45.441406 C 80.882812 44.90625 81 44.398438 81.238281 43.921875 L 81.238281 43.886719 L 81.253906 43.886719 C 81.808594 42.773438 82.898438 41.898438 83.871094 41.09375 C 84.199219 40.824219 84.519531 40.546875 84.820312 40.246094 C 84.863281 40.199219 84.90625 40.15625 84.957031 40.121094 C 84.984375 40.082031 85.011719 40.035156 85.054688 39.96875 C 85.214844 39.746094 85.351562 39.507812 85.46875 39.261719 C 85.796875 38.515625 85.878906 37.75 85.910156 36.976562 C 85.996094 34.890625 85.808594 32.835938 86.257812 30.769531 C 86.300781 30.582031 86.371094 30.410156 86.472656 30.246094 C 86.03125 28.933594 85.917969 27.519531 85.605469 26.164062 Z M 11.121094 27.941406 C 11.121094 27.953125 11.121094 27.957031 11.121094 27.941406 Z M 11.382812 27.929688 C 11.304688 27.917969 11.21875 27.910156 11.136719 27.890625 C 11.140625 27.882812 11.144531 27.875 11.148438 27.863281 C 11.160156 27.824219 11.171875 27.78125 11.179688 27.742188 L 11.324219 27.128906 L 11.449219 26.59375 C 11.460938 26.503906 11.480469 26.417969 11.515625 26.332031 C 11.554688 26.269531 11.582031 26.28125 11.660156 26.277344 C 11.972656 26.261719 12.28125 26.261719 12.589844 26.257812 C 12.636719 26.84375 12.59375 27.421875 12.460938 27.996094 C 12.101562 28 11.742188 27.980469 11.382812 27.929688 Z M 11.105469 33.054688 C 11.148438 33.039062 11.191406 33.03125 11.234375 33.03125 C 11.441406 33.015625 11.644531 33.027344 11.84375 33.0625 C 12.0625 33.101562 12.285156 33.125 12.507812 33.132812 C 12.621094 33.65625 12.714844 34.175781 12.792969 34.699219 L 12.78125 34.699219 C 12.601562 34.703125 12.421875 34.726562 12.246094 34.761719 C 11.992188 34.785156 11.757812 34.726562 11.542969 34.585938 C 11.183594 34.324219 11.109375 33.828125 11.089844 33.414062 C 11.078125 33.3125 11.074219 33.207031 11.082031 33.101562 C 11.082031 33.089844 11.082031 33.078125 11.082031 33.0625 C 11.089844 33.066406 11.097656 33.0625 11.105469 33.054688 Z M 22.21875 39.808594 C 22.144531 40.308594 21.984375 40.78125 21.738281 41.226562 L 21.738281 41.445312 L 21.582031 41.445312 C 21.3125 41.808594 20.957031 41.976562 20.507812 41.953125 C 20.371094 41.949219 20.242188 41.914062 20.125 41.84375 C 18.96875 41.820312 18.695312 40.453125 19.292969 39.78125 C 18.726562 39.71875 18.167969 39.601562 17.6875 39.261719 C 17.667969 39.246094 17.648438 39.226562 17.625 39.210938 L 17.25 39.210938 L 17.25 38.875 C 17.105469 38.722656 16.972656 38.558594 16.851562 38.386719 C 16.554688 37.957031 16.445312 37.507812 15.917969 37.3125 C 15.121094 37.015625 14.515625 36.800781 14.226562 35.921875 C 13.992188 35.203125 14.011719 34.394531 14.0625 33.660156 C 14.117188 32.828125 14.242188 32.011719 14.335938 31.191406 C 14.410156 30.496094 14.433594 29.769531 14.757812 29.136719 C 14.875 28.90625 15.03125 28.707031 15.226562 28.535156 L 15.226562 28.21875 L 15.6875 28.21875 C 16.324219 27.90625 17.125 27.886719 17.882812 27.886719 C 18.160156 27.875 18.375 27.984375 18.519531 28.21875 L 19.5 28.21875 L 19.5 28.394531 C 19.589844 28.457031 19.660156 28.535156 19.710938 28.628906 L 19.757812 28.722656 C 19.933594 29.039062 19.910156 29.339844 19.691406 29.625 C 19.671875 29.6875 19.644531 29.746094 19.605469 29.800781 C 20.140625 29.925781 20.632812 30.140625 21.082031 30.453125 L 21.746094 30.453125 L 21.746094 31.027344 C 22.015625 31.367188 22.183594 31.753906 22.242188 32.1875 C 22.4375 33.304688 22.417969 34.527344 22.445312 35.664062 C 22.472656 37.035156 22.464844 38.445312 22.21875 39.808594 Z M 83.484375 28.21875 L 81.238281 28.21875 L 81.238281 28.261719 C 81.417969 28.417969 81.503906 28.617188 81.503906 28.859375 C 81.328125 30.394531 81.839844 31.890625 81.890625 33.417969 C 81.945312 34.359375 81.726562 35.234375 81.238281 36.035156 L 81.238281 36.082031 C 81.328125 36.304688 81.328125 36.523438 81.238281 36.746094 L 81.238281 36.960938 L 81.097656 36.960938 C 81 37.066406 80.882812 37.140625 80.742188 37.179688 C 80.386719 37.285156 80.023438 37.351562 79.65625 37.382812 C 79.566406 37.390625 79.476562 37.382812 79.390625 37.359375 C 79.40625 37.605469 79.378906 37.839844 79.304688 38.074219 C 79.332031 38.207031 79.324219 38.339844 79.28125 38.46875 C 79.222656 38.679688 79.125 38.875 78.992188 39.050781 L 78.992188 39.203125 L 78.863281 39.203125 C 78.644531 39.417969 78.390625 39.578125 78.101562 39.683594 C 77.617188 39.871094 77.40625 39.808594 77.355469 40.34375 C 77.304688 40.785156 77.308594 41.210938 76.953125 41.546875 C 76.480469 41.988281 75.808594 41.878906 75.238281 41.746094 C 75.054688 41.703125 74.910156 41.601562 74.804688 41.441406 L 74.5 41.441406 L 74.5 30.460938 L 76.183594 30.460938 C 76.144531 30.328125 76.140625 30.191406 76.171875 30.050781 C 76.257812 29.644531 76.449219 29.296875 76.746094 29.007812 L 76.746094 28.226562 L 78.246094 28.226562 C 79.128906 28.015625 80.019531 27.972656 80.917969 28.097656 C 81.019531 28.117188 81.109375 28.160156 81.1875 28.226562 L 83.484375 28.226562 Z M 83.484375 28.21875 " fill-opacity="1" fill-rule="nonzero"/></g><path fill="#fdd182" d="M 57.035156 72.351562 L 45.996094 72.351562 L 45.996094 74.636719 L 48.242188 74.636719 L 48.242188 76.886719 L 59.277344 76.886719 L 59.277344 74.601562 L 57.035156 74.601562 Z M 57.035156 72.351562 " fill-opacity="1" fill-rule="nonzero"/><path fill="#fdd182" d="M 13.027344 37.042969 L 13.027344 34.996094 L 10.75 34.996094 L 10.75 39.308594 L 12.992188 39.308594 L 12.992188 41.558594 L 15.273438 41.558594 L 15.273438 39.273438 L 13.027344 39.273438 Z M 13.027344 37.042969 " fill-opacity="1" fill-rule="nonzero"/><path fill="#fdd182" d="M 50.523438 68.09375 L 50.523438 63.574219 L 48.242188 63.574219 L 48.242188 70.136719 L 50.523438 70.136719 Z M 50.523438 68.09375 " fill-opacity="1" fill-rule="nonzero"/><path fill="#fdd182" d="M 13.027344 30.515625 L 13.027344 28.25 L 10.75 28.25 L 10.75 32.78125 L 13.027344 32.78125 Z M 13.027344 30.515625 " fill-opacity="1" fill-rule="nonzero"/><path fill="#fdd182" d="M 61.488281 76.886719 L 63.546875 76.886719 L 63.546875 74.601562 L 61.488281 74.601562 Z M 61.488281 76.886719 " fill-opacity="1" fill-rule="nonzero"/><path fill="#fdd182" d="M 83.492188 28.25 L 83.492188 32.78125 L 85.546875 32.78125 L 85.546875 28.25 Z M 83.492188 28.25 " fill-opacity="1" fill-rule="nonzero"/><path fill="#fdd182" d="M 83.492188 37.042969 L 83.492188 39.273438 L 81.25 39.273438 L 81.25 41.558594 L 83.527344 41.558594 L 83.527344 39.308594 L 85.546875 39.308594 L 85.546875 34.996094 L 83.492188 34.996094 Z M 83.492188 37.042969 " fill-opacity="1" fill-rule="nonzero"/><path fill="#fdd182" d="M 65.773438 21.722656 L 34.996094 21.722656 L 34.996094 46.054688 L 37.25 46.054688 L 37.25 50.332031 L 39.496094 50.332031 L 39.496094 54.835938 L 43.761719 54.835938 L 43.761719 57.085938 L 45.996094 57.085938 L 45.996094 59.109375 L 59.277344 59.109375 L 59.277344 57.085938 L 63.546875 57.085938 L 63.546875 54.835938 L 65.800781 54.835938 L 65.800781 50.335938 L 68.042969 50.335938 L 68.042969 48.082031 L 70.289062 48.082031 L 70.289062 21.722656 Z M 68 41.535156 L 68 43.769531 L 63.546875 43.769531 L 63.546875 39.3125 L 68.003906 39.3125 Z M 68 26.007812 L 68 34.992188 L 63.546875 34.992188 L 63.546875 24.007812 L 68.003906 24.007812 Z M 68 26.007812 " fill-opacity="1" fill-rule="nonzero"/><path fill="#ffe7c0" d="M 13.007812 23.988281 L 15.253906 23.988281 L 15.253906 26.015625 L 13.007812 26.015625 Z M 13.007812 23.988281 " fill-opacity="1" fill-rule="nonzero"/><path fill="#ffe7c0" d="M 59.261719 74.621094 L 61.507812 74.621094 L 61.507812 76.871094 L 59.261719 76.871094 Z M 59.261719 74.621094 " fill-opacity="1" fill-rule="nonzero"/><path fill="#ffe7c0" d="M 50.503906 65.84375 L 50.503906 70.121094 L 52.527344 70.121094 L 52.527344 63.59375 L 50.503906 63.59375 Z M 50.503906 65.84375 " fill-opacity="1" fill-rule="nonzero"/><path fill="#ffe7c0" d="M 10.765625 26.015625 L 13.011719 26.015625 L 13.011719 28.265625 L 10.765625 28.265625 Z M 10.765625 26.015625 " fill-opacity="1" fill-rule="nonzero"/><path fill="#ffe7c0" d="M 10.765625 32.765625 L 13.011719 32.765625 L 13.011719 35.015625 L 10.765625 35.015625 Z M 10.765625 32.765625 " fill-opacity="1" fill-rule="nonzero"/><path fill="#ffe7c0" d="M 63.527344 39.289062 L 63.527344 43.789062 L 68.019531 43.789062 L 68.019531 39.289062 Z M 63.527344 39.289062 " fill-opacity="1" fill-rule="nonzero"/><path fill="#ffe7c0" d="M 83.511719 26.015625 L 85.53125 26.015625 L 85.53125 28.265625 L 83.511719 28.265625 Z M 83.511719 26.015625 " fill-opacity="1" fill-rule="nonzero"/><path fill="#ffe7c0" d="M 81.265625 23.988281 L 83.511719 23.988281 L 83.511719 26.015625 L 81.265625 26.015625 Z M 81.265625 23.988281 " fill-opacity="1" fill-rule="nonzero"/><path fill="#ffe7c0" d="M 83.511719 32.765625 L 85.53125 32.765625 L 85.53125 35.015625 L 83.511719 35.015625 Z M 83.511719 32.765625 " fill-opacity="1" fill-rule="nonzero"/><path fill="#ffe7c0" d="M 63.527344 23.988281 L 63.527344 35.015625 L 68.019531 35.015625 L 68.019531 23.988281 Z M 63.527344 23.988281 " fill-opacity="1" fill-rule="nonzero"/><path fill="#ffe7c0" d="M 57.015625 72.367188 L 59.261719 72.367188 L 59.261719 74.621094 L 57.015625 74.621094 Z M 57.015625 72.367188 " fill-opacity="1" fill-rule="nonzero"/><g clip-path="url(#223d5960c8)"><path fill="#3d3b52" d="M 85.652344 25.894531 L 85.652344 23.867188 L 83.632812 23.867188 L 83.632812 21.617188 L 74.652344 21.617188 L 74.652344 17.117188 L 21.644531 17.117188 L 21.644531 21.617188 L 12.886719 21.617188 L 12.886719 23.875 L 10.644531 23.875 L 10.644531 25.894531 L 8.398438 25.894531 L 8.398438 39.410156 L 10.652344 39.410156 L 10.652344 41.671875 L 12.886719 41.671875 L 12.886719 43.921875 L 15.144531 43.921875 L 15.144531 46.171875 L 17.15625 46.171875 L 17.15625 48.195312 L 19.410156 48.195312 L 19.410156 50.4375 L 26.144531 50.4375 L 26.144531 54.9375 L 28.164062 54.9375 L 28.164062 57.191406 L 30.410156 57.191406 L 30.410156 59.214844 L 34.898438 59.214844 L 34.898438 61.464844 L 39.390625 61.464844 L 39.390625 63.714844 L 43.65625 63.714844 L 43.65625 69.996094 L 34.890625 69.996094 L 34.890625 72.253906 L 32.648438 72.253906 L 32.648438 74.507812 L 30.390625 74.507812 L 30.390625 76.753906 L 28.15625 76.753906 L 28.15625 79.25 L 70.386719 79.25 L 70.386719 76.746094 L 68.128906 76.746094 L 68.128906 74.496094 L 65.894531 74.496094 L 65.894531 72.246094 L 63.648438 72.246094 L 63.648438 69.988281 L 54.894531 69.988281 L 54.894531 63.714844 L 59.382812 63.714844 L 59.382812 61.464844 L 63.648438 61.464844 L 63.648438 59.214844 L 65.894531 59.214844 L 65.894531 57.191406 L 68.140625 57.191406 L 68.140625 54.9375 L 70.394531 54.9375 L 70.394531 50.4375 L 74.660156 50.4375 L 74.660156 48.1875 L 79.148438 48.1875 L 79.148438 46.164062 L 81.40625 46.164062 L 81.40625 43.910156 L 83.632812 43.910156 L 83.632812 41.664062 L 85.652344 41.664062 L 85.652344 39.402344 L 87.898438 39.402344 L 87.898438 25.894531 Z M 21.644531 32.765625 L 21.644531 41.417969 L 19.644531 41.417969 L 19.644531 39.160156 L 17.390625 39.160156 L 17.390625 36.917969 L 15.375 36.917969 L 15.375 28.386719 L 19.402344 28.386719 L 19.402344 30.636719 L 21.644531 30.636719 Z M 21.644531 26.015625 L 21.644531 28.144531 L 19.644531 28.144531 L 19.644531 25.882812 L 15.132812 25.882812 L 15.132812 28.144531 L 12.886719 28.144531 L 12.886719 37.164062 L 15.144531 37.164062 L 15.144531 39.410156 L 17.15625 39.410156 L 17.15625 41.671875 L 19.410156 41.671875 L 19.410156 43.921875 L 21.644531 43.921875 L 21.644531 47.953125 L 19.644531 47.953125 L 19.644531 45.917969 L 17.390625 45.917969 L 17.390625 43.667969 L 15.375 43.667969 L 15.375 41.417969 L 13.132812 41.417969 L 13.132812 39.160156 L 10.886719 39.160156 L 10.886719 26.125 L 13.132812 26.125 L 13.132812 24.113281 L 21.644531 24.113281 Z M 57.023438 72.488281 L 63.414062 72.488281 L 63.414062 74.742188 L 65.660156 74.742188 L 65.660156 76.746094 L 32.890625 76.746094 L 32.890625 74.742188 L 35.136719 74.742188 L 35.136719 72.488281 Z M 46.136719 69.996094 L 46.136719 63.714844 L 52.398438 63.714844 L 52.398438 69.996094 Z M 72.386719 21.738281 L 72.386719 47.945312 L 70.140625 47.945312 L 70.140625 50.203125 L 67.898438 50.203125 L 67.898438 54.695312 L 65.652344 54.695312 L 65.652344 56.945312 L 63.40625 56.945312 L 63.40625 58.972656 L 59.140625 58.972656 L 59.140625 61.214844 L 39.625 61.214844 L 39.625 58.972656 L 35.136719 58.972656 L 35.136719 56.945312 L 30.644531 56.945312 L 30.644531 54.695312 L 28.398438 54.695312 L 28.398438 50.195312 L 26.382812 50.195312 L 26.382812 47.9375 L 24.128906 47.9375 L 24.128906 19.605469 L 72.386719 19.605469 Z M 74.652344 41.417969 L 74.652344 30.644531 L 76.894531 30.644531 L 76.894531 28.386719 L 81.144531 28.386719 L 81.144531 36.917969 L 78.898438 36.917969 L 78.898438 39.167969 L 76.652344 39.167969 L 76.652344 41.429688 Z M 85.402344 28.265625 L 85.402344 39.167969 L 83.390625 39.167969 L 83.390625 41.429688 L 81.144531 41.429688 L 81.144531 43.675781 L 78.898438 43.675781 L 78.898438 45.917969 L 74.652344 45.917969 L 74.652344 43.910156 L 76.894531 43.910156 L 76.894531 41.664062 L 79.140625 41.664062 L 79.140625 39.402344 L 81.394531 39.402344 L 81.394531 37.164062 L 83.632812 37.164062 L 83.632812 28.144531 L 81.386719 28.144531 L 81.386719 25.882812 L 76.652344 25.882812 L 76.652344 28.144531 L 74.652344 28.144531 L 74.652344 24.113281 L 83.390625 24.113281 L 83.390625 26.136719 L 85.410156 26.136719 Z M 85.402344 28.265625 " fill-opacity="1" fill-rule="nonzero"/></g></svg>