<svg xmlns="http://www.w3.org/2000/svg" xmlns:xlink="http://www.w3.org/1999/xlink" width="128" zoomAndPan="magnify" viewBox="0 0 96 95.999999" height="128" preserveAspectRatio="xMidYMid meet" version="1.0"><defs><clipPath id="b4b050e205"><path d="M 71 32 L 83.128906 32 L 83.128906 55 L 71 55 Z M 71 32 " clip-rule="nonzero"/></clipPath><clipPath id="8c8e216159"><path d="M 40 80 L 55 80 L 55 83.128906 L 40 83.128906 Z M 40 80 " clip-rule="nonzero"/></clipPath><clipPath id="11e6781a32"><path d="M 40 12.628906 L 55 12.628906 L 55 16 L 40 16 Z M 40 12.628906 " clip-rule="nonzero"/></clipPath><clipPath id="de81c32792"><path d="M 12.628906 40 L 16 40 L 16 55 L 12.628906 55 Z M 12.628906 40 " clip-rule="nonzero"/></clipPath><clipPath id="524a081eb3"><path d="M 71 32 L 83.128906 32 L 83.128906 55 L 71 55 Z M 71 32 " clip-rule="nonzero"/></clipPath><clipPath id="be3b693104"><path d="M 40 80 L 55 80 L 55 83.128906 L 40 83.128906 Z M 40 80 " clip-rule="nonzero"/></clipPath><clipPath id="bcb3623027"><path d="M 40 12.628906 L 55 12.628906 L 55 16 L 40 16 Z M 40 12.628906 " clip-rule="nonzero"/></clipPath><clipPath id="66e7df0ef0"><path d="M 12.628906 40 L 16 40 L 16 55 L 12.628906 55 Z M 12.628906 40 " clip-rule="nonzero"/></clipPath></defs><path fill="#ff7007" d="M 77.488281 43.648438 L 71.847656 43.648438 L 71.847656 40.828125 L 63.386719 40.828125 L 63.386719 38.007812 L 57.746094 38.007812 L 57.746094 35.1875 L 52.109375 35.1875 L 52.109375 32.367188 L 49.289062 32.367188 L 49.289062 29.546875 L 46.46875 29.546875 L 46.46875 32.367188 L 43.648438 32.367188 L 43.648438 35.1875 L 46.46875 35.1875 L 46.46875 38.007812 L 49.289062 38.007812 L 49.289062 40.828125 L 52.109375 40.828125 L 52.109375 43.648438 L 54.929688 43.648438 L 54.929688 46.46875 L 57.746094 46.46875 L 57.746094 49.289062 L 60.566406 49.289062 L 60.566406 52.109375 L 63.386719 52.109375 L 63.386719 54.929688 L 66.207031 54.929688 L 66.207031 57.746094 L 69.027344 57.746094 L 69.027344 60.566406 L 71.847656 60.566406 L 71.847656 63.386719 L 77.488281 63.386719 L 77.488281 54.929688 L 80.308594 54.929688 L 80.308594 43.648438 L 77.488281 43.648438 " fill-opacity="1" fill-rule="nonzero"/><path fill="#ff7007" d="M 69.027344 60.566406 L 66.207031 60.566406 L 66.207031 57.746094 L 63.386719 57.746094 L 63.386719 54.929688 L 60.566406 54.929688 L 60.566406 52.109375 L 57.746094 52.109375 L 57.746094 49.289062 L 54.929688 49.289062 L 54.929688 46.46875 L 52.109375 46.46875 L 52.109375 43.648438 L 49.289062 43.648438 L 49.289062 40.828125 L 46.46875 40.828125 L 46.46875 38.007812 L 43.648438 38.007812 L 43.648438 35.1875 L 40.828125 35.1875 L 40.828125 38.007812 L 38.007812 38.007812 L 38.007812 40.828125 L 35.1875 40.828125 L 35.1875 43.648438 L 38.007812 43.648438 L 38.007812 46.46875 L 40.828125 46.46875 L 40.828125 54.929688 L 43.648438 54.929688 L 43.648438 63.386719 L 46.46875 63.386719 L 46.46875 74.667969 L 43.648438 74.667969 L 43.648438 77.488281 L 40.828125 77.488281 L 40.828125 80.308594 L 54.929688 80.308594 L 54.929688 77.488281 L 63.386719 77.488281 L 63.386719 74.667969 L 69.027344 74.667969 L 69.027344 71.847656 L 71.847656 71.847656 L 71.847656 69.027344 L 74.667969 69.027344 L 74.667969 66.207031 L 71.847656 66.207031 L 71.847656 63.386719 L 69.027344 63.386719 L 69.027344 60.566406 " fill-opacity="1" fill-rule="nonzero"/><path fill="#ff7007" d="M 60.566406 23.90625 L 54.929688 23.90625 L 54.929688 26.726562 L 49.289062 26.726562 L 49.289062 29.546875 L 52.109375 29.546875 L 52.109375 32.367188 L 57.746094 32.367188 L 57.746094 35.1875 L 63.386719 35.1875 L 63.386719 38.007812 L 71.847656 38.007812 L 71.847656 40.828125 L 77.488281 40.828125 L 77.488281 32.367188 L 74.667969 32.367188 L 74.667969 26.726562 L 71.847656 26.726562 L 71.847656 23.90625 L 69.027344 23.90625 L 69.027344 21.085938 L 63.386719 21.085938 L 63.386719 23.90625 L 60.566406 23.90625 " fill-opacity="1" fill-rule="nonzero"/><path fill="#ff7007" d="M 43.648438 23.90625 L 46.46875 23.90625 L 46.46875 26.726562 L 49.289062 26.726562 L 49.289062 23.90625 L 54.929688 23.90625 L 54.929688 21.085938 L 63.386719 21.085938 L 63.386719 18.269531 L 54.929688 18.269531 L 54.929688 15.449219 L 40.828125 15.449219 L 40.828125 21.085938 L 43.648438 21.085938 L 43.648438 23.90625 " fill-opacity="1" fill-rule="nonzero"/><path fill="#ff7007" d="M 43.648438 74.667969 L 43.648438 63.386719 L 40.828125 63.386719 L 40.828125 54.929688 L 38.007812 54.929688 L 38.007812 46.46875 L 35.1875 46.46875 L 35.1875 43.648438 L 32.367188 43.648438 L 32.367188 46.46875 L 29.546875 46.46875 L 29.546875 49.289062 L 26.726562 49.289062 L 26.726562 54.929688 L 23.90625 54.929688 L 23.90625 63.386719 L 21.085938 63.386719 L 21.085938 69.027344 L 23.90625 69.027344 L 23.90625 71.847656 L 26.726562 71.847656 L 26.726562 74.667969 L 32.367188 74.667969 L 32.367188 77.488281 L 40.828125 77.488281 L 40.828125 74.667969 L 43.648438 74.667969 " fill-opacity="1" fill-rule="nonzero"/><path fill="#ff7007" d="M 35.1875 26.726562 L 38.007812 26.726562 L 38.007812 29.546875 L 40.828125 29.546875 L 40.828125 32.367188 L 43.648438 32.367188 L 43.648438 29.546875 L 46.46875 29.546875 L 46.46875 26.726562 L 43.648438 26.726562 L 43.648438 23.90625 L 40.828125 23.90625 L 40.828125 21.085938 L 38.007812 21.085938 L 38.007812 18.269531 L 32.367188 18.269531 L 32.367188 23.90625 L 35.1875 23.90625 L 35.1875 26.726562 " fill-opacity="1" fill-rule="nonzero"/><path fill="#ff7007" d="M 26.726562 35.1875 L 29.546875 35.1875 L 29.546875 38.007812 L 32.367188 38.007812 L 32.367188 40.828125 L 35.1875 40.828125 L 35.1875 38.007812 L 38.007812 38.007812 L 38.007812 35.1875 L 40.828125 35.1875 L 40.828125 32.367188 L 38.007812 32.367188 L 38.007812 29.546875 L 35.1875 29.546875 L 35.1875 26.726562 L 32.367188 26.726562 L 32.367188 23.90625 L 29.546875 23.90625 L 29.546875 21.085938 L 26.726562 21.085938 L 26.726562 23.90625 L 23.90625 23.90625 L 23.90625 26.726562 L 21.085938 26.726562 L 21.085938 32.367188 L 18.269531 32.367188 L 18.269531 38.007812 L 21.085938 38.007812 L 21.085938 35.1875 L 26.726562 35.1875 " fill-opacity="1" fill-rule="nonzero"/><path fill="#ff7007" d="M 21.085938 54.929688 L 23.90625 54.929688 L 23.90625 49.289062 L 26.726562 49.289062 L 26.726562 46.46875 L 29.546875 46.46875 L 29.546875 43.648438 L 32.367188 43.648438 L 32.367188 40.828125 L 29.546875 40.828125 L 29.546875 38.007812 L 21.085938 38.007812 L 21.085938 40.828125 L 15.449219 40.828125 L 15.449219 54.929688 L 18.269531 54.929688 L 18.269531 63.386719 L 21.085938 63.386719 L 21.085938 54.929688 " fill-opacity="1" fill-rule="nonzero"/><path fill="#000000" d="M 77.488281 57.746094 L 77.488281 63.386719 L 80.308594 63.386719 L 80.308594 54.929688 L 77.488281 54.929688 L 77.488281 57.746094 " fill-opacity="1" fill-rule="nonzero"/><g clip-path="url(#b4b050e205)"><path fill="#000000" d="M 80.308594 38.007812 L 80.308594 32.367188 L 77.488281 32.367188 L 77.488281 40.828125 L 71.847656 40.828125 L 71.847656 43.648438 L 80.308594 43.648438 L 80.308594 54.929688 L 83.128906 54.929688 L 83.128906 40.828125 L 80.308594 40.828125 L 80.308594 38.007812 " fill-opacity="1" fill-rule="nonzero"/></g><path fill="#000000" d="M 77.488281 32.367188 L 77.488281 26.726562 L 74.667969 26.726562 L 74.667969 32.367188 L 77.488281 32.367188 " fill-opacity="1" fill-rule="nonzero"/><path fill="#000000" d="M 71.847656 71.847656 L 74.667969 71.847656 L 74.667969 69.027344 L 71.847656 69.027344 L 71.847656 71.847656 " fill-opacity="1" fill-rule="nonzero"/><path fill="#000000" d="M 71.847656 63.386719 L 71.847656 66.207031 L 74.667969 66.207031 L 74.667969 69.027344 L 77.488281 69.027344 L 77.488281 63.386719 L 71.847656 63.386719 " fill-opacity="1" fill-rule="nonzero"/><path fill="#000000" d="M 74.667969 26.726562 L 74.667969 23.90625 L 71.847656 23.90625 L 71.847656 26.726562 L 74.667969 26.726562 " fill-opacity="1" fill-rule="nonzero"/><path fill="#000000" d="M 69.027344 74.667969 L 71.847656 74.667969 L 71.847656 71.847656 L 69.027344 71.847656 L 69.027344 74.667969 " fill-opacity="1" fill-rule="nonzero"/><path fill="#000000" d="M 71.847656 63.386719 L 71.847656 60.566406 L 69.027344 60.566406 L 69.027344 63.386719 L 71.847656 63.386719 " fill-opacity="1" fill-rule="nonzero"/><path fill="#000000" d="M 69.027344 38.007812 L 63.386719 38.007812 L 63.386719 40.828125 L 71.847656 40.828125 L 71.847656 38.007812 L 69.027344 38.007812 " fill-opacity="1" fill-rule="nonzero"/><path fill="#000000" d="M 71.847656 23.90625 L 71.847656 21.085938 L 69.027344 21.085938 L 69.027344 23.90625 L 71.847656 23.90625 " fill-opacity="1" fill-rule="nonzero"/><path fill="#000000" d="M 69.027344 60.566406 L 69.027344 57.746094 L 66.207031 57.746094 L 66.207031 60.566406 L 69.027344 60.566406 " fill-opacity="1" fill-rule="nonzero"/><path fill="#000000" d="M 63.386719 77.488281 L 69.027344 77.488281 L 69.027344 74.667969 L 63.386719 74.667969 L 63.386719 77.488281 " fill-opacity="1" fill-rule="nonzero"/><path fill="#000000" d="M 66.207031 57.746094 L 66.207031 54.929688 L 63.386719 54.929688 L 63.386719 57.746094 L 66.207031 57.746094 " fill-opacity="1" fill-rule="nonzero"/><path fill="#000000" d="M 66.207031 21.085938 L 69.027344 21.085938 L 69.027344 18.269531 L 63.386719 18.269531 L 63.386719 21.085938 L 66.207031 21.085938 " fill-opacity="1" fill-rule="nonzero"/><path fill="#000000" d="M 63.386719 54.929688 L 63.386719 52.109375 L 60.566406 52.109375 L 60.566406 54.929688 L 63.386719 54.929688 " fill-opacity="1" fill-rule="nonzero"/><path fill="#000000" d="M 60.566406 35.1875 L 57.746094 35.1875 L 57.746094 38.007812 L 63.386719 38.007812 L 63.386719 35.1875 L 60.566406 35.1875 " fill-opacity="1" fill-rule="nonzero"/><path fill="#000000" d="M 54.929688 77.488281 L 54.929688 80.308594 L 63.386719 80.308594 L 63.386719 77.488281 L 54.929688 77.488281 " fill-opacity="1" fill-rule="nonzero"/><path fill="#000000" d="M 60.566406 52.109375 L 60.566406 49.289062 L 57.746094 49.289062 L 57.746094 52.109375 L 60.566406 52.109375 " fill-opacity="1" fill-rule="nonzero"/><path fill="#000000" d="M 57.746094 49.289062 L 57.746094 46.46875 L 54.929688 46.46875 L 54.929688 49.289062 L 57.746094 49.289062 " fill-opacity="1" fill-rule="nonzero"/><path fill="#000000" d="M 54.929688 32.367188 L 52.109375 32.367188 L 52.109375 35.1875 L 57.746094 35.1875 L 57.746094 32.367188 L 54.929688 32.367188 " fill-opacity="1" fill-rule="nonzero"/><path fill="#000000" d="M 60.566406 23.90625 L 63.386719 23.90625 L 63.386719 21.085938 L 54.929688 21.085938 L 54.929688 23.90625 L 60.566406 23.90625 " fill-opacity="1" fill-rule="nonzero"/><path fill="#000000" d="M 57.746094 18.269531 L 63.386719 18.269531 L 63.386719 15.449219 L 54.929688 15.449219 L 54.929688 18.269531 L 57.746094 18.269531 " fill-opacity="1" fill-rule="nonzero"/><path fill="#000000" d="M 54.929688 46.46875 L 54.929688 43.648438 L 52.109375 43.648438 L 52.109375 46.46875 L 54.929688 46.46875 " fill-opacity="1" fill-rule="nonzero"/><path fill="#000000" d="M 54.929688 26.726562 L 54.929688 23.90625 L 49.289062 23.90625 L 49.289062 26.726562 L 54.929688 26.726562 " fill-opacity="1" fill-rule="nonzero"/><g clip-path="url(#8c8e216159)"><path fill="#000000" d="M 40.828125 80.308594 L 40.828125 83.128906 L 54.929688 83.128906 L 54.929688 80.308594 L 40.828125 80.308594 " fill-opacity="1" fill-rule="nonzero"/></g><path fill="#000000" d="M 52.109375 43.648438 L 52.109375 40.828125 L 49.289062 40.828125 L 49.289062 43.648438 L 52.109375 43.648438 " fill-opacity="1" fill-rule="nonzero"/><path fill="#000000" d="M 49.289062 29.546875 L 49.289062 32.367188 L 52.109375 32.367188 L 52.109375 29.546875 L 49.289062 29.546875 " fill-opacity="1" fill-rule="nonzero"/><path fill="#000000" d="M 49.289062 40.828125 L 49.289062 38.007812 L 46.46875 38.007812 L 46.46875 40.828125 L 49.289062 40.828125 " fill-opacity="1" fill-rule="nonzero"/><path fill="#000000" d="M 46.46875 26.726562 L 46.46875 29.546875 L 49.289062 29.546875 L 49.289062 26.726562 L 46.46875 26.726562 " fill-opacity="1" fill-rule="nonzero"/><path fill="#000000" d="M 43.648438 69.027344 L 43.648438 74.667969 L 46.46875 74.667969 L 46.46875 63.386719 L 43.648438 63.386719 L 43.648438 69.027344 " fill-opacity="1" fill-rule="nonzero"/><path fill="#000000" d="M 46.46875 38.007812 L 46.46875 35.1875 L 43.648438 35.1875 L 43.648438 38.007812 L 46.46875 38.007812 " fill-opacity="1" fill-rule="nonzero"/><path fill="#000000" d="M 43.648438 32.367188 L 46.46875 32.367188 L 46.46875 29.546875 L 43.648438 29.546875 L 43.648438 32.367188 " fill-opacity="1" fill-rule="nonzero"/><path fill="#000000" d="M 43.648438 23.90625 L 43.648438 26.726562 L 46.46875 26.726562 L 46.46875 23.90625 L 43.648438 23.90625 " fill-opacity="1" fill-rule="nonzero"/><g clip-path="url(#11e6781a32)"><path fill="#000000" d="M 54.929688 15.449219 L 54.929688 12.628906 L 40.828125 12.628906 L 40.828125 15.449219 L 54.929688 15.449219 " fill-opacity="1" fill-rule="nonzero"/></g><path fill="#000000" d="M 40.828125 77.488281 L 43.648438 77.488281 L 43.648438 74.667969 L 40.828125 74.667969 L 40.828125 77.488281 " fill-opacity="1" fill-rule="nonzero"/><path fill="#000000" d="M 40.828125 63.386719 L 43.648438 63.386719 L 43.648438 54.929688 L 40.828125 54.929688 L 40.828125 63.386719 " fill-opacity="1" fill-rule="nonzero"/><path fill="#000000" d="M 40.828125 35.1875 L 43.648438 35.1875 L 43.648438 32.367188 L 40.828125 32.367188 L 40.828125 35.1875 " fill-opacity="1" fill-rule="nonzero"/><path fill="#000000" d="M 40.828125 21.085938 L 40.828125 23.90625 L 43.648438 23.90625 L 43.648438 21.085938 L 40.828125 21.085938 " fill-opacity="1" fill-rule="nonzero"/><path fill="#000000" d="M 38.007812 77.488281 L 32.367188 77.488281 L 32.367188 80.308594 L 40.828125 80.308594 L 40.828125 77.488281 L 38.007812 77.488281 " fill-opacity="1" fill-rule="nonzero"/><path fill="#000000" d="M 38.007812 54.929688 L 40.828125 54.929688 L 40.828125 46.46875 L 38.007812 46.46875 L 38.007812 54.929688 " fill-opacity="1" fill-rule="nonzero"/><path fill="#000000" d="M 38.007812 38.007812 L 40.828125 38.007812 L 40.828125 35.1875 L 38.007812 35.1875 L 38.007812 38.007812 " fill-opacity="1" fill-rule="nonzero"/><path fill="#000000" d="M 38.007812 29.546875 L 38.007812 32.367188 L 40.828125 32.367188 L 40.828125 29.546875 L 38.007812 29.546875 " fill-opacity="1" fill-rule="nonzero"/><path fill="#000000" d="M 38.007812 46.46875 L 38.007812 43.648438 L 35.1875 43.648438 L 35.1875 46.46875 L 38.007812 46.46875 " fill-opacity="1" fill-rule="nonzero"/><path fill="#000000" d="M 35.1875 40.828125 L 38.007812 40.828125 L 38.007812 38.007812 L 35.1875 38.007812 L 35.1875 40.828125 " fill-opacity="1" fill-rule="nonzero"/><path fill="#000000" d="M 35.1875 26.726562 L 35.1875 29.546875 L 38.007812 29.546875 L 38.007812 26.726562 L 35.1875 26.726562 " fill-opacity="1" fill-rule="nonzero"/><path fill="#000000" d="M 38.007812 21.085938 L 40.828125 21.085938 L 40.828125 15.449219 L 32.367188 15.449219 L 32.367188 18.269531 L 38.007812 18.269531 L 38.007812 21.085938 " fill-opacity="1" fill-rule="nonzero"/><path fill="#000000" d="M 32.367188 43.648438 L 35.1875 43.648438 L 35.1875 40.828125 L 32.367188 40.828125 L 32.367188 43.648438 " fill-opacity="1" fill-rule="nonzero"/><path fill="#000000" d="M 32.367188 23.90625 L 32.367188 26.726562 L 35.1875 26.726562 L 35.1875 23.90625 L 32.367188 23.90625 " fill-opacity="1" fill-rule="nonzero"/><path fill="#000000" d="M 29.546875 74.667969 L 26.726562 74.667969 L 26.726562 77.488281 L 32.367188 77.488281 L 32.367188 74.667969 L 29.546875 74.667969 " fill-opacity="1" fill-rule="nonzero"/><path fill="#000000" d="M 29.546875 46.46875 L 32.367188 46.46875 L 32.367188 43.648438 L 29.546875 43.648438 L 29.546875 46.46875 " fill-opacity="1" fill-rule="nonzero"/><path fill="#000000" d="M 29.546875 38.007812 L 29.546875 40.828125 L 32.367188 40.828125 L 32.367188 38.007812 L 29.546875 38.007812 " fill-opacity="1" fill-rule="nonzero"/><path fill="#000000" d="M 29.546875 23.90625 L 32.367188 23.90625 L 32.367188 18.269531 L 26.726562 18.269531 L 26.726562 21.085938 L 29.546875 21.085938 L 29.546875 23.90625 " fill-opacity="1" fill-rule="nonzero"/><path fill="#000000" d="M 26.726562 49.289062 L 29.546875 49.289062 L 29.546875 46.46875 L 26.726562 46.46875 L 26.726562 49.289062 " fill-opacity="1" fill-rule="nonzero"/><path fill="#000000" d="M 23.90625 71.847656 L 23.90625 74.667969 L 26.726562 74.667969 L 26.726562 71.847656 L 23.90625 71.847656 " fill-opacity="1" fill-rule="nonzero"/><path fill="#000000" d="M 23.90625 52.109375 L 23.90625 54.929688 L 26.726562 54.929688 L 26.726562 49.289062 L 23.90625 49.289062 L 23.90625 52.109375 " fill-opacity="1" fill-rule="nonzero"/><path fill="#000000" d="M 26.726562 35.1875 L 21.085938 35.1875 L 21.085938 38.007812 L 29.546875 38.007812 L 29.546875 35.1875 L 26.726562 35.1875 " fill-opacity="1" fill-rule="nonzero"/><path fill="#000000" d="M 26.726562 21.085938 L 23.90625 21.085938 L 23.90625 23.90625 L 26.726562 23.90625 L 26.726562 21.085938 " fill-opacity="1" fill-rule="nonzero"/><path fill="#000000" d="M 21.085938 69.027344 L 21.085938 71.847656 L 23.90625 71.847656 L 23.90625 69.027344 L 21.085938 69.027344 " fill-opacity="1" fill-rule="nonzero"/><path fill="#000000" d="M 21.085938 60.566406 L 21.085938 63.386719 L 23.90625 63.386719 L 23.90625 54.929688 L 21.085938 54.929688 L 21.085938 60.566406 " fill-opacity="1" fill-rule="nonzero"/><path fill="#000000" d="M 23.90625 23.90625 L 21.085938 23.90625 L 21.085938 26.726562 L 23.90625 26.726562 L 23.90625 23.90625 " fill-opacity="1" fill-rule="nonzero"/><path fill="#000000" d="M 18.269531 63.386719 L 18.269531 69.027344 L 21.085938 69.027344 L 21.085938 63.386719 L 18.269531 63.386719 " fill-opacity="1" fill-rule="nonzero"/><path fill="#000000" d="M 21.085938 38.007812 L 18.269531 38.007812 L 18.269531 32.367188 L 15.449219 32.367188 L 15.449219 40.828125 L 21.085938 40.828125 L 21.085938 38.007812 " fill-opacity="1" fill-rule="nonzero"/><path fill="#000000" d="M 21.085938 29.546875 L 21.085938 26.726562 L 18.269531 26.726562 L 18.269531 32.367188 L 21.085938 32.367188 L 21.085938 29.546875 " fill-opacity="1" fill-rule="nonzero"/><path fill="#000000" d="M 18.269531 54.929688 L 15.449219 54.929688 L 15.449219 63.386719 L 18.269531 63.386719 L 18.269531 54.929688 " fill-opacity="1" fill-rule="nonzero"/><g clip-path="url(#de81c32792)"><path fill="#000000" d="M 15.449219 40.828125 L 12.628906 40.828125 L 12.628906 54.929688 L 15.449219 54.929688 L 15.449219 40.828125 " fill-opacity="1" fill-rule="nonzero"/></g><path fill="#ff7007" d="M 80.308594 46.46875 L 77.488281 46.46875 L 77.488281 49.289062 L 71.847656 49.289062 L 71.847656 52.109375 L 66.207031 52.109375 L 66.207031 54.929688 L 69.027344 54.929688 L 69.027344 57.746094 L 71.847656 57.746094 L 71.847656 54.929688 L 74.667969 54.929688 L 74.667969 57.746094 L 71.847656 57.746094 L 71.847656 60.566406 L 74.667969 60.566406 L 74.667969 63.386719 L 77.488281 63.386719 L 77.488281 54.929688 L 80.308594 54.929688 L 80.308594 46.46875 " fill-opacity="1" fill-rule="nonzero"/><path fill="#ff9107" d="M 80.308594 46.46875 L 80.308594 43.648438 L 77.488281 43.648438 L 77.488281 46.46875 L 80.308594 46.46875 " fill-opacity="1" fill-rule="nonzero"/><path fill="#ffb207" d="M 77.488281 46.46875 L 77.488281 43.648438 L 74.667969 43.648438 L 74.667969 46.46875 L 77.488281 46.46875 " fill-opacity="1" fill-rule="nonzero"/><path fill="#ff7007" d="M 74.667969 35.1875 L 77.488281 35.1875 L 77.488281 32.367188 L 74.667969 32.367188 L 74.667969 35.1875 " fill-opacity="1" fill-rule="nonzero"/><path fill="#ff7007" d="M 71.847656 66.207031 L 71.847656 69.027344 L 74.667969 69.027344 L 74.667969 66.207031 L 71.847656 66.207031 " fill-opacity="1" fill-rule="nonzero"/><path fill="#b74e00" d="M 74.667969 63.386719 L 74.667969 60.566406 L 71.847656 60.566406 L 71.847656 63.386719 L 74.667969 63.386719 " fill-opacity="1" fill-rule="nonzero"/><path fill="#b74e00" d="M 74.667969 54.929688 L 71.847656 54.929688 L 71.847656 57.746094 L 74.667969 57.746094 L 74.667969 54.929688 " fill-opacity="1" fill-rule="nonzero"/><path fill="#ff9107" d="M 71.847656 40.828125 L 77.488281 40.828125 L 77.488281 38.007812 L 71.847656 38.007812 L 71.847656 40.828125 " fill-opacity="1" fill-rule="nonzero"/><path fill="#ffb207" d="M 71.847656 35.1875 L 71.847656 38.007812 L 77.488281 38.007812 L 77.488281 35.1875 L 71.847656 35.1875 " fill-opacity="1" fill-rule="nonzero"/><path fill="#ff9107" d="M 74.667969 35.1875 L 74.667969 32.367188 L 71.847656 32.367188 L 71.847656 35.1875 L 74.667969 35.1875 " fill-opacity="1" fill-rule="nonzero"/><path fill="#ff7007" d="M 71.847656 29.546875 L 71.847656 32.367188 L 74.667969 32.367188 L 74.667969 26.726562 L 71.847656 26.726562 L 71.847656 29.546875 " fill-opacity="1" fill-rule="nonzero"/><path fill="#ff7007" d="M 69.027344 69.027344 L 69.027344 71.847656 L 71.847656 71.847656 L 71.847656 69.027344 L 69.027344 69.027344 " fill-opacity="1" fill-rule="nonzero"/><path fill="#b74e00" d="M 71.847656 60.566406 L 71.847656 57.746094 L 69.027344 57.746094 L 69.027344 60.566406 L 71.847656 60.566406 " fill-opacity="1" fill-rule="nonzero"/><path fill="#ff9107" d="M 69.027344 46.46875 L 69.027344 49.289062 L 66.207031 49.289062 L 66.207031 46.46875 L 63.386719 46.46875 L 63.386719 52.109375 L 71.847656 52.109375 L 71.847656 49.289062 L 77.488281 49.289062 L 77.488281 46.46875 L 74.667969 46.46875 L 74.667969 43.648438 L 71.847656 43.648438 L 71.847656 46.46875 L 69.027344 46.46875 " fill-opacity="1" fill-rule="nonzero"/><path fill="#ffb207" d="M 69.027344 46.46875 L 71.847656 46.46875 L 71.847656 43.648438 L 69.027344 43.648438 L 69.027344 46.46875 " fill-opacity="1" fill-rule="nonzero"/><path fill="#ff9107" d="M 69.027344 43.648438 L 71.847656 43.648438 L 71.847656 40.828125 L 69.027344 40.828125 L 69.027344 43.648438 " fill-opacity="1" fill-rule="nonzero"/><path fill="#ff7007" d="M 66.207031 71.847656 L 63.386719 71.847656 L 63.386719 74.667969 L 69.027344 74.667969 L 69.027344 71.847656 L 66.207031 71.847656 " fill-opacity="1" fill-rule="nonzero"/><path fill="#b74e00" d="M 69.027344 60.566406 L 66.207031 60.566406 L 66.207031 63.386719 L 63.386719 63.386719 L 63.386719 60.566406 L 60.566406 60.566406 L 60.566406 63.386719 L 57.746094 63.386719 L 57.746094 60.566406 L 54.929688 60.566406 L 54.929688 63.386719 L 52.109375 63.386719 L 52.109375 60.566406 L 49.289062 60.566406 L 49.289062 57.746094 L 46.46875 57.746094 L 46.46875 54.929688 L 43.648438 54.929688 L 43.648438 63.386719 L 46.46875 63.386719 L 46.46875 74.667969 L 43.648438 74.667969 L 43.648438 77.488281 L 54.929688 77.488281 L 54.929688 74.667969 L 63.386719 74.667969 L 63.386719 71.847656 L 69.027344 71.847656 L 69.027344 69.027344 L 71.847656 69.027344 L 71.847656 63.386719 L 69.027344 63.386719 L 69.027344 60.566406 " fill-opacity="1" fill-rule="nonzero"/><path fill="#b74e00" d="M 69.027344 57.746094 L 69.027344 54.929688 L 66.207031 54.929688 L 66.207031 57.746094 L 69.027344 57.746094 " fill-opacity="1" fill-rule="nonzero"/><path fill="#ffb207" d="M 66.207031 49.289062 L 69.027344 49.289062 L 69.027344 46.46875 L 66.207031 46.46875 L 66.207031 49.289062 " fill-opacity="1" fill-rule="nonzero"/><path fill="#ff9107" d="M 66.207031 46.46875 L 69.027344 46.46875 L 69.027344 43.648438 L 66.207031 43.648438 L 66.207031 46.46875 " fill-opacity="1" fill-rule="nonzero"/><path fill="#ffb207" d="M 69.027344 43.648438 L 69.027344 40.828125 L 66.207031 40.828125 L 66.207031 43.648438 L 69.027344 43.648438 " fill-opacity="1" fill-rule="nonzero"/><path fill="#ff9107" d="M 69.027344 32.367188 L 66.207031 32.367188 L 66.207031 35.1875 L 63.386719 35.1875 L 63.386719 38.007812 L 71.847656 38.007812 L 71.847656 35.1875 L 69.027344 35.1875 L 69.027344 32.367188 " fill-opacity="1" fill-rule="nonzero"/><path fill="#ffb207" d="M 69.027344 32.367188 L 69.027344 35.1875 L 71.847656 35.1875 L 71.847656 29.546875 L 66.207031 29.546875 L 66.207031 32.367188 L 69.027344 32.367188 " fill-opacity="1" fill-rule="nonzero"/><path fill="#ff9107" d="M 66.207031 23.90625 L 63.386719 23.90625 L 63.386719 26.726562 L 66.207031 26.726562 L 66.207031 29.546875 L 71.847656 29.546875 L 71.847656 23.90625 L 69.027344 23.90625 L 69.027344 21.085938 L 66.207031 21.085938 L 66.207031 23.90625 " fill-opacity="1" fill-rule="nonzero"/><path fill="#ff7007" d="M 63.386719 63.386719 L 66.207031 63.386719 L 66.207031 60.566406 L 63.386719 60.566406 L 63.386719 63.386719 " fill-opacity="1" fill-rule="nonzero"/><path fill="#b74e00" d="M 66.207031 60.566406 L 66.207031 57.746094 L 63.386719 57.746094 L 63.386719 60.566406 L 66.207031 60.566406 " fill-opacity="1" fill-rule="nonzero"/><path fill="#b74e00" d="M 63.386719 54.929688 L 66.207031 54.929688 L 66.207031 52.109375 L 63.386719 52.109375 L 63.386719 54.929688 " fill-opacity="1" fill-rule="nonzero"/><path fill="#ff9107" d="M 66.207031 43.648438 L 66.207031 40.828125 L 63.386719 40.828125 L 63.386719 43.648438 L 66.207031 43.648438 " fill-opacity="1" fill-rule="nonzero"/><path fill="#ffb207" d="M 66.207031 35.1875 L 66.207031 32.367188 L 63.386719 32.367188 L 63.386719 35.1875 L 66.207031 35.1875 " fill-opacity="1" fill-rule="nonzero"/><path fill="#ff9107" d="M 63.386719 32.367188 L 66.207031 32.367188 L 66.207031 29.546875 L 63.386719 29.546875 L 63.386719 32.367188 " fill-opacity="1" fill-rule="nonzero"/><path fill="#ffb207" d="M 66.207031 29.546875 L 66.207031 26.726562 L 63.386719 26.726562 L 63.386719 29.546875 L 66.207031 29.546875 " fill-opacity="1" fill-rule="nonzero"/><path fill="#ffb207" d="M 66.207031 23.90625 L 66.207031 21.085938 L 63.386719 21.085938 L 63.386719 23.90625 L 66.207031 23.90625 " fill-opacity="1" fill-rule="nonzero"/><path fill="#ff7007" d="M 60.566406 74.667969 L 54.929688 74.667969 L 54.929688 77.488281 L 63.386719 77.488281 L 63.386719 74.667969 L 60.566406 74.667969 " fill-opacity="1" fill-rule="nonzero"/><path fill="#ff7007" d="M 60.566406 60.566406 L 63.386719 60.566406 L 63.386719 57.746094 L 60.566406 57.746094 L 60.566406 60.566406 " fill-opacity="1" fill-rule="nonzero"/><path fill="#ff9107" d="M 60.566406 57.746094 L 63.386719 57.746094 L 63.386719 54.929688 L 60.566406 54.929688 L 60.566406 57.746094 " fill-opacity="1" fill-rule="nonzero"/><path fill="#b74e00" d="M 60.566406 52.109375 L 63.386719 52.109375 L 63.386719 49.289062 L 60.566406 49.289062 L 60.566406 52.109375 " fill-opacity="1" fill-rule="nonzero"/><path fill="#ff9107" d="M 60.566406 40.828125 L 63.386719 40.828125 L 63.386719 38.007812 L 60.566406 38.007812 L 60.566406 40.828125 " fill-opacity="1" fill-rule="nonzero"/><path fill="#ff9107" d="M 60.566406 29.546875 L 63.386719 29.546875 L 63.386719 26.726562 L 60.566406 26.726562 L 60.566406 29.546875 " fill-opacity="1" fill-rule="nonzero"/><path fill="#ffb207" d="M 60.566406 26.726562 L 63.386719 26.726562 L 63.386719 23.90625 L 60.566406 23.90625 L 60.566406 26.726562 " fill-opacity="1" fill-rule="nonzero"/><path fill="#ff7007" d="M 57.746094 63.386719 L 60.566406 63.386719 L 60.566406 60.566406 L 57.746094 60.566406 L 57.746094 63.386719 " fill-opacity="1" fill-rule="nonzero"/><path fill="#b74e00" d="M 57.746094 57.746094 L 57.746094 60.566406 L 60.566406 60.566406 L 60.566406 57.746094 L 57.746094 57.746094 " fill-opacity="1" fill-rule="nonzero"/><path fill="#ff7007" d="M 60.566406 57.746094 L 60.566406 54.929688 L 57.746094 54.929688 L 57.746094 52.109375 L 54.929688 52.109375 L 54.929688 54.929688 L 52.109375 54.929688 L 52.109375 57.746094 L 54.929688 57.746094 L 54.929688 60.566406 L 57.746094 60.566406 L 57.746094 57.746094 L 60.566406 57.746094 " fill-opacity="1" fill-rule="nonzero"/><path fill="#ff9107" d="M 57.746094 54.929688 L 60.566406 54.929688 L 60.566406 52.109375 L 57.746094 52.109375 L 57.746094 54.929688 " fill-opacity="1" fill-rule="nonzero"/><path fill="#b74e00" d="M 60.566406 49.289062 L 60.566406 46.46875 L 57.746094 46.46875 L 57.746094 49.289062 L 60.566406 49.289062 " fill-opacity="1" fill-rule="nonzero"/><path fill="#ffb207" d="M 60.566406 38.007812 L 57.746094 38.007812 L 57.746094 35.1875 L 54.929688 35.1875 L 54.929688 38.007812 L 52.109375 38.007812 L 52.109375 40.828125 L 54.929688 40.828125 L 54.929688 43.648438 L 57.746094 43.648438 L 57.746094 46.46875 L 60.566406 46.46875 L 60.566406 49.289062 L 63.386719 49.289062 L 63.386719 46.46875 L 66.207031 46.46875 L 66.207031 43.648438 L 63.386719 43.648438 L 63.386719 40.828125 L 60.566406 40.828125 L 60.566406 38.007812 " fill-opacity="1" fill-rule="nonzero"/><path fill="#ff9107" d="M 57.746094 35.1875 L 63.386719 35.1875 L 63.386719 32.367188 L 57.746094 32.367188 L 57.746094 35.1875 " fill-opacity="1" fill-rule="nonzero"/><path fill="#ffb207" d="M 57.746094 29.546875 L 57.746094 32.367188 L 63.386719 32.367188 L 63.386719 29.546875 L 60.566406 29.546875 L 60.566406 26.726562 L 57.746094 26.726562 L 57.746094 29.546875 " fill-opacity="1" fill-rule="nonzero"/><path fill="#ff9107" d="M 60.566406 26.726562 L 60.566406 23.90625 L 57.746094 23.90625 L 57.746094 26.726562 L 60.566406 26.726562 " fill-opacity="1" fill-rule="nonzero"/><path fill="#ff9107" d="M 57.746094 18.269531 L 54.929688 18.269531 L 54.929688 21.085938 L 63.386719 21.085938 L 63.386719 18.269531 L 57.746094 18.269531 " fill-opacity="1" fill-rule="nonzero"/><path fill="#ff9107" d="M 54.929688 49.289062 L 54.929688 52.109375 L 57.746094 52.109375 L 57.746094 49.289062 L 54.929688 49.289062 " fill-opacity="1" fill-rule="nonzero"/><path fill="#b74e00" d="M 57.746094 46.46875 L 57.746094 43.648438 L 54.929688 43.648438 L 54.929688 46.46875 L 57.746094 46.46875 " fill-opacity="1" fill-rule="nonzero"/><path fill="#ffb207" d="M 57.746094 26.726562 L 57.746094 23.90625 L 54.929688 23.90625 L 54.929688 26.726562 L 57.746094 26.726562 " fill-opacity="1" fill-rule="nonzero"/><path fill="#ff7007" d="M 52.109375 77.488281 L 40.828125 77.488281 L 40.828125 80.308594 L 54.929688 80.308594 L 54.929688 77.488281 L 52.109375 77.488281 " fill-opacity="1" fill-rule="nonzero"/><path fill="#ff7007" d="M 52.109375 63.386719 L 54.929688 63.386719 L 54.929688 60.566406 L 52.109375 60.566406 L 52.109375 63.386719 " fill-opacity="1" fill-rule="nonzero"/><path fill="#b74e00" d="M 52.109375 57.746094 L 52.109375 60.566406 L 54.929688 60.566406 L 54.929688 57.746094 L 52.109375 57.746094 " fill-opacity="1" fill-rule="nonzero"/><path fill="#ff9107" d="M 52.109375 54.929688 L 54.929688 54.929688 L 54.929688 52.109375 L 52.109375 52.109375 L 52.109375 54.929688 " fill-opacity="1" fill-rule="nonzero"/><path fill="#ff7007" d="M 52.109375 49.289062 L 52.109375 52.109375 L 54.929688 52.109375 L 54.929688 49.289062 L 52.109375 49.289062 " fill-opacity="1" fill-rule="nonzero"/><path fill="#ff9107" d="M 54.929688 49.289062 L 54.929688 46.46875 L 52.109375 46.46875 L 52.109375 49.289062 L 54.929688 49.289062 " fill-opacity="1" fill-rule="nonzero"/><path fill="#b74e00" d="M 54.929688 43.648438 L 54.929688 40.828125 L 52.109375 40.828125 L 52.109375 43.648438 L 54.929688 43.648438 " fill-opacity="1" fill-rule="nonzero"/><path fill="#ff9107" d="M 52.109375 38.007812 L 54.929688 38.007812 L 54.929688 35.1875 L 52.109375 35.1875 L 52.109375 38.007812 " fill-opacity="1" fill-rule="nonzero"/><path fill="#ff9107" d="M 54.929688 32.367188 L 57.746094 32.367188 L 57.746094 26.726562 L 54.929688 26.726562 L 54.929688 29.546875 L 52.109375 29.546875 L 52.109375 32.367188 L 54.929688 32.367188 " fill-opacity="1" fill-rule="nonzero"/><path fill="#ffb207" d="M 54.929688 26.726562 L 52.109375 26.726562 L 52.109375 29.546875 L 54.929688 29.546875 L 54.929688 26.726562 " fill-opacity="1" fill-rule="nonzero"/><path fill="#ff7007" d="M 52.109375 23.90625 L 54.929688 23.90625 L 54.929688 21.085938 L 52.109375 21.085938 L 52.109375 23.90625 " fill-opacity="1" fill-rule="nonzero"/><path fill="#b74e00" d="M 54.929688 21.085938 L 54.929688 18.269531 L 52.109375 18.269531 L 52.109375 21.085938 L 54.929688 21.085938 " fill-opacity="1" fill-rule="nonzero"/><path fill="#ff7007" d="M 49.289062 57.746094 L 49.289062 60.566406 L 52.109375 60.566406 L 52.109375 57.746094 L 49.289062 57.746094 " fill-opacity="1" fill-rule="nonzero"/><path fill="#b74e00" d="M 52.109375 54.929688 L 49.289062 54.929688 L 49.289062 57.746094 L 52.109375 57.746094 L 52.109375 54.929688 " fill-opacity="1" fill-rule="nonzero"/><path fill="#ff7007" d="M 49.289062 52.109375 L 49.289062 54.929688 L 52.109375 54.929688 L 52.109375 52.109375 L 49.289062 52.109375 " fill-opacity="1" fill-rule="nonzero"/><path fill="#ff9107" d="M 52.109375 49.289062 L 49.289062 49.289062 L 49.289062 52.109375 L 52.109375 52.109375 L 52.109375 49.289062 " fill-opacity="1" fill-rule="nonzero"/><path fill="#ff7007" d="M 49.289062 49.289062 L 52.109375 49.289062 L 52.109375 46.46875 L 49.289062 46.46875 L 49.289062 49.289062 " fill-opacity="1" fill-rule="nonzero"/><path fill="#ff9107" d="M 52.109375 46.46875 L 52.109375 43.648438 L 49.289062 43.648438 L 49.289062 46.46875 L 52.109375 46.46875 " fill-opacity="1" fill-rule="nonzero"/><path fill="#b74e00" d="M 49.289062 40.828125 L 52.109375 40.828125 L 52.109375 38.007812 L 49.289062 38.007812 L 49.289062 40.828125 " fill-opacity="1" fill-rule="nonzero"/><path fill="#ffb207" d="M 49.289062 35.1875 L 49.289062 38.007812 L 52.109375 38.007812 L 52.109375 35.1875 L 49.289062 35.1875 " fill-opacity="1" fill-rule="nonzero"/><path fill="#ff9107" d="M 49.289062 35.1875 L 52.109375 35.1875 L 52.109375 32.367188 L 49.289062 32.367188 L 49.289062 35.1875 " fill-opacity="1" fill-rule="nonzero"/><path fill="#ff9107" d="M 52.109375 29.546875 L 52.109375 26.726562 L 49.289062 26.726562 L 49.289062 29.546875 L 52.109375 29.546875 " fill-opacity="1" fill-rule="nonzero"/><path fill="#ff7007" d="M 52.109375 21.085938 L 52.109375 18.269531 L 49.289062 18.269531 L 49.289062 21.085938 L 52.109375 21.085938 " fill-opacity="1" fill-rule="nonzero"/><path fill="#ff7007" d="M 46.46875 54.929688 L 46.46875 57.746094 L 49.289062 57.746094 L 49.289062 54.929688 L 46.46875 54.929688 " fill-opacity="1" fill-rule="nonzero"/><path fill="#b74e00" d="M 49.289062 52.109375 L 46.46875 52.109375 L 46.46875 54.929688 L 49.289062 54.929688 L 49.289062 52.109375 " fill-opacity="1" fill-rule="nonzero"/><path fill="#ff7007" d="M 46.46875 49.289062 L 46.46875 52.109375 L 49.289062 52.109375 L 49.289062 49.289062 L 46.46875 49.289062 " fill-opacity="1" fill-rule="nonzero"/><path fill="#ff9107" d="M 49.289062 46.46875 L 46.46875 46.46875 L 46.46875 49.289062 L 49.289062 49.289062 L 49.289062 46.46875 " fill-opacity="1" fill-rule="nonzero"/><path fill="#ff7007" d="M 49.289062 46.46875 L 49.289062 43.648438 L 46.46875 43.648438 L 46.46875 38.007812 L 40.828125 38.007812 L 40.828125 40.828125 L 43.648438 40.828125 L 43.648438 43.648438 L 40.828125 43.648438 L 40.828125 46.46875 L 43.648438 46.46875 L 43.648438 49.289062 L 46.46875 49.289062 L 46.46875 46.46875 L 49.289062 46.46875 " fill-opacity="1" fill-rule="nonzero"/><path fill="#ff9107" d="M 46.46875 43.648438 L 49.289062 43.648438 L 49.289062 40.828125 L 46.46875 40.828125 L 46.46875 43.648438 " fill-opacity="1" fill-rule="nonzero"/><path fill="#b74e00" d="M 49.289062 38.007812 L 49.289062 35.1875 L 46.46875 35.1875 L 46.46875 38.007812 L 49.289062 38.007812 " fill-opacity="1" fill-rule="nonzero"/><path fill="#ffb207" d="M 49.289062 32.367188 L 46.46875 32.367188 L 46.46875 35.1875 L 49.289062 35.1875 L 49.289062 32.367188 " fill-opacity="1" fill-rule="nonzero"/><path fill="#ff9107" d="M 49.289062 29.546875 L 46.46875 29.546875 L 46.46875 32.367188 L 49.289062 32.367188 L 49.289062 29.546875 " fill-opacity="1" fill-rule="nonzero"/><path fill="#ff7007" d="M 43.648438 52.109375 L 43.648438 54.929688 L 46.46875 54.929688 L 46.46875 52.109375 L 43.648438 52.109375 " fill-opacity="1" fill-rule="nonzero"/><path fill="#b74e00" d="M 46.46875 52.109375 L 46.46875 49.289062 L 43.648438 49.289062 L 43.648438 46.46875 L 40.828125 46.46875 L 40.828125 54.929688 L 43.648438 54.929688 L 43.648438 52.109375 L 46.46875 52.109375 " fill-opacity="1" fill-rule="nonzero"/><path fill="#b74e00" d="M 46.46875 35.1875 L 46.46875 32.367188 L 43.648438 32.367188 L 43.648438 35.1875 L 46.46875 35.1875 " fill-opacity="1" fill-rule="nonzero"/><path fill="#ff7007" d="M 46.46875 26.726562 L 43.648438 26.726562 L 43.648438 29.546875 L 46.46875 29.546875 L 46.46875 26.726562 " fill-opacity="1" fill-rule="nonzero"/><path fill="#b74e00" d="M 43.648438 23.90625 L 46.46875 23.90625 L 46.46875 26.726562 L 49.289062 26.726562 L 49.289062 23.90625 L 52.109375 23.90625 L 52.109375 21.085938 L 49.289062 21.085938 L 49.289062 18.269531 L 40.828125 18.269531 L 40.828125 21.085938 L 43.648438 21.085938 L 43.648438 23.90625 " fill-opacity="1" fill-rule="nonzero"/><path fill="#b74e00" d="M 43.648438 71.847656 L 43.648438 66.207031 L 40.828125 66.207031 L 40.828125 57.746094 L 38.007812 57.746094 L 38.007812 49.289062 L 35.1875 49.289062 L 35.1875 46.46875 L 32.367188 46.46875 L 32.367188 49.289062 L 29.546875 49.289062 L 29.546875 54.929688 L 26.726562 54.929688 L 26.726562 57.746094 L 23.90625 57.746094 L 23.90625 69.027344 L 26.726562 69.027344 L 26.726562 71.847656 L 32.367188 71.847656 L 32.367188 74.667969 L 43.648438 74.667969 L 43.648438 71.847656 " fill-opacity="1" fill-rule="nonzero"/><path fill="#ff7007" d="M 40.828125 66.207031 L 43.648438 66.207031 L 43.648438 63.386719 L 40.828125 63.386719 L 40.828125 66.207031 " fill-opacity="1" fill-rule="nonzero"/><path fill="#b74e00" d="M 43.648438 43.648438 L 43.648438 40.828125 L 40.828125 40.828125 L 40.828125 43.648438 L 43.648438 43.648438 " fill-opacity="1" fill-rule="nonzero"/><path fill="#b74e00" d="M 43.648438 35.1875 L 40.828125 35.1875 L 40.828125 38.007812 L 43.648438 38.007812 L 43.648438 35.1875 " fill-opacity="1" fill-rule="nonzero"/><path fill="#ff7007" d="M 40.828125 23.90625 L 40.828125 26.726562 L 43.648438 26.726562 L 43.648438 23.90625 L 40.828125 23.90625 " fill-opacity="1" fill-rule="nonzero"/><path fill="#ff9107" d="M 43.648438 18.269531 L 54.929688 18.269531 L 54.929688 15.449219 L 40.828125 15.449219 L 40.828125 18.269531 L 43.648438 18.269531 " fill-opacity="1" fill-rule="nonzero"/><path fill="#ff7007" d="M 38.007812 54.929688 L 38.007812 57.746094 L 40.828125 57.746094 L 40.828125 54.929688 L 38.007812 54.929688 " fill-opacity="1" fill-rule="nonzero"/><path fill="#b74e00" d="M 38.007812 43.648438 L 38.007812 46.46875 L 40.828125 46.46875 L 40.828125 43.648438 L 38.007812 43.648438 " fill-opacity="1" fill-rule="nonzero"/><path fill="#ff7007" d="M 40.828125 40.828125 L 38.007812 40.828125 L 38.007812 43.648438 L 40.828125 43.648438 L 40.828125 40.828125 " fill-opacity="1" fill-rule="nonzero"/><path fill="#b74e00" d="M 40.828125 40.828125 L 40.828125 38.007812 L 38.007812 38.007812 L 38.007812 40.828125 L 40.828125 40.828125 " fill-opacity="1" fill-rule="nonzero"/><path fill="#ff7007" d="M 40.828125 32.367188 L 38.007812 32.367188 L 38.007812 35.1875 L 40.828125 35.1875 L 40.828125 32.367188 " fill-opacity="1" fill-rule="nonzero"/><path fill="#ff7007" d="M 40.828125 23.90625 L 40.828125 21.085938 L 38.007812 21.085938 L 38.007812 23.90625 L 40.828125 23.90625 " fill-opacity="1" fill-rule="nonzero"/><path fill="#ff7007" d="M 40.828125 77.488281 L 40.828125 74.667969 L 32.367188 74.667969 L 32.367188 77.488281 L 40.828125 77.488281 " fill-opacity="1" fill-rule="nonzero"/><path fill="#ff7007" d="M 35.1875 46.46875 L 35.1875 49.289062 L 38.007812 49.289062 L 38.007812 46.46875 L 35.1875 46.46875 " fill-opacity="1" fill-rule="nonzero"/><path fill="#b74e00" d="M 38.007812 43.648438 L 38.007812 40.828125 L 35.1875 40.828125 L 35.1875 43.648438 L 38.007812 43.648438 " fill-opacity="1" fill-rule="nonzero"/><path fill="#ff7007" d="M 35.1875 29.546875 L 35.1875 32.367188 L 38.007812 32.367188 L 38.007812 29.546875 L 35.1875 29.546875 " fill-opacity="1" fill-rule="nonzero"/><path fill="#b74e00" d="M 35.1875 26.726562 L 38.007812 26.726562 L 38.007812 29.546875 L 40.828125 29.546875 L 40.828125 32.367188 L 43.648438 32.367188 L 43.648438 26.726562 L 40.828125 26.726562 L 40.828125 23.90625 L 38.007812 23.90625 L 38.007812 21.085938 L 32.367188 21.085938 L 32.367188 23.90625 L 35.1875 23.90625 L 35.1875 26.726562 " fill-opacity="1" fill-rule="nonzero"/><path fill="#ff7007" d="M 32.367188 43.648438 L 32.367188 46.46875 L 35.1875 46.46875 L 35.1875 43.648438 L 32.367188 43.648438 " fill-opacity="1" fill-rule="nonzero"/><path fill="#ff9107" d="M 35.1875 21.085938 L 38.007812 21.085938 L 38.007812 18.269531 L 32.367188 18.269531 L 32.367188 21.085938 L 35.1875 21.085938 " fill-opacity="1" fill-rule="nonzero"/><path fill="#ff7007" d="M 32.367188 74.667969 L 32.367188 71.847656 L 26.726562 71.847656 L 26.726562 74.667969 L 32.367188 74.667969 " fill-opacity="1" fill-rule="nonzero"/><path fill="#ff7007" d="M 29.546875 49.289062 L 32.367188 49.289062 L 32.367188 46.46875 L 29.546875 46.46875 L 29.546875 49.289062 " fill-opacity="1" fill-rule="nonzero"/><path fill="#ff7007" d="M 32.367188 40.828125 L 29.546875 40.828125 L 29.546875 43.648438 L 32.367188 43.648438 L 32.367188 40.828125 " fill-opacity="1" fill-rule="nonzero"/><path fill="#ff7007" d="M 32.367188 29.546875 L 35.1875 29.546875 L 35.1875 26.726562 L 29.546875 26.726562 L 29.546875 29.546875 L 32.367188 29.546875 " fill-opacity="1" fill-rule="nonzero"/><path fill="#ff9107" d="M 32.367188 23.90625 L 29.546875 23.90625 L 29.546875 26.726562 L 32.367188 26.726562 L 32.367188 23.90625 " fill-opacity="1" fill-rule="nonzero"/><path fill="#ff7007" d="M 26.726562 52.109375 L 26.726562 54.929688 L 29.546875 54.929688 L 29.546875 49.289062 L 26.726562 49.289062 L 26.726562 52.109375 " fill-opacity="1" fill-rule="nonzero"/><path fill="#ff9107" d="M 29.546875 23.90625 L 29.546875 21.085938 L 26.726562 21.085938 L 26.726562 23.90625 L 29.546875 23.90625 " fill-opacity="1" fill-rule="nonzero"/><path fill="#ff7007" d="M 26.726562 69.027344 L 23.90625 69.027344 L 23.90625 71.847656 L 26.726562 71.847656 L 26.726562 69.027344 " fill-opacity="1" fill-rule="nonzero"/><path fill="#ff7007" d="M 23.90625 57.746094 L 26.726562 57.746094 L 26.726562 54.929688 L 23.90625 54.929688 L 23.90625 57.746094 " fill-opacity="1" fill-rule="nonzero"/><path fill="#ff7007" d="M 29.546875 40.828125 L 29.546875 38.007812 L 21.085938 38.007812 L 21.085938 40.828125 L 29.546875 40.828125 " fill-opacity="1" fill-rule="nonzero"/><path fill="#b74e00" d="M 29.546875 35.1875 L 29.546875 38.007812 L 32.367188 38.007812 L 32.367188 40.828125 L 35.1875 40.828125 L 35.1875 38.007812 L 38.007812 38.007812 L 38.007812 32.367188 L 35.1875 32.367188 L 35.1875 29.546875 L 29.546875 29.546875 L 29.546875 26.726562 L 23.90625 26.726562 L 23.90625 32.367188 L 21.085938 32.367188 L 21.085938 35.1875 L 29.546875 35.1875 " fill-opacity="1" fill-rule="nonzero"/><path fill="#ff7007" d="M 26.726562 26.726562 L 29.546875 26.726562 L 29.546875 23.90625 L 23.90625 23.90625 L 23.90625 26.726562 L 26.726562 26.726562 " fill-opacity="1" fill-rule="nonzero"/><path fill="#ff7007" d="M 23.90625 66.207031 L 23.90625 63.386719 L 21.085938 63.386719 L 21.085938 69.027344 L 23.90625 69.027344 L 23.90625 66.207031 " fill-opacity="1" fill-rule="nonzero"/><path fill="#b74e00" d="M 23.90625 52.109375 L 23.90625 49.289062 L 26.726562 49.289062 L 26.726562 46.46875 L 29.546875 46.46875 L 29.546875 40.828125 L 21.085938 40.828125 L 21.085938 43.648438 L 18.269531 43.648438 L 18.269531 54.929688 L 23.90625 54.929688 L 23.90625 52.109375 " fill-opacity="1" fill-rule="nonzero"/><path fill="#ff7007" d="M 21.085938 32.367188 L 23.90625 32.367188 L 23.90625 26.726562 L 21.085938 26.726562 L 21.085938 32.367188 " fill-opacity="1" fill-rule="nonzero"/><path fill="#ff7007" d="M 21.085938 60.566406 L 21.085938 54.929688 L 18.269531 54.929688 L 18.269531 63.386719 L 21.085938 63.386719 L 21.085938 60.566406 " fill-opacity="1" fill-rule="nonzero"/><path fill="#ff7007" d="M 21.085938 38.007812 L 21.085938 32.367188 L 18.269531 32.367188 L 18.269531 38.007812 L 21.085938 38.007812 " fill-opacity="1" fill-rule="nonzero"/><path fill="#ff7007" d="M 18.269531 52.109375 L 18.269531 43.648438 L 21.085938 43.648438 L 21.085938 40.828125 L 15.449219 40.828125 L 15.449219 54.929688 L 18.269531 54.929688 L 18.269531 52.109375 " fill-opacity="1" fill-rule="nonzero"/><path fill="#000000" d="M 77.488281 57.746094 L 77.488281 63.386719 L 80.308594 63.386719 L 80.308594 54.929688 L 77.488281 54.929688 L 77.488281 57.746094 " fill-opacity="1" fill-rule="nonzero"/><g clip-path="url(#524a081eb3)"><path fill="#000000" d="M 80.308594 38.007812 L 80.308594 32.367188 L 77.488281 32.367188 L 77.488281 40.828125 L 71.847656 40.828125 L 71.847656 43.648438 L 80.308594 43.648438 L 80.308594 54.929688 L 83.128906 54.929688 L 83.128906 40.828125 L 80.308594 40.828125 L 80.308594 38.007812 " fill-opacity="1" fill-rule="nonzero"/></g><path fill="#000000" d="M 77.488281 32.367188 L 77.488281 26.726562 L 74.667969 26.726562 L 74.667969 32.367188 L 77.488281 32.367188 " fill-opacity="1" fill-rule="nonzero"/><path fill="#000000" d="M 71.847656 71.847656 L 74.667969 71.847656 L 74.667969 69.027344 L 71.847656 69.027344 L 71.847656 71.847656 " fill-opacity="1" fill-rule="nonzero"/><path fill="#000000" d="M 71.847656 63.386719 L 71.847656 66.207031 L 74.667969 66.207031 L 74.667969 69.027344 L 77.488281 69.027344 L 77.488281 63.386719 L 71.847656 63.386719 " fill-opacity="1" fill-rule="nonzero"/><path fill="#000000" d="M 74.667969 26.726562 L 74.667969 23.90625 L 71.847656 23.90625 L 71.847656 26.726562 L 74.667969 26.726562 " fill-opacity="1" fill-rule="nonzero"/><path fill="#000000" d="M 69.027344 74.667969 L 71.847656 74.667969 L 71.847656 71.847656 L 69.027344 71.847656 L 69.027344 74.667969 " fill-opacity="1" fill-rule="nonzero"/><path fill="#000000" d="M 71.847656 63.386719 L 71.847656 60.566406 L 69.027344 60.566406 L 69.027344 63.386719 L 71.847656 63.386719 " fill-opacity="1" fill-rule="nonzero"/><path fill="#000000" d="M 69.027344 38.007812 L 63.386719 38.007812 L 63.386719 40.828125 L 71.847656 40.828125 L 71.847656 38.007812 L 69.027344 38.007812 " fill-opacity="1" fill-rule="nonzero"/><path fill="#000000" d="M 71.847656 23.90625 L 71.847656 21.085938 L 69.027344 21.085938 L 69.027344 23.90625 L 71.847656 23.90625 " fill-opacity="1" fill-rule="nonzero"/><path fill="#000000" d="M 69.027344 60.566406 L 69.027344 57.746094 L 66.207031 57.746094 L 66.207031 60.566406 L 69.027344 60.566406 " fill-opacity="1" fill-rule="nonzero"/><path fill="#000000" d="M 63.386719 77.488281 L 69.027344 77.488281 L 69.027344 74.667969 L 63.386719 74.667969 L 63.386719 77.488281 " fill-opacity="1" fill-rule="nonzero"/><path fill="#000000" d="M 66.207031 57.746094 L 66.207031 54.929688 L 63.386719 54.929688 L 63.386719 57.746094 L 66.207031 57.746094 " fill-opacity="1" fill-rule="nonzero"/><path fill="#000000" d="M 66.207031 21.085938 L 69.027344 21.085938 L 69.027344 18.269531 L 63.386719 18.269531 L 63.386719 21.085938 L 66.207031 21.085938 " fill-opacity="1" fill-rule="nonzero"/><path fill="#000000" d="M 63.386719 54.929688 L 63.386719 52.109375 L 60.566406 52.109375 L 60.566406 54.929688 L 63.386719 54.929688 " fill-opacity="1" fill-rule="nonzero"/><path fill="#000000" d="M 60.566406 35.1875 L 57.746094 35.1875 L 57.746094 38.007812 L 63.386719 38.007812 L 63.386719 35.1875 L 60.566406 35.1875 " fill-opacity="1" fill-rule="nonzero"/><path fill="#000000" d="M 54.929688 77.488281 L 54.929688 80.308594 L 63.386719 80.308594 L 63.386719 77.488281 L 54.929688 77.488281 " fill-opacity="1" fill-rule="nonzero"/><path fill="#000000" d="M 60.566406 52.109375 L 60.566406 49.289062 L 57.746094 49.289062 L 57.746094 52.109375 L 60.566406 52.109375 " fill-opacity="1" fill-rule="nonzero"/><path fill="#000000" d="M 57.746094 49.289062 L 57.746094 46.46875 L 54.929688 46.46875 L 54.929688 49.289062 L 57.746094 49.289062 " fill-opacity="1" fill-rule="nonzero"/><path fill="#000000" d="M 54.929688 32.367188 L 52.109375 32.367188 L 52.109375 35.1875 L 57.746094 35.1875 L 57.746094 32.367188 L 54.929688 32.367188 " fill-opacity="1" fill-rule="nonzero"/><path fill="#000000" d="M 60.566406 23.90625 L 63.386719 23.90625 L 63.386719 21.085938 L 54.929688 21.085938 L 54.929688 23.90625 L 60.566406 23.90625 " fill-opacity="1" fill-rule="nonzero"/><path fill="#000000" d="M 57.746094 18.269531 L 63.386719 18.269531 L 63.386719 15.449219 L 54.929688 15.449219 L 54.929688 18.269531 L 57.746094 18.269531 " fill-opacity="1" fill-rule="nonzero"/><path fill="#000000" d="M 54.929688 46.46875 L 54.929688 43.648438 L 52.109375 43.648438 L 52.109375 46.46875 L 54.929688 46.46875 " fill-opacity="1" fill-rule="nonzero"/><path fill="#000000" d="M 54.929688 26.726562 L 54.929688 23.90625 L 49.289062 23.90625 L 49.289062 26.726562 L 54.929688 26.726562 " fill-opacity="1" fill-rule="nonzero"/><g clip-path="url(#be3b693104)"><path fill="#000000" d="M 40.828125 80.308594 L 40.828125 83.128906 L 54.929688 83.128906 L 54.929688 80.308594 L 40.828125 80.308594 " fill-opacity="1" fill-rule="nonzero"/></g><path fill="#000000" d="M 52.109375 43.648438 L 52.109375 40.828125 L 49.289062 40.828125 L 49.289062 43.648438 L 52.109375 43.648438 " fill-opacity="1" fill-rule="nonzero"/><path fill="#000000" d="M 49.289062 29.546875 L 49.289062 32.367188 L 52.109375 32.367188 L 52.109375 29.546875 L 49.289062 29.546875 " fill-opacity="1" fill-rule="nonzero"/><path fill="#000000" d="M 49.289062 40.828125 L 49.289062 38.007812 L 46.46875 38.007812 L 46.46875 40.828125 L 49.289062 40.828125 " fill-opacity="1" fill-rule="nonzero"/><path fill="#000000" d="M 46.46875 26.726562 L 46.46875 29.546875 L 49.289062 29.546875 L 49.289062 26.726562 L 46.46875 26.726562 " fill-opacity="1" fill-rule="nonzero"/><path fill="#000000" d="M 43.648438 69.027344 L 43.648438 74.667969 L 46.46875 74.667969 L 46.46875 63.386719 L 43.648438 63.386719 L 43.648438 69.027344 " fill-opacity="1" fill-rule="nonzero"/><path fill="#000000" d="M 46.46875 38.007812 L 46.46875 35.1875 L 43.648438 35.1875 L 43.648438 38.007812 L 46.46875 38.007812 " fill-opacity="1" fill-rule="nonzero"/><path fill="#000000" d="M 43.648438 32.367188 L 46.46875 32.367188 L 46.46875 29.546875 L 43.648438 29.546875 L 43.648438 32.367188 " fill-opacity="1" fill-rule="nonzero"/><path fill="#000000" d="M 43.648438 23.90625 L 43.648438 26.726562 L 46.46875 26.726562 L 46.46875 23.90625 L 43.648438 23.90625 " fill-opacity="1" fill-rule="nonzero"/><g clip-path="url(#bcb3623027)"><path fill="#000000" d="M 54.929688 15.449219 L 54.929688 12.628906 L 40.828125 12.628906 L 40.828125 15.449219 L 54.929688 15.449219 " fill-opacity="1" fill-rule="nonzero"/></g><path fill="#000000" d="M 40.828125 77.488281 L 43.648438 77.488281 L 43.648438 74.667969 L 40.828125 74.667969 L 40.828125 77.488281 " fill-opacity="1" fill-rule="nonzero"/><path fill="#000000" d="M 40.828125 63.386719 L 43.648438 63.386719 L 43.648438 54.929688 L 40.828125 54.929688 L 40.828125 63.386719 " fill-opacity="1" fill-rule="nonzero"/><path fill="#000000" d="M 40.828125 35.1875 L 43.648438 35.1875 L 43.648438 32.367188 L 40.828125 32.367188 L 40.828125 35.1875 " fill-opacity="1" fill-rule="nonzero"/><path fill="#000000" d="M 40.828125 21.085938 L 40.828125 23.90625 L 43.648438 23.90625 L 43.648438 21.085938 L 40.828125 21.085938 " fill-opacity="1" fill-rule="nonzero"/><path fill="#000000" d="M 38.007812 77.488281 L 32.367188 77.488281 L 32.367188 80.308594 L 40.828125 80.308594 L 40.828125 77.488281 L 38.007812 77.488281 " fill-opacity="1" fill-rule="nonzero"/><path fill="#000000" d="M 38.007812 54.929688 L 40.828125 54.929688 L 40.828125 46.46875 L 38.007812 46.46875 L 38.007812 54.929688 " fill-opacity="1" fill-rule="nonzero"/><path fill="#000000" d="M 38.007812 38.007812 L 40.828125 38.007812 L 40.828125 35.1875 L 38.007812 35.1875 L 38.007812 38.007812 " fill-opacity="1" fill-rule="nonzero"/><path fill="#000000" d="M 38.007812 29.546875 L 38.007812 32.367188 L 40.828125 32.367188 L 40.828125 29.546875 L 38.007812 29.546875 " fill-opacity="1" fill-rule="nonzero"/><path fill="#000000" d="M 38.007812 46.46875 L 38.007812 43.648438 L 35.1875 43.648438 L 35.1875 46.46875 L 38.007812 46.46875 " fill-opacity="1" fill-rule="nonzero"/><path fill="#000000" d="M 35.1875 40.828125 L 38.007812 40.828125 L 38.007812 38.007812 L 35.1875 38.007812 L 35.1875 40.828125 " fill-opacity="1" fill-rule="nonzero"/><path fill="#000000" d="M 35.1875 26.726562 L 35.1875 29.546875 L 38.007812 29.546875 L 38.007812 26.726562 L 35.1875 26.726562 " fill-opacity="1" fill-rule="nonzero"/><path fill="#000000" d="M 38.007812 21.085938 L 40.828125 21.085938 L 40.828125 15.449219 L 32.367188 15.449219 L 32.367188 18.269531 L 38.007812 18.269531 L 38.007812 21.085938 " fill-opacity="1" fill-rule="nonzero"/><path fill="#000000" d="M 32.367188 43.648438 L 35.1875 43.648438 L 35.1875 40.828125 L 32.367188 40.828125 L 32.367188 43.648438 " fill-opacity="1" fill-rule="nonzero"/><path fill="#000000" d="M 32.367188 23.90625 L 32.367188 26.726562 L 35.1875 26.726562 L 35.1875 23.90625 L 32.367188 23.90625 " fill-opacity="1" fill-rule="nonzero"/><path fill="#000000" d="M 29.546875 74.667969 L 26.726562 74.667969 L 26.726562 77.488281 L 32.367188 77.488281 L 32.367188 74.667969 L 29.546875 74.667969 " fill-opacity="1" fill-rule="nonzero"/><path fill="#000000" d="M 29.546875 46.46875 L 32.367188 46.46875 L 32.367188 43.648438 L 29.546875 43.648438 L 29.546875 46.46875 " fill-opacity="1" fill-rule="nonzero"/><path fill="#000000" d="M 29.546875 38.007812 L 29.546875 40.828125 L 32.367188 40.828125 L 32.367188 38.007812 L 29.546875 38.007812 " fill-opacity="1" fill-rule="nonzero"/><path fill="#000000" d="M 29.546875 23.90625 L 32.367188 23.90625 L 32.367188 18.269531 L 26.726562 18.269531 L 26.726562 21.085938 L 29.546875 21.085938 L 29.546875 23.90625 " fill-opacity="1" fill-rule="nonzero"/><path fill="#000000" d="M 26.726562 49.289062 L 29.546875 49.289062 L 29.546875 46.46875 L 26.726562 46.46875 L 26.726562 49.289062 " fill-opacity="1" fill-rule="nonzero"/><path fill="#000000" d="M 23.90625 71.847656 L 23.90625 74.667969 L 26.726562 74.667969 L 26.726562 71.847656 L 23.90625 71.847656 " fill-opacity="1" fill-rule="nonzero"/><path fill="#000000" d="M 23.90625 52.109375 L 23.90625 54.929688 L 26.726562 54.929688 L 26.726562 49.289062 L 23.90625 49.289062 L 23.90625 52.109375 " fill-opacity="1" fill-rule="nonzero"/><path fill="#000000" d="M 26.726562 35.1875 L 21.085938 35.1875 L 21.085938 38.007812 L 29.546875 38.007812 L 29.546875 35.1875 L 26.726562 35.1875 " fill-opacity="1" fill-rule="nonzero"/><path fill="#000000" d="M 26.726562 21.085938 L 23.90625 21.085938 L 23.90625 23.90625 L 26.726562 23.90625 L 26.726562 21.085938 " fill-opacity="1" fill-rule="nonzero"/><path fill="#000000" d="M 21.085938 69.027344 L 21.085938 71.847656 L 23.90625 71.847656 L 23.90625 69.027344 L 21.085938 69.027344 " fill-opacity="1" fill-rule="nonzero"/><path fill="#000000" d="M 21.085938 60.566406 L 21.085938 63.386719 L 23.90625 63.386719 L 23.90625 54.929688 L 21.085938 54.929688 L 21.085938 60.566406 " fill-opacity="1" fill-rule="nonzero"/><path fill="#000000" d="M 23.90625 23.90625 L 21.085938 23.90625 L 21.085938 26.726562 L 23.90625 26.726562 L 23.90625 23.90625 " fill-opacity="1" fill-rule="nonzero"/><path fill="#000000" d="M 18.269531 63.386719 L 18.269531 69.027344 L 21.085938 69.027344 L 21.085938 63.386719 L 18.269531 63.386719 " fill-opacity="1" fill-rule="nonzero"/><path fill="#000000" d="M 21.085938 38.007812 L 18.269531 38.007812 L 18.269531 32.367188 L 15.449219 32.367188 L 15.449219 40.828125 L 21.085938 40.828125 L 21.085938 38.007812 " fill-opacity="1" fill-rule="nonzero"/><path fill="#000000" d="M 21.085938 29.546875 L 21.085938 26.726562 L 18.269531 26.726562 L 18.269531 32.367188 L 21.085938 32.367188 L 21.085938 29.546875 " fill-opacity="1" fill-rule="nonzero"/><path fill="#000000" d="M 18.269531 54.929688 L 15.449219 54.929688 L 15.449219 63.386719 L 18.269531 63.386719 L 18.269531 54.929688 " fill-opacity="1" fill-rule="nonzero"/><g clip-path="url(#66e7df0ef0)"><path fill="#000000" d="M 15.449219 40.828125 L 12.628906 40.828125 L 12.628906 54.929688 L 15.449219 54.929688 L 15.449219 40.828125 " fill-opacity="1" fill-rule="nonzero"/></g></svg>