<svg xmlns="http://www.w3.org/2000/svg" xmlns:xlink="http://www.w3.org/1999/xlink" width="128" zoomAndPan="magnify" viewBox="0 0 96 95.999999" height="128" preserveAspectRatio="xMidYMid meet" version="1.0"><defs><clipPath id="7432ed0abc"><path d="M 19 14.046875 L 79 14.046875 L 79 35 L 19 35 Z M 19 14.046875 " clip-rule="nonzero"/></clipPath><clipPath id="61ab792cc8"><path d="M 49.25 55.523438 L 64.105469 55.523438 L 64.105469 82.296875 L 49.25 82.296875 Z M 49.25 55.523438 " clip-rule="nonzero"/></clipPath><clipPath id="732ad445b6"><path d="M 37.507812 52.5625 L 55.300781 52.5625 L 55.300781 82.296875 L 37.507812 82.296875 Z M 37.507812 52.5625 " clip-rule="nonzero"/></clipPath><clipPath id="67fe23177f"><path d="M 37.507812 79.222656 L 40.628906 79.222656 L 40.628906 82.296875 L 37.507812 82.296875 Z M 37.507812 79.222656 " clip-rule="nonzero"/></clipPath><clipPath id="67c1afc7c9"><path d="M 11.09375 19.976562 L 84.59375 19.976562 L 84.59375 58.671875 L 11.09375 58.671875 Z M 11.09375 19.976562 " clip-rule="nonzero"/></clipPath></defs><path fill="#77cb4b" d="M 58.136719 31.859375 L 58.132812 28.890625 L 61.074219 28.886719 L 61.074219 31.859375 L 58.136719 31.859375 " fill-opacity="1" fill-rule="nonzero"/><path fill="#77cb4b" d="M 61.074219 28.890625 L 61.074219 31.855469 L 58.136719 31.855469 L 58.136719 28.890625 L 61.074219 28.890625 " fill-opacity="1" fill-rule="nonzero"/><path fill="#77cb4b" d="M 52.253906 28.890625 L 52.253906 25.925781 L 55.195312 25.921875 L 55.195312 28.890625 L 52.253906 28.890625 " fill-opacity="1" fill-rule="nonzero"/><path fill="#77cb4b" d="M 55.195312 25.925781 L 55.195312 28.890625 L 52.253906 28.890625 L 52.253906 25.925781 L 55.195312 25.925781 " fill-opacity="1" fill-rule="nonzero"/><path fill="#77cb4b" d="M 55.195312 28.890625 L 55.191406 25.925781 L 58.136719 25.921875 L 58.136719 28.890625 L 55.195312 28.890625 " fill-opacity="1" fill-rule="nonzero"/><path fill="#77cb4b" d="M 58.136719 25.925781 L 58.136719 28.890625 L 55.195312 28.890625 L 55.195312 25.925781 L 58.136719 25.925781 " fill-opacity="1" fill-rule="nonzero"/><g clip-path="url(#7432ed0abc)"><path fill="#77cb4b" d="M 19.914062 34.824219 L 19.914062 28.890625 L 22.855469 28.886719 L 22.855469 25.925781 L 31.675781 25.921875 L 31.675781 19.988281 L 34.613281 19.984375 L 34.613281 17.019531 L 43.433594 17.015625 L 43.433594 14.054688 L 52.253906 14.050781 L 52.257812 17.019531 L 64.011719 17.015625 L 64.015625 19.988281 L 69.894531 19.984375 L 69.894531 25.925781 L 78.710938 25.921875 L 78.710938 28.890625 L 69.894531 28.890625 L 69.894531 31.855469 L 64.011719 31.859375 L 64.011719 25.925781 L 61.074219 25.925781 L 61.074219 22.953125 L 55.195312 22.957031 L 55.191406 19.988281 L 49.3125 19.988281 L 49.316406 22.953125 L 52.253906 22.953125 L 52.257812 25.925781 L 46.375 25.925781 L 46.371094 22.953125 L 40.496094 22.957031 L 40.496094 25.925781 L 37.558594 25.925781 L 37.558594 28.890625 L 28.738281 28.890625 L 28.738281 31.855469 L 22.855469 31.859375 L 22.859375 34.824219 L 19.914062 34.824219 " fill-opacity="1" fill-rule="nonzero"/><path fill="#77cb4b" d="M 78.710938 25.925781 L 78.710938 28.890625 L 69.894531 28.890625 L 69.894531 31.855469 L 64.011719 31.855469 L 64.011719 25.925781 L 61.074219 25.925781 L 61.074219 22.953125 L 55.195312 22.953125 L 55.195312 19.988281 L 49.3125 19.988281 L 49.3125 22.953125 L 52.253906 22.953125 L 52.253906 25.925781 L 46.375 25.925781 L 46.375 22.953125 L 40.496094 22.953125 L 40.496094 25.925781 L 37.558594 25.925781 L 37.558594 28.890625 L 28.738281 28.890625 L 28.738281 31.855469 L 22.855469 31.855469 L 22.855469 34.824219 L 19.914062 34.824219 L 19.914062 28.890625 L 22.855469 28.890625 L 22.855469 25.925781 L 31.675781 25.925781 L 31.675781 19.988281 L 34.613281 19.988281 L 34.613281 17.019531 L 43.433594 17.019531 L 43.433594 14.054688 L 52.253906 14.054688 L 52.253906 17.019531 L 64.011719 17.019531 L 64.011719 19.988281 L 69.894531 19.988281 L 69.894531 25.925781 L 78.710938 25.925781 " fill-opacity="1" fill-rule="nonzero"/></g><path fill="#77cb4b" d="M 78.710938 37.792969 L 78.710938 34.824219 L 75.773438 34.824219 L 75.769531 31.855469 L 78.710938 31.855469 L 78.710938 28.890625 L 81.652344 28.886719 L 81.65625 37.792969 L 78.710938 37.792969 " fill-opacity="1" fill-rule="nonzero"/><path fill="#77cb4b" d="M 81.652344 28.890625 L 81.652344 37.792969 L 78.710938 37.792969 L 78.710938 34.824219 L 75.773438 34.824219 L 75.773438 31.855469 L 78.710938 31.855469 L 78.710938 28.890625 L 81.652344 28.890625 " fill-opacity="1" fill-rule="nonzero"/><g clip-path="url(#61ab792cc8)"><path fill="#6f421a" d="M 55.195312 82.300781 L 55.191406 79.335938 L 52.253906 79.335938 L 52.253906 73.398438 L 49.3125 73.398438 L 49.3125 70.429688 L 52.253906 70.429688 L 52.253906 67.464844 L 49.3125 67.464844 L 49.3125 64.5 L 52.253906 64.496094 L 52.253906 58.5625 L 58.136719 58.5625 L 58.132812 55.59375 L 64.011719 55.589844 L 64.015625 58.5625 L 61.074219 58.566406 L 61.074219 61.527344 L 55.195312 61.53125 L 55.195312 76.363281 L 58.136719 76.363281 L 58.136719 79.335938 L 61.074219 79.332031 L 61.074219 82.300781 L 55.195312 82.300781 " fill-opacity="1" fill-rule="nonzero"/><path fill="#6f421a" d="M 64.011719 55.59375 L 64.011719 58.5625 L 61.074219 58.5625 L 61.074219 61.527344 L 55.195312 61.527344 L 55.195312 76.363281 L 58.136719 76.363281 L 58.136719 79.335938 L 61.074219 79.335938 L 61.074219 82.300781 L 55.195312 82.300781 L 55.195312 79.335938 L 52.253906 79.335938 L 52.253906 73.398438 L 49.3125 73.398438 L 49.3125 70.429688 L 52.253906 70.429688 L 52.253906 67.464844 L 49.3125 67.464844 L 49.3125 64.5 L 52.253906 64.5 L 52.253906 58.5625 L 58.136719 58.5625 L 58.136719 55.59375 L 64.011719 55.59375 " fill-opacity="1" fill-rule="nonzero"/></g><g clip-path="url(#732ad445b6)"><path fill="#ac5e1e" d="M 40.496094 82.300781 L 40.492188 79.335938 L 43.433594 79.332031 L 43.433594 76.363281 L 46.375 76.363281 L 46.371094 64.5 L 40.496094 64.5 L 40.492188 61.527344 L 43.433594 61.527344 L 43.433594 58.5625 L 37.558594 58.566406 L 37.554688 52.628906 L 40.496094 52.625 L 40.496094 55.59375 L 46.375 55.589844 L 46.375 58.5625 L 52.253906 58.5625 L 52.257812 64.5 L 49.3125 64.5 L 49.316406 67.464844 L 52.253906 67.460938 L 52.257812 70.429688 L 49.3125 70.433594 L 49.316406 73.398438 L 52.253906 73.394531 L 52.257812 79.335938 L 55.195312 79.332031 L 55.195312 82.300781 L 40.496094 82.300781 " fill-opacity="1" fill-rule="nonzero"/><path fill="#ac5e1e" d="M 55.195312 79.335938 L 55.195312 82.300781 L 40.496094 82.300781 L 40.496094 79.335938 L 43.433594 79.335938 L 43.433594 76.363281 L 46.375 76.363281 L 46.375 64.5 L 40.496094 64.5 L 40.496094 61.527344 L 43.433594 61.527344 L 43.433594 58.5625 L 37.558594 58.5625 L 37.558594 52.628906 L 40.496094 52.628906 L 40.496094 55.59375 L 46.375 55.59375 L 46.375 58.5625 L 52.253906 58.5625 L 52.253906 64.5 L 49.3125 64.5 L 49.3125 67.464844 L 52.253906 67.464844 L 52.253906 70.429688 L 49.3125 70.429688 L 49.3125 73.398438 L 52.253906 73.398438 L 52.253906 79.335938 L 55.195312 79.335938 " fill-opacity="1" fill-rule="nonzero"/></g><path fill="#ac5e1e" d="M 43.433594 76.367188 L 43.433594 67.464844 L 37.558594 67.464844 L 37.554688 64.5 L 31.675781 64.5 L 31.675781 61.527344 L 40.496094 61.527344 L 40.496094 64.5 L 46.375 64.496094 L 46.375 76.367188 L 43.433594 76.367188 " fill-opacity="1" fill-rule="nonzero"/><path fill="#ac5e1e" d="M 46.375 64.5 L 46.375 76.363281 L 43.433594 76.363281 L 43.433594 67.464844 L 37.558594 67.464844 L 37.558594 64.5 L 31.675781 64.5 L 31.675781 61.527344 L 40.496094 61.527344 L 40.496094 64.5 L 46.375 64.5 " fill-opacity="1" fill-rule="nonzero"/><g clip-path="url(#67fe23177f)"><path fill="#ac5e1e" d="M 37.558594 82.300781 L 37.554688 79.335938 L 40.496094 79.332031 L 40.496094 82.300781 L 37.558594 82.300781 " fill-opacity="1" fill-rule="nonzero"/><path fill="#ac5e1e" d="M 37.558594 79.335938 L 40.496094 79.335938 L 40.496094 82.300781 L 37.558594 82.300781 L 37.558594 79.335938 " fill-opacity="1" fill-rule="nonzero"/></g><path fill="#ac5e1e" d="M 40.496094 79.335938 L 40.492188 76.363281 L 43.433594 76.363281 L 43.4375 79.335938 L 40.496094 79.335938 " fill-opacity="1" fill-rule="nonzero"/><path fill="#ac5e1e" d="M 40.496094 76.363281 L 43.433594 76.363281 L 43.433594 79.335938 L 40.496094 79.335938 L 40.496094 76.363281 " fill-opacity="1" fill-rule="nonzero"/><path fill="#27813b" d="M 34.613281 67.464844 L 34.613281 64.5 L 37.558594 64.496094 L 37.558594 67.464844 L 34.613281 67.464844 " fill-opacity="1" fill-rule="nonzero"/><path fill="#27813b" d="M 34.613281 64.5 L 37.558594 64.5 L 37.558594 67.464844 L 34.613281 67.464844 L 34.613281 64.5 " fill-opacity="1" fill-rule="nonzero"/><path fill="#27813b" d="M 28.738281 67.464844 L 28.734375 64.5 L 31.675781 64.496094 L 31.679688 67.464844 L 28.738281 67.464844 " fill-opacity="1" fill-rule="nonzero"/><path fill="#27813b" d="M 28.738281 67.464844 L 28.738281 64.5 L 31.675781 64.5 L 31.675781 67.464844 L 28.738281 67.464844 " fill-opacity="1" fill-rule="nonzero"/><path fill="#27813b" d="M 58.136719 67.464844 L 58.132812 64.5 L 55.195312 64.5 L 55.191406 61.527344 L 61.074219 61.527344 L 61.074219 58.5625 L 64.011719 58.5625 L 64.011719 55.59375 L 58.136719 55.59375 L 58.132812 49.660156 L 64.011719 49.660156 L 64.011719 46.691406 L 66.957031 46.691406 L 66.953125 43.726562 L 69.894531 43.722656 L 69.890625 40.757812 L 72.832031 40.753906 L 72.832031 43.726562 L 75.773438 43.722656 L 75.773438 46.691406 L 72.832031 46.691406 L 72.832031 49.660156 L 69.894531 49.664062 L 69.894531 52.628906 L 66.957031 52.628906 L 66.957031 55.59375 L 72.832031 55.589844 L 72.828125 52.628906 L 78.710938 52.625 L 78.710938 58.5625 L 75.773438 58.566406 L 75.773438 61.527344 L 72.832031 61.53125 L 72.832031 64.5 L 69.894531 64.5 L 69.890625 61.527344 L 66.957031 61.53125 L 66.957031 64.5 L 64.011719 64.5 L 64.015625 67.464844 L 58.136719 67.464844 " fill-opacity="1" fill-rule="nonzero"/><path fill="#27813b" d="M 78.710938 52.628906 L 78.710938 58.5625 L 75.773438 58.5625 L 75.773438 61.527344 L 72.832031 61.527344 L 72.832031 64.5 L 69.894531 64.5 L 69.894531 61.527344 L 66.957031 61.527344 L 66.957031 64.5 L 64.011719 64.5 L 64.011719 67.464844 L 58.136719 67.464844 L 58.136719 64.5 L 55.195312 64.5 L 55.195312 61.527344 L 61.074219 61.527344 L 61.074219 58.5625 L 64.011719 58.5625 L 64.011719 55.59375 L 58.136719 55.59375 L 58.136719 49.660156 L 64.011719 49.660156 L 64.011719 46.691406 L 66.957031 46.691406 L 66.957031 43.726562 L 69.894531 43.726562 L 69.894531 40.757812 L 72.832031 40.757812 L 72.832031 43.726562 L 75.773438 43.726562 L 75.773438 46.691406 L 72.832031 46.691406 L 72.832031 49.660156 L 69.894531 49.660156 L 69.894531 52.628906 L 66.957031 52.628906 L 66.957031 55.59375 L 72.832031 55.59375 L 72.832031 52.628906 L 78.710938 52.628906 " fill-opacity="1" fill-rule="nonzero"/><path fill="#27813b" d="M 25.796875 64.5 L 25.792969 61.527344 L 22.855469 61.53125 L 22.855469 58.5625 L 19.914062 58.566406 L 19.914062 55.59375 L 16.976562 55.59375 L 16.972656 52.628906 L 14.039062 52.628906 L 14.035156 49.660156 L 19.914062 49.660156 L 19.917969 52.628906 L 25.796875 52.625 L 25.796875 55.59375 L 31.675781 55.589844 L 31.679688 58.5625 L 34.613281 58.5625 L 34.613281 52.628906 L 31.675781 52.628906 L 31.675781 49.660156 L 34.613281 49.660156 L 34.613281 46.691406 L 25.796875 46.691406 L 25.792969 40.757812 L 28.738281 40.753906 L 28.734375 37.792969 L 31.675781 37.789062 L 31.679688 43.726562 L 40.496094 43.722656 L 40.496094 46.691406 L 46.375 46.691406 L 46.371094 43.726562 L 55.195312 43.722656 L 55.191406 37.792969 L 61.074219 37.789062 L 61.074219 40.757812 L 58.136719 40.761719 L 58.136719 46.691406 L 49.3125 46.691406 L 49.316406 55.59375 L 58.136719 55.589844 L 58.136719 58.5625 L 46.375 58.566406 L 46.371094 55.59375 L 40.496094 55.59375 L 40.492188 52.628906 L 37.558594 52.628906 L 37.558594 58.5625 L 43.433594 58.5625 L 43.4375 61.527344 L 28.738281 61.53125 L 28.738281 64.5 L 25.796875 64.5 " fill-opacity="1" fill-rule="nonzero"/><path fill="#27813b" d="M 58.136719 55.59375 L 58.136719 58.5625 L 46.375 58.5625 L 46.375 55.59375 L 40.496094 55.59375 L 40.496094 52.628906 L 37.558594 52.628906 L 37.558594 58.5625 L 43.433594 58.5625 L 43.433594 61.527344 L 28.738281 61.527344 L 28.738281 64.5 L 25.796875 64.5 L 25.796875 61.527344 L 22.855469 61.527344 L 22.855469 58.5625 L 19.914062 58.5625 L 19.914062 55.59375 L 16.976562 55.59375 L 16.976562 52.628906 L 14.039062 52.628906 L 14.039062 49.660156 L 19.914062 49.660156 L 19.914062 52.628906 L 25.796875 52.628906 L 25.796875 55.59375 L 31.675781 55.59375 L 31.675781 58.5625 L 34.613281 58.5625 L 34.613281 52.628906 L 31.675781 52.628906 L 31.675781 49.660156 L 34.613281 49.660156 L 34.613281 46.691406 L 25.796875 46.691406 L 25.796875 40.757812 L 28.738281 40.757812 L 28.738281 37.792969 L 31.675781 37.792969 L 31.675781 43.726562 L 40.496094 43.726562 L 40.496094 46.691406 L 46.375 46.691406 L 46.375 43.726562 L 55.195312 43.726562 L 55.195312 37.792969 L 61.074219 37.792969 L 61.074219 40.757812 L 58.136719 40.757812 L 58.136719 46.691406 L 49.3125 46.691406 L 49.3125 55.59375 L 58.136719 55.59375 " fill-opacity="1" fill-rule="nonzero"/><path fill="#4cbc38" d="M 25.796875 25.925781 L 25.792969 22.953125 L 28.738281 22.953125 L 28.734375 19.988281 L 31.675781 19.984375 L 31.679688 25.925781 L 25.796875 25.925781 " fill-opacity="1" fill-rule="nonzero"/><path fill="#4cbc38" d="M 25.796875 25.925781 L 25.796875 22.953125 L 28.738281 22.953125 L 28.738281 19.988281 L 31.675781 19.988281 L 31.675781 25.925781 L 25.796875 25.925781 " fill-opacity="1" fill-rule="nonzero"/><path fill="#4cbc38" d="M 43.433594 52.628906 L 43.433594 49.660156 L 46.375 49.660156 L 46.375 52.628906 L 43.433594 52.628906 " fill-opacity="1" fill-rule="nonzero"/><path fill="#4cbc38" d="M 46.375 49.660156 L 46.375 52.628906 L 43.433594 52.628906 L 43.433594 49.660156 L 46.375 49.660156 " fill-opacity="1" fill-rule="nonzero"/><path fill="#4cbc38" d="M 64.011719 25.925781 L 64.011719 22.953125 L 66.957031 22.953125 L 66.957031 25.925781 L 64.011719 25.925781 " fill-opacity="1" fill-rule="nonzero"/><path fill="#4cbc38" d="M 66.957031 25.925781 L 64.011719 25.925781 L 64.011719 22.953125 L 66.957031 22.953125 L 66.957031 25.925781 " fill-opacity="1" fill-rule="nonzero"/><path fill="#4cbc38" d="M 69.894531 25.925781 L 69.890625 19.988281 L 72.832031 19.984375 L 72.832031 22.953125 L 75.773438 22.953125 L 75.773438 25.925781 L 69.894531 25.925781 " fill-opacity="1" fill-rule="nonzero"/><path fill="#4cbc38" d="M 69.894531 25.925781 L 69.894531 19.988281 L 72.832031 19.988281 L 72.832031 22.953125 L 75.773438 22.953125 L 75.773438 25.925781 L 69.894531 25.925781 " fill-opacity="1" fill-rule="nonzero"/><g clip-path="url(#67c1afc7c9)"><path fill="#4cbc38" d="M 52.257812 28.890625 L 58.136719 28.886719 L 58.132812 25.925781 L 52.253906 25.925781 Z M 58.136719 31.855469 L 61.074219 31.855469 L 61.074219 28.890625 L 58.136719 28.890625 Z M 31.675781 58.566406 L 31.675781 55.59375 L 25.796875 55.59375 L 25.792969 52.628906 L 19.914062 52.628906 L 19.914062 49.660156 L 11.097656 49.664062 L 11.09375 46.691406 L 14.039062 46.691406 L 14.035156 37.792969 L 16.976562 37.789062 L 16.972656 31.855469 L 19.914062 31.855469 L 19.917969 34.824219 L 22.855469 34.824219 L 22.855469 31.855469 L 28.738281 31.855469 L 28.734375 28.890625 L 37.558594 28.886719 L 37.554688 25.925781 L 40.496094 25.921875 L 40.492188 22.953125 L 46.375 22.953125 L 46.375 25.925781 L 52.253906 25.921875 L 52.253906 22.953125 L 49.3125 22.957031 L 49.3125 19.988281 L 55.195312 19.984375 L 55.195312 22.953125 L 61.074219 22.953125 L 61.074219 25.925781 L 64.011719 25.921875 L 64.015625 31.855469 L 69.894531 31.855469 L 69.890625 28.890625 L 78.710938 28.886719 L 78.710938 31.855469 L 75.773438 31.859375 L 75.773438 34.824219 L 78.710938 34.824219 L 78.710938 37.792969 L 84.589844 37.789062 L 84.59375 43.726562 L 81.652344 43.726562 L 81.65625 52.628906 L 72.832031 52.628906 L 72.832031 55.59375 L 66.957031 55.59375 L 66.953125 52.628906 L 69.894531 52.625 L 69.890625 49.660156 L 72.832031 49.660156 L 72.828125 46.691406 L 75.773438 46.691406 L 75.769531 43.726562 L 72.832031 43.726562 L 72.828125 40.757812 L 69.894531 40.761719 L 69.894531 43.726562 L 66.957031 43.726562 L 66.957031 46.691406 L 64.011719 46.691406 L 64.015625 49.660156 L 58.136719 49.664062 L 58.136719 55.59375 L 49.3125 55.59375 L 49.3125 46.691406 L 58.136719 46.691406 L 58.132812 40.757812 L 61.074219 40.753906 L 61.074219 37.792969 L 55.195312 37.792969 L 55.195312 43.726562 L 46.375 43.726562 L 46.375 46.691406 L 40.496094 46.691406 L 40.492188 43.726562 L 31.675781 43.726562 L 31.675781 37.792969 L 28.738281 37.792969 L 28.738281 40.757812 L 25.796875 40.761719 L 25.796875 46.691406 L 34.613281 46.691406 L 34.617188 49.660156 L 31.675781 49.664062 L 31.679688 52.628906 L 34.613281 52.625 L 34.617188 58.566406 L 31.675781 58.566406 " fill-opacity="1" fill-rule="nonzero"/><path fill="#4cbc38" d="M 84.589844 37.792969 L 84.589844 43.726562 L 81.652344 43.726562 L 81.652344 52.628906 L 72.832031 52.628906 L 72.832031 55.59375 L 66.957031 55.59375 L 66.957031 52.628906 L 69.894531 52.628906 L 69.894531 49.660156 L 72.832031 49.660156 L 72.832031 46.691406 L 75.773438 46.691406 L 75.773438 43.726562 L 72.832031 43.726562 L 72.832031 40.757812 L 69.894531 40.757812 L 69.894531 43.726562 L 66.957031 43.726562 L 66.957031 46.691406 L 64.011719 46.691406 L 64.011719 49.660156 L 58.136719 49.660156 L 58.136719 55.59375 L 49.3125 55.59375 L 49.3125 46.691406 L 58.136719 46.691406 L 58.136719 40.757812 L 61.074219 40.757812 L 61.074219 37.792969 L 55.195312 37.792969 L 55.195312 43.726562 L 46.375 43.726562 L 46.375 46.691406 L 40.496094 46.691406 L 40.496094 43.726562 L 31.675781 43.726562 L 31.675781 37.792969 L 28.738281 37.792969 L 28.738281 40.757812 L 25.796875 40.757812 L 25.796875 46.691406 L 34.613281 46.691406 L 34.613281 49.660156 L 31.675781 49.660156 L 31.675781 52.628906 L 34.613281 52.628906 L 34.613281 58.5625 L 31.675781 58.5625 L 31.675781 55.59375 L 25.796875 55.59375 L 25.796875 52.628906 L 19.914062 52.628906 L 19.914062 49.660156 L 11.097656 49.660156 L 11.097656 46.691406 L 14.039062 46.691406 L 14.039062 37.792969 L 16.976562 37.792969 L 16.976562 31.855469 L 19.914062 31.855469 L 19.914062 34.824219 L 22.855469 34.824219 L 22.855469 31.855469 L 28.738281 31.855469 L 28.738281 28.890625 L 37.558594 28.890625 L 37.558594 25.925781 L 40.496094 25.925781 L 40.496094 22.953125 L 46.375 22.953125 L 46.375 25.925781 L 52.253906 25.925781 L 52.253906 28.890625 L 58.136719 28.890625 L 58.136719 31.855469 L 61.074219 31.855469 L 61.074219 28.890625 L 58.136719 28.890625 L 58.136719 25.925781 L 52.253906 25.925781 L 52.253906 22.953125 L 49.3125 22.953125 L 49.3125 19.988281 L 55.195312 19.988281 L 55.195312 22.953125 L 61.074219 22.953125 L 61.074219 25.925781 L 64.011719 25.925781 L 64.011719 31.855469 L 69.894531 31.855469 L 69.894531 28.890625 L 78.710938 28.890625 L 78.710938 31.855469 L 75.773438 31.855469 L 75.773438 34.824219 L 78.710938 34.824219 L 78.710938 37.792969 L 84.589844 37.792969 " fill-opacity="1" fill-rule="nonzero"/></g><path fill="#4cbc38" d="M 52.253906 28.890625 L 52.253906 25.925781 L 58.136719 25.921875 L 58.136719 28.890625 L 52.253906 28.890625 " fill-opacity="1" fill-rule="nonzero"/><path fill="#4cbc38" d="M 58.136719 25.925781 L 58.136719 28.890625 L 52.253906 28.890625 L 52.253906 25.925781 L 58.136719 25.925781 " fill-opacity="1" fill-rule="nonzero"/><path fill="#4cbc38" d="M 58.136719 31.859375 L 58.132812 28.890625 L 61.074219 28.886719 L 61.074219 31.859375 L 58.136719 31.859375 " fill-opacity="1" fill-rule="nonzero"/><path fill="#4cbc38" d="M 61.074219 28.890625 L 61.074219 31.855469 L 58.136719 31.855469 L 58.136719 28.890625 L 61.074219 28.890625 " fill-opacity="1" fill-rule="nonzero"/></svg>