<svg xmlns="http://www.w3.org/2000/svg" xmlns:xlink="http://www.w3.org/1999/xlink" width="128" zoomAndPan="magnify" viewBox="0 0 96 95.999999" height="128" preserveAspectRatio="xMidYMid meet" version="1.0"><defs><clipPath id="a6efe62784"><path d="M 81 26 L 87.269531 26 L 87.269531 51 L 81 51 Z M 81 26 " clip-rule="nonzero"/></clipPath><clipPath id="cc20beb9e0"><path d="M 38 75 L 57 75 L 57 81.339844 L 38 81.339844 Z M 38 75 " clip-rule="nonzero"/></clipPath><clipPath id="53a726c258"><path d="M 56 14.589844 L 76 14.589844 L 76 21 L 56 21 Z M 56 14.589844 " clip-rule="nonzero"/></clipPath><clipPath id="7bfa50fe91"><path d="M 20 14.589844 L 39 14.589844 L 39 21 L 20 21 Z M 20 14.589844 " clip-rule="nonzero"/></clipPath><clipPath id="d7c83e0294"><path d="M 8.519531 26 L 15 26 L 15 51 L 8.519531 51 Z M 8.519531 26 " clip-rule="nonzero"/></clipPath></defs><path fill="#f04236" d="M 20.632812 32.792969 L 26.691406 32.792969 L 26.691406 26.726562 L 32.746094 26.726562 L 32.746094 32.792969 L 26.691406 32.792969 L 26.691406 38.863281 L 20.632812 38.863281 Z M 26.691406 50.996094 L 26.691406 57.066406 L 32.746094 57.066406 L 32.746094 63.132812 L 38.804688 63.132812 L 38.804688 69.199219 L 56.980469 69.199219 L 56.980469 63.132812 L 63.039062 63.132812 L 63.039062 57.066406 L 69.09375 57.066406 L 69.09375 50.996094 L 75.152344 50.996094 L 75.152344 26.726562 L 69.09375 26.726562 L 69.09375 20.660156 L 56.980469 20.660156 L 56.980469 26.726562 L 50.921875 26.726562 L 50.921875 32.792969 L 44.863281 32.792969 L 44.863281 26.726562 L 38.804688 26.726562 L 38.804688 20.660156 L 20.632812 20.660156 L 20.632812 26.726562 L 14.574219 26.726562 L 14.574219 50.996094 L 26.691406 50.996094 " fill-opacity="1" fill-rule="nonzero"/><path fill="#ffffff" d="M 26.691406 32.792969 L 20.632812 32.792969 L 20.632812 38.863281 L 26.691406 38.863281 L 26.691406 32.792969 " fill-opacity="1" fill-rule="nonzero"/><path fill="#ffffff" d="M 32.746094 26.726562 L 26.691406 26.726562 L 26.691406 32.792969 L 32.746094 32.792969 L 32.746094 26.726562 " fill-opacity="1" fill-rule="nonzero"/><path fill="#040606" d="M 63.039062 69.199219 L 69.09375 69.199219 L 69.09375 63.132812 L 63.039062 63.132812 L 63.039062 69.199219 " fill-opacity="1" fill-rule="nonzero"/><path fill="#040606" d="M 69.09375 63.132812 L 75.152344 63.132812 L 75.152344 57.066406 L 69.09375 57.066406 L 69.09375 63.132812 " fill-opacity="1" fill-rule="nonzero"/><g clip-path="url(#a6efe62784)"><path fill="#040606" d="M 87.269531 50.996094 L 87.269531 26.726562 L 81.210938 26.726562 L 81.210938 50.996094 L 87.269531 50.996094 " fill-opacity="1" fill-rule="nonzero"/></g><path fill="#040606" d="M 56.980469 75.269531 L 63.039062 75.269531 L 63.039062 69.199219 L 56.980469 69.199219 L 56.980469 75.269531 " fill-opacity="1" fill-rule="nonzero"/><g clip-path="url(#cc20beb9e0)"><path fill="#040606" d="M 38.804688 75.269531 L 38.804688 81.335938 L 56.980469 81.335938 L 56.980469 75.269531 L 38.804688 75.269531 " fill-opacity="1" fill-rule="nonzero"/></g><path fill="#040606" d="M 26.691406 63.132812 L 26.691406 69.199219 L 32.746094 69.199219 L 32.746094 63.132812 L 26.691406 63.132812 " fill-opacity="1" fill-rule="nonzero"/><path fill="#040606" d="M 32.746094 69.199219 L 32.746094 75.269531 L 38.804688 75.269531 L 38.804688 69.199219 L 32.746094 69.199219 " fill-opacity="1" fill-rule="nonzero"/><path fill="#040606" d="M 20.632812 57.066406 L 20.632812 63.132812 L 26.691406 63.132812 L 26.691406 57.066406 L 20.632812 57.066406 " fill-opacity="1" fill-rule="nonzero"/><path fill="#040606" d="M 56.980469 20.660156 L 50.921875 20.660156 L 50.921875 26.726562 L 56.980469 26.726562 L 56.980469 20.660156 " fill-opacity="1" fill-rule="nonzero"/><g clip-path="url(#53a726c258)"><path fill="#040606" d="M 75.152344 20.660156 L 75.152344 14.589844 L 56.980469 14.589844 L 56.980469 20.660156 L 75.152344 20.660156 " fill-opacity="1" fill-rule="nonzero"/></g><path fill="#040606" d="M 75.152344 57.066406 L 81.210938 57.066406 L 81.210938 50.996094 L 75.152344 50.996094 L 75.152344 57.066406 " fill-opacity="1" fill-rule="nonzero"/><path fill="#040606" d="M 81.210938 26.726562 L 81.210938 20.660156 L 75.152344 20.660156 L 75.152344 26.726562 L 81.210938 26.726562 " fill-opacity="1" fill-rule="nonzero"/><path fill="#040606" d="M 14.574219 50.996094 L 14.574219 57.066406 L 20.632812 57.066406 L 20.632812 50.996094 L 14.574219 50.996094 " fill-opacity="1" fill-rule="nonzero"/><path fill="#040606" d="M 20.632812 20.660156 L 14.574219 20.660156 L 14.574219 26.726562 L 20.632812 26.726562 L 20.632812 20.660156 " fill-opacity="1" fill-rule="nonzero"/><path fill="#040606" d="M 50.921875 32.792969 L 50.921875 26.726562 L 44.863281 26.726562 L 44.863281 32.792969 L 50.921875 32.792969 " fill-opacity="1" fill-rule="nonzero"/><path fill="#040606" d="M 44.863281 26.726562 L 44.863281 20.660156 L 38.804688 20.660156 L 38.804688 26.726562 L 44.863281 26.726562 " fill-opacity="1" fill-rule="nonzero"/><g clip-path="url(#7bfa50fe91)"><path fill="#040606" d="M 38.804688 14.589844 L 20.632812 14.589844 L 20.632812 20.660156 L 38.804688 20.660156 L 38.804688 14.589844 " fill-opacity="1" fill-rule="nonzero"/></g><g clip-path="url(#d7c83e0294)"><path fill="#040606" d="M 8.515625 26.726562 L 8.515625 50.996094 L 14.574219 50.996094 L 14.574219 26.726562 L 8.515625 26.726562 " fill-opacity="1" fill-rule="nonzero"/></g><path fill="#c71e25" d="M 32.746094 57.066406 L 26.691406 57.066406 L 26.691406 63.132812 L 32.746094 63.132812 L 32.746094 57.066406 " fill-opacity="1" fill-rule="nonzero"/><path fill="#c71e25" d="M 63.039062 57.066406 L 63.039062 63.132812 L 69.09375 63.132812 L 69.09375 57.066406 L 63.039062 57.066406 " fill-opacity="1" fill-rule="nonzero"/><path fill="#c71e25" d="M 26.691406 50.996094 L 20.632812 50.996094 L 20.632812 57.066406 L 26.691406 57.066406 L 26.691406 50.996094 " fill-opacity="1" fill-rule="nonzero"/><path fill="#c71e25" d="M 69.09375 26.726562 L 75.152344 26.726562 L 75.152344 20.660156 L 69.09375 20.660156 L 69.09375 26.726562 " fill-opacity="1" fill-rule="nonzero"/><path fill="#c71e25" d="M 56.980469 63.132812 L 56.980469 69.199219 L 63.039062 69.199219 L 63.039062 63.132812 L 56.980469 63.132812 " fill-opacity="1" fill-rule="nonzero"/><path fill="#c71e25" d="M 69.09375 50.996094 L 69.09375 57.066406 L 75.152344 57.066406 L 75.152344 50.996094 L 69.09375 50.996094 " fill-opacity="1" fill-rule="nonzero"/><path fill="#c71e25" d="M 56.980469 69.199219 L 38.804688 69.199219 L 38.804688 75.269531 L 56.980469 75.269531 L 56.980469 69.199219 " fill-opacity="1" fill-rule="nonzero"/><path fill="#c71e25" d="M 75.152344 50.996094 L 81.210938 50.996094 L 81.210938 26.726562 L 75.152344 26.726562 L 75.152344 50.996094 " fill-opacity="1" fill-rule="nonzero"/><path fill="#c71e25" d="M 38.804688 63.132812 L 32.746094 63.132812 L 32.746094 69.199219 L 38.804688 69.199219 L 38.804688 63.132812 " fill-opacity="1" fill-rule="nonzero"/></svg>