<svg xmlns="http://www.w3.org/2000/svg" xmlns:xlink="http://www.w3.org/1999/xlink" width="128" zoomAndPan="magnify" viewBox="0 0 96 95.999999" height="128" preserveAspectRatio="xMidYMid meet" version="1.0"><defs><clipPath id="8c0da7ed85"><path d="M 6.007812 20.820312 L 90.007812 20.820312 L 90.007812 74.820312 L 6.007812 74.820312 Z M 6.007812 20.820312 " clip-rule="nonzero"/></clipPath><clipPath id="da9ddced72"><path d="M 15 60 L 71 60 L 71 74.820312 L 15 74.820312 Z M 15 60 " clip-rule="nonzero"/></clipPath><clipPath id="8b900f93c2"><path d="M 6.007812 45 L 21 45 L 21 70 L 6.007812 70 Z M 6.007812 45 " clip-rule="nonzero"/></clipPath><clipPath id="792aa45c78"><path d="M 45 20.820312 L 51 20.820312 L 51 36 L 45 36 Z M 45 20.820312 " clip-rule="nonzero"/></clipPath><clipPath id="47d9e99df6"><path d="M 75 20.820312 L 81 20.820312 L 81 26 L 75 26 Z M 75 20.820312 " clip-rule="nonzero"/></clipPath><clipPath id="3745ca7ff6"><path d="M 85 35 L 90.007812 35 L 90.007812 46 L 85 46 Z M 85 35 " clip-rule="nonzero"/></clipPath></defs><g clip-path="url(#8c0da7ed85)"><path fill="#ffbbea" d="M 85.066406 35.550781 L 85.066406 20.828125 L 75.183594 20.828125 L 75.183594 25.734375 L 70.242188 25.734375 L 70.242188 30.640625 L 60.359375 30.640625 L 60.359375 25.734375 L 55.417969 25.734375 L 55.417969 20.828125 L 45.535156 20.828125 L 45.535156 35.550781 L 40.59375 35.550781 L 40.59375 45.367188 L 45.535156 45.367188 L 45.535156 50.273438 L 30.714844 50.273438 L 30.714844 55.179688 L 25.773438 55.179688 L 25.773438 60.089844 L 20.832031 60.089844 L 20.832031 50.273438 L 25.773438 50.273438 L 25.773438 45.367188 L 30.714844 45.367188 L 30.714844 40.457031 L 25.773438 40.457031 L 25.773438 35.550781 L 15.890625 35.550781 L 15.890625 40.457031 L 10.949219 40.457031 L 10.949219 45.367188 L 6.007812 45.367188 L 6.007812 64.996094 L 10.949219 64.996094 L 10.949219 69.90625 L 15.890625 69.90625 L 15.890625 74.8125 L 70.242188 74.8125 L 70.242188 69.90625 L 75.183594 69.90625 L 75.183594 64.996094 L 70.242188 64.996094 L 70.242188 60.089844 L 75.183594 60.089844 L 75.183594 55.179688 L 80.125 55.179688 L 80.125 50.273438 L 85.066406 50.273438 L 85.066406 45.367188 L 90.007812 45.367188 L 90.007812 35.550781 Z M 85.066406 35.550781 " fill-opacity="1" fill-rule="nonzero"/></g><path fill="#57bbff" d="M 35.65625 60.089844 L 45.535156 60.089844 L 45.535156 64.996094 L 35.65625 64.996094 Z M 35.65625 60.089844 " fill-opacity="1" fill-rule="nonzero"/><path fill="#57bbff" d="M 45.535156 64.996094 L 50.476562 64.996094 L 50.476562 69.90625 L 45.535156 69.90625 Z M 45.535156 64.996094 " fill-opacity="1" fill-rule="nonzero"/><path fill="#57bbff" d="M 15.890625 35.550781 L 25.773438 35.550781 L 25.773438 40.457031 L 15.890625 40.457031 Z M 15.890625 35.550781 " fill-opacity="1" fill-rule="nonzero"/><path fill="#57bbff" d="M 25.773438 40.457031 L 30.714844 40.457031 L 30.714844 45.367188 L 25.773438 45.367188 Z M 25.773438 40.457031 " fill-opacity="1" fill-rule="nonzero"/><path fill="#57bbff" d="M 70.242188 64.996094 L 75.183594 64.996094 L 75.183594 69.90625 L 70.242188 69.90625 Z M 70.242188 64.996094 " fill-opacity="1" fill-rule="nonzero"/><path fill="#e24795" d="M 55.417969 45.367188 L 60.359375 45.367188 L 60.359375 50.273438 L 55.417969 50.273438 Z M 55.417969 45.367188 " fill-opacity="1" fill-rule="nonzero"/><path fill="#e24795" d="M 70.242188 45.367188 L 75.183594 45.367188 L 75.183594 50.273438 L 70.242188 50.273438 Z M 70.242188 45.367188 " fill-opacity="1" fill-rule="nonzero"/><path fill="#5211ba" d="M 55.417969 40.457031 L 60.359375 40.457031 L 60.359375 45.367188 L 55.417969 45.367188 Z M 55.417969 40.457031 " fill-opacity="1" fill-rule="nonzero"/><path fill="#5211ba" d="M 70.242188 40.457031 L 75.183594 40.457031 L 75.183594 45.367188 L 70.242188 45.367188 Z M 70.242188 40.457031 " fill-opacity="1" fill-rule="nonzero"/><path fill="#5211ba" d="M 45.535156 45.367188 L 50.476562 45.367188 L 50.476562 50.273438 L 45.535156 50.273438 Z M 45.535156 45.367188 " fill-opacity="1" fill-rule="nonzero"/><path fill="#5211ba" d="M 50.476562 50.273438 L 55.417969 50.273438 L 55.417969 55.179688 L 50.476562 55.179688 Z M 50.476562 50.273438 " fill-opacity="1" fill-rule="nonzero"/><path fill="#5211ba" d="M 55.417969 55.179688 L 75.183594 55.179688 L 75.183594 60.089844 L 55.417969 60.089844 Z M 55.417969 55.179688 " fill-opacity="1" fill-rule="nonzero"/><g clip-path="url(#da9ddced72)"><path fill="#5211ba" d="M 25.773438 60.089844 L 20.832031 60.089844 L 20.832031 69.90625 L 15.890625 69.90625 L 15.890625 74.8125 L 70.242188 74.8125 L 70.242188 69.90625 L 25.773438 69.90625 Z M 25.773438 60.089844 " fill-opacity="1" fill-rule="nonzero"/></g><path fill="#5211ba" d="M 75.183594 50.273438 L 80.125 50.273438 L 80.125 55.179688 L 75.183594 55.179688 Z M 75.183594 50.273438 " fill-opacity="1" fill-rule="nonzero"/><path fill="#5211ba" d="M 80.125 45.367188 L 85.066406 45.367188 L 85.066406 50.273438 L 80.125 50.273438 Z M 80.125 45.367188 " fill-opacity="1" fill-rule="nonzero"/><path fill="#9f8fff" d="M 30.714844 55.179688 L 25.773438 55.179688 L 25.773438 69.90625 L 45.535156 69.90625 L 45.535156 64.996094 L 30.714844 64.996094 Z M 30.714844 55.179688 " fill-opacity="1" fill-rule="nonzero"/><g clip-path="url(#8b900f93c2)"><path fill="#9f8fff" d="M 15.890625 60.089844 L 10.949219 60.089844 L 10.949219 55.179688 L 15.890625 55.179688 L 15.890625 50.273438 L 10.949219 50.273438 L 10.949219 45.367188 L 6.007812 45.367188 L 6.007812 64.996094 L 10.949219 64.996094 L 10.949219 69.90625 L 20.832031 69.90625 L 20.832031 64.996094 L 15.890625 64.996094 Z M 15.890625 60.089844 " fill-opacity="1" fill-rule="nonzero"/></g><path fill="#9f8fff" d="M 10.949219 40.457031 L 15.890625 40.457031 L 15.890625 45.367188 L 10.949219 45.367188 Z M 10.949219 40.457031 " fill-opacity="1" fill-rule="nonzero"/><path fill="#9f8fff" d="M 20.832031 45.367188 L 25.773438 45.367188 L 25.773438 50.273438 L 20.832031 50.273438 Z M 20.832031 45.367188 " fill-opacity="1" fill-rule="nonzero"/><path fill="#9f8fff" d="M 50.476562 45.367188 L 55.417969 45.367188 L 55.417969 50.273438 L 50.476562 50.273438 Z M 50.476562 45.367188 " fill-opacity="1" fill-rule="nonzero"/><path fill="#9f8fff" d="M 75.183594 45.367188 L 80.125 45.367188 L 80.125 50.273438 L 75.183594 50.273438 Z M 75.183594 45.367188 " fill-opacity="1" fill-rule="nonzero"/><path fill="#9f8fff" d="M 55.417969 50.273438 L 75.183594 50.273438 L 75.183594 55.179688 L 55.417969 55.179688 Z M 55.417969 50.273438 " fill-opacity="1" fill-rule="nonzero"/><path fill="#9f8fff" d="M 45.535156 40.457031 L 45.535156 35.550781 L 40.59375 35.550781 L 40.59375 45.367188 L 50.476562 45.367188 L 50.476562 40.457031 Z M 45.535156 40.457031 " fill-opacity="1" fill-rule="nonzero"/><g clip-path="url(#792aa45c78)"><path fill="#9f8fff" d="M 45.535156 20.828125 L 50.476562 20.828125 L 50.476562 35.550781 L 45.535156 35.550781 Z M 45.535156 20.828125 " fill-opacity="1" fill-rule="nonzero"/></g><path fill="#9f8fff" d="M 70.242188 25.734375 L 75.183594 25.734375 L 75.183594 30.640625 L 70.242188 30.640625 Z M 70.242188 25.734375 " fill-opacity="1" fill-rule="nonzero"/><g clip-path="url(#47d9e99df6)"><path fill="#9f8fff" d="M 75.183594 20.828125 L 80.125 20.828125 L 80.125 25.734375 L 75.183594 25.734375 Z M 75.183594 20.828125 " fill-opacity="1" fill-rule="nonzero"/></g><path fill="#9f8fff" d="M 65.300781 60.089844 L 70.242188 60.089844 L 70.242188 69.90625 L 65.300781 69.90625 Z M 65.300781 60.089844 " fill-opacity="1" fill-rule="nonzero"/><path fill="#57bbff" d="M 70.242188 25.734375 L 75.183594 25.734375 L 75.183594 30.640625 L 70.242188 30.640625 Z M 70.242188 25.734375 " fill-opacity="1" fill-rule="nonzero"/><g clip-path="url(#3745ca7ff6)"><path fill="#57bbff" d="M 85.066406 35.550781 L 90.007812 35.550781 L 90.007812 45.367188 L 85.066406 45.367188 Z M 85.066406 35.550781 " fill-opacity="1" fill-rule="nonzero"/></g></svg>