<svg width="72" height="31" viewBox="0 0 72 31" fill="none" xmlns="http://www.w3.org/2000/svg">
<path d="M35.84 30.832C33.8773 30.832 32.1707 30.6613 30.72 30.32V23.92C29.3547 24.2613 27.648 24.432 25.6 24.432C23.6373 24.432 21.9307 24.2613 20.48 23.92V17.52C19.1147 17.8613 17.408 18.032 15.36 18.032C13.3973 18.032 11.6907 17.8613 10.24 17.52V11.12C8.87467 11.4613 7.168 11.632 5.12 11.632C3.15733 11.632 1.45067 11.4613 0 11.12V0.88C1.45067 0.538667 3.15733 0.368 5.12 0.368C7.168 0.368 8.87467 0.538667 10.24 0.88V7.28C11.6907 6.93867 13.3973 6.768 15.36 6.768C17.408 6.768 19.1147 6.93867 20.48 7.28V13.68C21.9307 13.3387 23.6373 13.168 25.6 13.168C27.648 13.168 29.3547 13.3387 30.72 13.68V20.08C32.1707 19.7387 33.8773 19.568 35.84 19.568C37.888 19.568 39.5947 19.7387 40.96 20.08V13.68C42.4107 13.3387 44.1173 13.168 46.08 13.168C48.128 13.168 49.8347 13.3387 51.2 13.68V7.28C52.6507 6.93867 54.3573 6.768 56.32 6.768C58.368 6.768 60.0747 6.93867 61.44 7.28V0.88C62.8907 0.538667 64.5973 0.368 66.56 0.368C68.608 0.368 70.3147 0.538667 71.68 0.88V11.12C70.3147 11.4613 68.608 11.632 66.56 11.632C64.5973 11.632 62.8907 11.4613 61.44 11.12V17.52C60.0747 17.8613 58.368 18.032 56.32 18.032C54.3573 18.032 52.6507 17.8613 51.2 17.52V23.92C49.8347 24.2613 48.128 24.432 46.08 24.432C44.1173 24.432 42.4107 24.2613 40.96 23.92V30.32C39.5947 30.6613 37.888 30.832 35.84 30.832Z" fill="white"/>
</svg>
