<svg xmlns="http://www.w3.org/2000/svg" viewBox="0 0 32 32" height="48" width="48"><title>interface-essential-pencil-edit-2</title><g><rect x="30.47" y="6.1" width="1.53" height="4.57" fill="#2e1b5b"></rect><rect x="28.95" y="10.67" width="1.52" height="1.52" fill="#2e1b5b"></rect><rect x="28.95" y="4.57" width="1.52" height="1.53" fill="#2e1b5b"></rect><rect x="27.43" y="12.19" width="1.52" height="1.52" fill="#2e1b5b"></rect><rect x="27.43" y="3.05" width="1.52" height="1.52" fill="#2e1b5b"></rect><rect x="25.9" y="13.71" width="1.53" height="1.53" fill="#2e1b5b"></rect><rect x="25.9" y="10.67" width="1.53" height="1.52" fill="#2e1b5b"></rect><rect x="25.9" y="1.52" width="1.53" height="1.53" fill="#2e1b5b"></rect><rect x="24.38" y="15.24" width="1.52" height="1.52" fill="#2e1b5b"></rect><rect x="24.38" y="9.14" width="1.52" height="1.53" fill="#2e1b5b"></rect><rect x="22.85" y="16.76" width="1.53" height="1.53" fill="#2e1b5b"></rect><rect x="22.85" y="10.67" width="1.53" height="1.52" fill="#2e1b5b"></rect><rect x="22.85" y="7.62" width="1.53" height="1.52" fill="#2e1b5b"></rect><rect x="21.33" width="4.57" height="1.52" fill="#2e1b5b"></rect><rect x="21.33" y="18.29" width="1.52" height="1.52" fill="#2e1b5b"></rect><rect x="21.33" y="12.19" width="1.52" height="1.52" fill="#2e1b5b"></rect><rect x="21.33" y="6.1" width="1.52" height="1.52" fill="#2e1b5b"></rect><rect x="19.81" y="19.81" width="1.52" height="1.52" fill="#2e1b5b"></rect><rect x="19.81" y="13.71" width="1.52" height="1.53" fill="#2e1b5b"></rect><rect x="19.81" y="7.62" width="1.52" height="1.52" fill="#2e1b5b"></rect><rect x="19.81" y="4.57" width="1.52" height="1.53" fill="#2e1b5b"></rect><rect x="19.81" y="1.52" width="1.52" height="1.53" fill="#2e1b5b"></rect><rect x="18.28" y="21.33" width="1.53" height="1.53" fill="#2e1b5b"></rect><rect x="18.28" y="15.24" width="1.53" height="1.52" fill="#2e1b5b"></rect><rect x="18.28" y="9.14" width="1.53" height="1.53" fill="#2e1b5b"></rect><rect x="18.28" y="3.05" width="1.53" height="1.52" fill="#2e1b5b"></rect><rect x="16.76" y="22.86" width="1.52" height="1.52" fill="#2e1b5b"></rect><rect x="16.76" y="16.76" width="1.52" height="1.53" fill="#2e1b5b"></rect><rect x="16.76" y="10.67" width="1.52" height="1.52" fill="#2e1b5b"></rect><rect x="16.76" y="4.57" width="1.52" height="1.53" fill="#2e1b5b"></rect><rect x="15.24" y="24.38" width="1.52" height="1.52" fill="#2e1b5b"></rect><rect x="15.24" y="18.29" width="1.52" height="1.52" fill="#2e1b5b"></rect><rect x="15.24" y="12.19" width="1.52" height="1.52" fill="#2e1b5b"></rect><rect x="15.24" y="6.1" width="1.52" height="1.52" fill="#2e1b5b"></rect><rect x="13.71" y="25.9" width="1.53" height="1.53" fill="#2e1b5b"></rect><rect x="13.71" y="19.81" width="1.53" height="1.52" fill="#2e1b5b"></rect><rect x="13.71" y="13.71" width="1.53" height="1.53" fill="#2e1b5b"></rect><rect x="13.71" y="7.62" width="1.53" height="1.52" fill="#2e1b5b"></rect><rect x="12.19" y="27.43" width="1.52" height="1.52" fill="#2e1b5b"></rect><rect x="12.19" y="21.33" width="1.52" height="1.53" fill="#2e1b5b"></rect><rect x="12.19" y="15.24" width="1.52" height="1.52" fill="#2e1b5b"></rect><rect x="12.19" y="9.14" width="1.52" height="1.53" fill="#2e1b5b"></rect><rect x="10.66" y="22.86" width="1.53" height="1.52" fill="#2e1b5b"></rect><rect x="10.66" y="16.76" width="1.53" height="1.53" fill="#2e1b5b"></rect><rect x="10.66" y="10.67" width="1.53" height="1.52" fill="#2e1b5b"></rect><path d="M10.66,30.48h1.53V28.95H10.66V24.38H7.62V21.33H3.05V19.81H1.52v1.52H0V32H10.66Zm-1.52,0H4.57V28.95H3.05V27.43H1.52V22.86H6.09V25.9H9.14Z" fill="#2e1b5b"></path><rect x="9.14" y="18.29" width="1.52" height="1.52" fill="#2e1b5b"></rect><rect x="9.14" y="12.19" width="1.52" height="1.52" fill="#2e1b5b"></rect><rect x="7.62" y="19.81" width="1.52" height="1.52" fill="#2e1b5b"></rect><rect x="7.62" y="13.71" width="1.52" height="1.53" fill="#2e1b5b"></rect><rect x="6.09" y="15.24" width="1.53" height="1.52" fill="#2e1b5b"></rect><rect x="4.57" y="16.76" width="1.52" height="1.53" fill="#2e1b5b"></rect><rect x="3.05" y="18.29" width="1.52" height="1.52" fill="#2e1b5b"></rect></g></svg>