<svg xmlns="http://www.w3.org/2000/svg" viewBox="0 0 32 32"><title>music-album-cd-disk-playlist</title><g><rect x="30.48" y="12.185" width="1.52" height="7.62" fill="currentColor"></rect><rect x="28.96" y="19.805" width="1.52" height="3.05" fill="currentColor"></rect><rect x="28.96" y="9.145" width="1.52" height="3.04" fill="currentColor"></rect><rect x="27.43" y="22.855" width="1.53" height="1.52" fill="currentColor"></rect><rect x="27.43" y="12.185" width="1.53" height="1.53" fill="currentColor"></rect><rect x="27.43" y="7.615" width="1.53" height="1.53" fill="currentColor"></rect><rect x="25.91" y="10.665" width="1.52" height="1.52" fill="currentColor"></rect><polygon points="24.38 18.285 25.91 18.285 25.91 13.715 24.38 13.715 24.38 7.615 27.43 7.615 27.43 6.095 24.38 6.095 24.38 4.565 22.86 4.565 22.86 27.425 24.38 27.425 24.38 25.905 27.43 25.905 27.43 24.375 24.38 24.375 24.38 18.285" fill="currentColor"></polygon><rect x="1.53" y="27.425" width="21.33" height="1.53" fill="currentColor"></rect><path d="M18.29,15.235H15.24v1.52H13.72v3.05h1.52v1.53h3.05v-1.53h1.52V9.145H18.29Zm0,3.05H16.77v-1.53h1.52Z" fill="currentColor"></path><rect x="15.24" y="7.615" width="3.05" height="1.53" fill="currentColor"></rect><rect x="12.19" y="9.145" width="3.05" height="1.52" fill="currentColor"></rect><rect x="9.15" y="10.665" width="3.04" height="1.52" fill="currentColor"></rect><path d="M7.62,18.285H4.58v1.52H3.05v3.05H4.58v1.52H7.62v-1.52H9.15V12.185H7.62Zm0,3.05H6.1v-1.53H7.62Z" fill="currentColor"></path><rect x="1.53" y="3.045" width="21.33" height="1.52" fill="currentColor"></rect><rect y="4.565" width="1.53" height="22.86" fill="currentColor"></rect></g></svg>