<svg xmlns="http://www.w3.org/2000/svg" viewBox="0 0 32 32"><title>hand-like</title><g><path d="M24.375,9.15v1.52h-1.52v1.52h1.52V27.43h-3.05v1.52h3.05v1.53h6.1V9.15Zm3.05,6.09h-1.52V12.19h1.52Z" fill="currentColor"></path><rect x="21.325" y="9.15" width="1.53" height="1.52" fill="currentColor"></rect><rect x="19.805" y="7.62" width="1.52" height="1.53" fill="currentColor"></rect><rect x="19.805" y="28.95" width="1.52" height="1.53" fill="currentColor"></rect><rect x="18.285" y="1.53" width="1.52" height="6.09" fill="currentColor"></rect><rect x="15.235" width="3.05" height="1.53" fill="currentColor"></rect><rect x="6.095" y="30.48" width="13.71" height="1.52" fill="currentColor"></rect><rect x="15.235" y="10.67" width="1.52" height="1.52" fill="currentColor"></rect><rect x="13.715" y="1.53" width="1.52" height="1.52" fill="currentColor"></rect><rect x="13.715" y="9.15" width="1.52" height="1.52" fill="currentColor"></rect><rect x="12.185" y="3.05" width="1.53" height="6.1" fill="currentColor"></rect><rect x="4.565" y="12.19" width="10.67" height="1.53" fill="currentColor"></rect><polygon points="10.665 27.43 10.665 25.91 3.045 25.91 3.045 28.95 4.565 28.95 4.565 27.43 10.665 27.43" fill="currentColor"></polygon><rect x="4.565" y="28.95" width="1.53" height="1.53" fill="currentColor"></rect><rect x="3.045" y="13.72" width="1.52" height="1.52" fill="currentColor"></rect><polygon points="9.135 22.86 9.135 21.34 3.045 21.34 3.045 18.29 9.135 18.29 9.135 16.76 3.045 16.76 3.045 15.24 1.525 15.24 1.525 25.91 3.045 25.91 3.045 22.86 9.135 22.86" fill="currentColor"></polygon></g></svg>