<svg xmlns="http://www.w3.org/2000/svg" viewBox="0 0 32 32"><title>logo-social-media-youtube-circle</title><path d="M30.47,9.14H28.95V6.09H27.42V4.57H25.9V3.05H22.85V1.52H19.81V0H12.19V1.52H9.14V3.05H6.09V4.57H4.57V6.09H3.04V9.14H1.52v3.05H0v7.62H1.52v3.05H3.04V25.9H4.57v1.53H6.09v1.52H9.14v1.53h3.05V32h7.62V30.48h3.04V28.95H25.9V27.43h1.52V25.9h1.53V22.86h1.52V19.81H32V12.19H30.47Zm-7.62,7.62H21.33v1.53H19.81v1.52H18.28v1.52H16.76v1.53H13.71v1.52H12.19V7.62h1.52V9.14h3.05v1.53h1.52v1.52h1.53v1.52h1.52v1.53h1.52Z" fill="currentColor"></path></svg>