<svg xmlns="http://www.w3.org/2000/svg" viewBox="0 0 32 32" height="48" width="48"><title>hand-awesome</title><g><rect x="10.665" y="9.905" width="1.53" height="1.52" fill="#2e1b5b"></rect><path d="M9.145,28.2V12.955h1.52v-1.53H9.145V9.9h-6.1v21.33h6.1v-1.52H12.2V28.2ZM7.615,16H6.1v-3.04h1.52Z" fill="#2e1b5b"></path><rect x="12.195" y="8.385" width="1.52" height="1.52" fill="#2e1b5b"></rect><rect x="13.715" y="2.285" width="1.52" height="6.1" fill="#2e1b5b"></rect><rect x="15.235" y="12.955" width="1.53" height="1.52" fill="#2e1b5b"></rect><rect x="15.235" y="0.765" width="3.05" height="1.52" fill="#2e1b5b"></rect><rect x="16.765" y="11.425" width="1.52" height="1.53" fill="#2e1b5b"></rect><rect x="16.765" y="17.525" width="1.52" height="3.05" fill="#2e1b5b"></rect><rect x="16.765" y="22.095" width="1.52" height="3.05" fill="#2e1b5b"></rect><rect x="18.285" y="2.285" width="1.52" height="1.52" fill="#2e1b5b"></rect><rect x="18.285" y="9.905" width="1.52" height="1.52" fill="#2e1b5b"></rect><rect x="19.805" y="3.805" width="1.53" height="6.1" fill="#2e1b5b"></rect><rect x="19.805" y="11.425" width="7.62" height="1.53" fill="#2e1b5b"></rect><polygon points="21.335 28.195 19.805 28.195 19.805 29.715 12.195 29.715 12.195 31.235 24.385 31.235 24.385 29.715 21.335 29.715 21.335 28.195" fill="#2e1b5b"></polygon><polygon points="18.285 25.145 18.285 28.195 19.805 28.195 19.805 26.665 25.905 26.665 25.905 28.195 27.425 28.195 27.425 25.145 18.285 25.145" fill="#2e1b5b"></polygon><rect x="24.385" y="28.195" width="1.52" height="1.52" fill="#2e1b5b"></rect><polygon points="27.425 15.995 19.805 15.995 19.805 12.955 18.285 12.955 18.285 17.525 27.425 17.525 27.425 20.575 18.285 20.575 18.285 22.095 27.425 22.095 27.425 25.145 28.955 25.145 28.955 12.955 27.425 12.955 27.425 15.995" fill="#2e1b5b"></polygon></g></svg>